<svg id="Слой_1" data-name="Слой 1" xmlns="http://www.w3.org/2000/svg" viewBox="0 0 164.22 160.44">
  <defs>
    <style>
      .cls-1 {
        fill: #3fa9f5;
      }
    </style>
  </defs>
  <title>KS_onli_logo</title>
  <g id="Знак_КС" data-name="Знак КС">
    <g>
      <path class="cls-1" d="M97.76,71.74c-5,0-9-3.17-9-7.06V19.8c0-3.9,4-7.06,9-7.06s9,3.16,9,7.06V64.68C106.76,68.57,102.72,71.74,97.76,71.74Z" transform="translate(-15.65 -12.24)"/>
      <path class="cls-1" d="M97.76,13.24c4.68,0,8.5,2.94,8.5,6.56V64.68c0,3.61-3.82,6.56-8.5,6.56s-8.5-2.95-8.5-6.56V19.8c0-3.62,3.81-6.56,8.5-6.56m0-1c-5.25,0-9.5,3.38-9.5,7.56V64.68c0,4.17,4.25,7.56,9.5,7.56s9.5-3.39,9.5-7.56V19.8c0-4.18-4.26-7.56-9.5-7.56Z" transform="translate(-15.65 -12.24)"/>
    </g>
    <g>
      <path class="cls-1" d="M65.06,94a5.71,5.71,0,0,1-1.74-.28L20.63,79.86a6.32,6.32,0,0,1-3.91-4,10.3,10.3,0,0,1,0-6.74c1.27-3.92,4.46-6.65,7.75-6.65a5.65,5.65,0,0,1,1.74.27L68.88,76.61c3.7,1.2,5.47,6,3.93,10.74C71.54,91.27,68.35,94,65.06,94Z" transform="translate(-15.65 -12.24)"/>
      <path class="cls-1" d="M24.45,63a5,5,0,0,1,1.59.25L68.73,77.09a5.85,5.85,0,0,1,3.59,3.7,9.77,9.77,0,0,1,0,6.41c-1.21,3.71-4.2,6.31-7.28,6.31a5.34,5.34,0,0,1-1.59-.25L20.79,79.39c-3.44-1.12-5.06-5.66-3.61-10.11,1.2-3.72,4.19-6.31,7.27-6.31m0-1c-3.42,0-6.86,2.79-8.23,7-1.62,5,.29,10.08,4.26,11.37L63.16,94.21a6.23,6.23,0,0,0,1.9.3c3.42,0,6.86-2.8,8.23-7,1.62-5-.29-10.08-4.26-11.37L26.35,62.27a5.9,5.9,0,0,0-1.9-.3Z" transform="translate(-15.65 -12.24)"/>
    </g>
    <g>
      <path class="cls-1" d="M130.45,95c-3.29,0-6.48-2.74-7.75-6.66-1.53-4.72.23-9.54,3.93-10.74l42.69-13.87a5.7,5.7,0,0,1,1.74-.27c3.29,0,6.48,2.73,7.75,6.65,1.54,4.72-.23,9.54-3.93,10.74L132.19,94.73a5.66,5.66,0,0,1-1.74.28Z" transform="translate(-15.65 -12.24)"/>
      <path class="cls-1" d="M171.06,64c3.08,0,6.07,2.59,7.28,6.31a9.77,9.77,0,0,1,0,6.41,5.85,5.85,0,0,1-3.59,3.7L132,94.26a5.34,5.34,0,0,1-1.59.25c-3.08,0-6.07-2.6-7.27-6.31-1.45-4.46.17-9,3.61-10.11l42.68-13.87a5,5,0,0,1,1.59-.25m0-1a5.94,5.94,0,0,0-1.9.3L126.48,77.14c-4,1.29-5.88,6.38-4.26,11.37,1.37,4.2,4.81,7,8.23,7a6.18,6.18,0,0,0,1.9-.3L175,81.34c4-1.29,5.88-6.38,4.26-11.37-1.37-4.21-4.81-7-8.23-7Z" transform="translate(-15.65 -12.24)"/>
    </g>
    <g>
      <path class="cls-1" d="M53.46,172.17a10.37,10.37,0,0,1-6-2.07,10.19,10.19,0,0,1-4-5.47,6.36,6.36,0,0,1,.81-5.53l26.38-36.31a6.53,6.53,0,0,1,5.39-2.49,10.49,10.49,0,0,1,6,2.07A10.3,10.3,0,0,1,86,127.84a6.36,6.36,0,0,1-.81,5.53L58.85,169.68a6.49,6.49,0,0,1-5.39,2.49Z" transform="translate(-15.65 -12.24)"/>
      <path class="cls-1" d="M76.05,120.8a9.87,9.87,0,0,1,5.75,2c3.79,2.75,5.15,7.37,3,10.3L58.44,169.39a5.93,5.93,0,0,1-5,2.28,10,10,0,0,1-5.75-2A9.85,9.85,0,0,1,44,164.5a5.82,5.82,0,0,1,.74-5.1l26.38-36.31a5.91,5.91,0,0,1,5-2.29m0-1a7,7,0,0,0-5.79,2.7L43.88,158.81c-2.45,3.38-1,8.61,3.24,11.7a10.94,10.94,0,0,0,6.34,2.16A7,7,0,0,0,59.25,170l26.38-36.31c2.46-3.38,1-8.62-3.24-11.7a11,11,0,0,0-6.34-2.17Z" transform="translate(-15.65 -12.24)"/>
    </g>
    <g>
      <path class="cls-1" d="M142.05,171.17a6.5,6.5,0,0,1-5.39-2.49l-26.38-36.31a6.36,6.36,0,0,1-.81-5.53,10.27,10.27,0,0,1,4-5.47,10.44,10.44,0,0,1,6-2.07,6.5,6.5,0,0,1,5.39,2.49l26.38,36.31a6.36,6.36,0,0,1,.81,5.53,10.22,10.22,0,0,1-3.94,5.47,10.42,10.42,0,0,1-6,2.07Z" transform="translate(-15.65 -12.24)"/>
      <path class="cls-1" d="M119.46,119.8a5.91,5.91,0,0,1,5,2.29l26.38,36.31a5.82,5.82,0,0,1,.74,5.1,9.8,9.8,0,0,1-3.76,5.2,9.93,9.93,0,0,1-5.75,2,5.93,5.93,0,0,1-5-2.28l-26.38-36.31A5.84,5.84,0,0,1,110,127a9.79,9.79,0,0,1,3.76-5.19,9.9,9.9,0,0,1,5.75-2m0-1a11,11,0,0,0-6.34,2.17c-4.24,3.08-5.69,8.32-3.24,11.7L136.26,169a7,7,0,0,0,5.79,2.69,10.91,10.91,0,0,0,6.34-2.16c4.24-3.09,5.7-8.32,3.24-11.7L125.25,121.5a7,7,0,0,0-5.79-2.7Z" transform="translate(-15.65 -12.24)"/>
    </g>
  </g>
</svg>
