<?xml version="1.0" encoding="UTF-8" standalone="no"?>
<!-- Created with Inkscape (http://www.inkscape.org/) -->

<svg
   xmlns:dc="http://purl.org/dc/elements/1.1/"
   xmlns:cc="http://creativecommons.org/ns#"
   xmlns:rdf="http://www.w3.org/1999/02/22-rdf-syntax-ns#"
   xmlns:svg="http://www.w3.org/2000/svg"
   xmlns="http://www.w3.org/2000/svg"
   xmlns:sodipodi="http://sodipodi.sourceforge.net/DTD/sodipodi-0.dtd"
   xmlns:inkscape="http://www.inkscape.org/namespaces/inkscape"
   width="210mm"
   height="235mm"
   viewBox="0 0 210 235"
   version="1.1"
   id="svg8"
   inkscape:version="0.92.0 r15299"
   sodipodi:docname="sorry_cat2.svg">
  <defs
     id="defs2" />
  <sodipodi:namedview
     id="base"
     pagecolor="#ffffff"
     bordercolor="#666666"
     borderopacity="1.0"
     inkscape:pageopacity="0.0"
     inkscape:pageshadow="2"
     inkscape:zoom="0.35"
     inkscape:cx="81.428571"
     inkscape:cy="560"
     inkscape:document-units="mm"
     inkscape:current-layer="layer1-3"
     showgrid="false"
     inkscape:window-width="1280"
     inkscape:window-height="738"
     inkscape:window-x="-8"
     inkscape:window-y="-8"
     inkscape:window-maximized="1" />
  <metadata
     id="metadata5">
    <rdf:RDF>
      <cc:Work
         rdf:about="">
        <dc:format>image/svg+xml</dc:format>
        <dc:type
           rdf:resource="http://purl.org/dc/dcmitype/StillImage" />
        <dc:title></dc:title>
      </cc:Work>
    </rdf:RDF>
  </metadata>
  <g
     inkscape:label="Layer 1"
     inkscape:groupmode="layer"
     id="layer1"
     transform="translate(0,-62)">
    <g
       style="display:inline"
       id="layer1-3"
       inkscape:label="Layer 1"
       transform="matrix(1.6255035,0,0,1.4013803,-44.488735,-30.56005)">
      <g
         inkscape:label="g4057"
         inkscape:groupmode="layer"
         style="display:inline"
         transform="matrix(0.26458333,0,0,0.26458333,-17.821576,63.036291)"
         id="g4057">
        <g
           style="display:inline"
           id="g3915">
          <path
             style="display:none;opacity:0.77999998;fill:#c8ffe8;enable-background:new"
             inkscape:connector-curvature="0"
             class="st0"
             d="m 711.7,147.3 c -35.6,-13.5 -97,-8.9 -166.6,7.3 C 458.8,103 347,122.2 281.5,199.4 l -44.4,52.3 c -131.7,-33.9 -215,165.2 -215,250 0,49.2 39.3,117.2 48.7,117.2 h 356.4 l 81.4,-0.1 11.6,0.6 C 654.5,642.4 845,633 880.8,539.4 925.3,422.8 828.6,191.8 711.7,147.3 Z"
             id="path3682" />
          <g
             style="display:inline"
             inkscape:groupmode="layer"
             id="cat_2">
            <g
               style="display:inline"
               id="КОТ_2">
              <g
                 style="display:none;opacity:0.6"
                 id="ФОН_2_"
                 class="st1">
                <g
                   style="display:inline"
                   id="ФОН_3_"
                   class="st2">
                  <g
                     style="display:none"
                     id="Мышь_1_"
                     class="st3">
                    <path
                       style="display:inline;fill:#6d6e71"
                       inkscape:connector-curvature="0"
                       class="st4"
                       d="m 86.4,590.6 c -2.5,-0.7 -7,-1.3 -10.9,-0.7 -2.4,0.4 -4.6,1.2 -6,2.7 -3.3,3.5 -1.2,7.1 1.1,11 1.3,2.3 2.9,5 3.9,8.2 0.4,1.5 0.2,2.8 -0.6,3.9 -1.6,1.9 -6,5 -19.8,6 v 0 c -1.1,0 -1.9,0.8 -1.9,1.8 0,1 0.8,1.8 1.9,1.8 0.1,0 0.2,0 0.4,0 v 0 c 11.9,-1 19.2,-3.4 22.4,-7.5 1.6,-2.1 2.1,-4.5 1.2,-7.1 -1.1,-3.6 -2.8,-6.7 -4.1,-9.1 -2.4,-4.1 -2.8,-5.3 -1.6,-6.7 2.2,-2.2 9.4,-2.1 13.3,-1 1,0.2 1.9,-0.2 2.3,-1.2 -0.1,-0.8 -0.6,-1.7 -1.6,-2.1 z"
                       id="path3684" />
                    <path
                       style="display:inline;fill:#aaacaf"
                       inkscape:connector-curvature="0"
                       class="st5"
                       d="m 83.3,593.3 v 0 c 0,-0.7 0.1,-1.5 0.5,-2.1 v 0 c 0.6,-1 1.7,-1.6 2.9,-1.6 h 75.2 c 2.4,0 4.1,2.5 3.1,4.8 -1.9,4.5 -6.5,8.7 -12.5,12.5 -1.9,-3.4 -5.6,-5.6 -9.7,-5.6 -6.2,0 -11.1,5 -11.1,11.1 0,1.1 0.1,2.2 0.5,3.3 -6.7,1.8 -13.4,2.9 -19.7,2.9 -20.1,0 -27.6,-11.2 -29.1,-23.7 0,-0.5 0,-1.1 -0.1,-1.6 z"
                       id="path3686" />
                    <path
                       style="display:inline;opacity:0.6;fill:#6d6e71;enable-background:new"
                       inkscape:connector-curvature="0"
                       class="st6"
                       d="m 131.8,612.4 c 0,-6.2 5,-11.1 11.1,-11.1 4.1,0 7.7,2.3 9.7,5.6 -5.8,3.6 -12.9,6.7 -20.3,8.8 -0.3,-1 -0.5,-2.1 -0.5,-3.3 z"
                       id="path3688" />
                    <path
                       style="display:inline;fill:#6d6e71"
                       inkscape:connector-curvature="0"
                       class="st4"
                       d="m 131.8,612.4 c 0,-6.2 5,-11.1 11.1,-11.1 4.1,0 7.7,2.3 9.7,5.6 1,1.6 1.5,3.5 1.5,5.6 0,6.2 -5,11.1 -11.1,11.1 -5,0 -9.2,-3.3 -10.6,-7.9 -0.4,-1 -0.6,-2.1 -0.6,-3.3 z"
                       id="path3690" />
                  </g>
                  <g
                     style="display:none"
                     id="Когтеточка_1_"
                     class="st3">
                    <g
                       style="display:inline"
                       class="st2"
                       id="g3761">
                      <g
                         style="opacity:0.4"
                         class="st7"
                         id="g3753">
                        <path
                           style="fill:none;stroke:#6d6e71;stroke-width:3;stroke-linecap:round;stroke-miterlimit:10"
                           inkscape:connector-curvature="0"
                           class="st8"
                           d="m 719.7,269.5 h -49.9 c -2.2,0 -3.7,-1.7 -3.7,-3.7 v -1.7 c 0,-2.2 1.7,-3.7 3.7,-3.7 h 49.9 c 2.2,0 3.7,1.7 3.7,3.7 v 1.7 c 0.2,2 -1.6,3.7 -3.7,3.7 z"
                           id="path3693" />
                        <path
                           style="fill:none;stroke:#6d6e71;stroke-width:3;stroke-linecap:round;stroke-miterlimit:10"
                           inkscape:connector-curvature="0"
                           class="st8"
                           d="m 719.7,279 h -49.9 c -2.2,0 -3.7,-1.7 -3.7,-3.7 v -1.7 c 0,-2.2 1.7,-3.7 3.7,-3.7 h 49.9 c 2.2,0 3.7,1.7 3.7,3.7 v 1.7 c 0.2,1.9 -1.6,3.7 -3.7,3.7 z"
                           id="path3695" />
                        <path
                           style="fill:none;stroke:#6d6e71;stroke-width:3;stroke-linecap:round;stroke-miterlimit:10"
                           inkscape:connector-curvature="0"
                           class="st8"
                           d="m 719.7,288.2 h -49.9 c -2.2,0 -3.7,-1.7 -3.7,-3.7 v -1.7 c 0,-2.2 1.7,-3.7 3.7,-3.7 h 49.9 c 2.2,0 3.7,1.7 3.7,3.7 v 1.7 c 0.2,2 -1.6,3.7 -3.7,3.7 z"
                           id="path3697" />
                        <path
                           style="fill:none;stroke:#6d6e71;stroke-width:3;stroke-linecap:round;stroke-miterlimit:10"
                           inkscape:connector-curvature="0"
                           class="st8"
                           d="m 719.7,297.6 h -49.9 c -2.2,0 -3.7,-1.7 -3.7,-3.7 v -1.7 c 0,-2.2 1.7,-3.7 3.7,-3.7 h 49.9 c 2.2,0 3.7,1.7 3.7,3.7 v 1.7 c 0.2,2 -1.6,3.7 -3.7,3.7 z"
                           id="path3699" />
                        <path
                           style="fill:none;stroke:#6d6e71;stroke-width:3;stroke-linecap:round;stroke-miterlimit:10"
                           inkscape:connector-curvature="0"
                           class="st8"
                           d="m 719.7,306.9 h -49.9 c -2.2,0 -3.7,-1.7 -3.7,-3.7 v -1.7 c 0,-2.2 1.7,-3.7 3.7,-3.7 h 49.9 c 2.2,0 3.7,1.7 3.7,3.7 v 1.7 c 0.2,2 -1.6,3.7 -3.7,3.7 z"
                           id="path3701" />
                        <path
                           style="fill:none;stroke:#6d6e71;stroke-width:3;stroke-linecap:round;stroke-miterlimit:10"
                           inkscape:connector-curvature="0"
                           class="st8"
                           d="m 719.7,316.3 h -49.9 c -2.2,0 -3.7,-1.7 -3.7,-3.7 v -1.7 c 0,-2.2 1.7,-3.7 3.7,-3.7 h 49.9 c 2.2,0 3.7,1.7 3.7,3.7 v 1.7 c 0.2,1.9 -1.6,3.7 -3.7,3.7 z"
                           id="path3703" />
                        <path
                           style="fill:none;stroke:#6d6e71;stroke-width:3;stroke-linecap:round;stroke-miterlimit:10"
                           inkscape:connector-curvature="0"
                           class="st8"
                           d="m 719.7,325.5 h -49.9 c -2.2,0 -3.7,-1.7 -3.7,-3.7 v -1.7 c 0,-2.2 1.7,-3.7 3.7,-3.7 h 49.9 c 2.2,0 3.7,1.7 3.7,3.7 v 1.7 c 0.2,2 -1.6,3.7 -3.7,3.7 z"
                           id="path3705" />
                        <path
                           style="fill:none;stroke:#6d6e71;stroke-width:3;stroke-linecap:round;stroke-miterlimit:10"
                           inkscape:connector-curvature="0"
                           class="st8"
                           d="m 719.7,335 h -49.9 c -2.2,0 -3.7,-1.7 -3.7,-3.7 v -1.7 c 0,-2.2 1.7,-3.7 3.7,-3.7 h 49.9 c 2.2,0 3.7,1.7 3.7,3.7 v 1.7 c 0.2,2 -1.6,3.7 -3.7,3.7 z"
                           id="path3707" />
                        <path
                           style="fill:none;stroke:#6d6e71;stroke-width:3;stroke-linecap:round;stroke-miterlimit:10"
                           inkscape:connector-curvature="0"
                           class="st8"
                           d="m 719.7,344.3 h -49.9 c -2.2,0 -3.7,-1.7 -3.7,-3.7 v -1.7 c 0,-2.2 1.7,-3.7 3.7,-3.7 h 49.9 c 2.2,0 3.7,1.7 3.7,3.7 v 1.7 c 0.2,2 -1.6,3.7 -3.7,3.7 z"
                           id="path3709" />
                        <path
                           style="fill:none;stroke:#6d6e71;stroke-width:3;stroke-linecap:round;stroke-miterlimit:10"
                           inkscape:connector-curvature="0"
                           class="st8"
                           d="m 719.7,353.6 h -49.9 c -2.2,0 -3.7,-1.7 -3.7,-3.7 v -1.7 c 0,-2.2 1.7,-3.7 3.7,-3.7 h 49.9 c 2.2,0 3.7,1.7 3.7,3.7 v 1.7 c 0.2,2 -1.6,3.7 -3.7,3.7 z"
                           id="path3711" />
                        <path
                           style="fill:none;stroke:#6d6e71;stroke-width:3;stroke-linecap:round;stroke-miterlimit:10"
                           inkscape:connector-curvature="0"
                           class="st8"
                           d="m 719.7,362.9 h -49.9 c -2.2,0 -3.7,-1.7 -3.7,-3.7 v -1.7 c 0,-2.2 1.7,-3.7 3.7,-3.7 h 49.9 c 2.2,0 3.7,1.7 3.7,3.7 v 1.7 c 0.2,2 -1.6,3.7 -3.7,3.7 z"
                           id="path3713" />
                        <path
                           style="fill:none;stroke:#6d6e71;stroke-width:3;stroke-linecap:round;stroke-miterlimit:10"
                           inkscape:connector-curvature="0"
                           class="st8"
                           d="m 719.7,372.3 h -49.9 c -2.2,0 -3.7,-1.7 -3.7,-3.7 v -1.7 c 0,-2.2 1.7,-3.7 3.7,-3.7 h 49.9 c 2.2,0 3.7,1.7 3.7,3.7 v 1.7 c 0.2,2 -1.6,3.7 -3.7,3.7 z"
                           id="path3715" />
                        <path
                           style="fill:none;stroke:#6d6e71;stroke-width:3;stroke-linecap:round;stroke-miterlimit:10"
                           inkscape:connector-curvature="0"
                           class="st8"
                           d="m 719.7,381.6 h -49.9 c -2.2,0 -3.7,-1.7 -3.7,-3.7 v -1.7 c 0,-2.2 1.7,-3.7 3.7,-3.7 h 49.9 c 2.2,0 3.7,1.7 3.7,3.7 v 1.7 c 0.2,1.9 -1.6,3.7 -3.7,3.7 z"
                           id="path3717" />
                        <path
                           style="fill:none;stroke:#6d6e71;stroke-width:3;stroke-linecap:round;stroke-miterlimit:10"
                           inkscape:connector-curvature="0"
                           class="st8"
                           d="m 719.7,391 h -49.9 c -2.2,0 -3.7,-1.7 -3.7,-3.7 v -1.7 c 0,-2.2 1.7,-3.7 3.7,-3.7 h 49.9 c 2.2,0 3.7,1.7 3.7,3.7 v 1.7 c 0.2,2 -1.6,3.7 -3.7,3.7 z"
                           id="path3719" />
                        <path
                           style="fill:none;stroke:#6d6e71;stroke-width:3;stroke-linecap:round;stroke-miterlimit:10"
                           inkscape:connector-curvature="0"
                           class="st8"
                           d="m 719.7,400.3 h -49.9 c -2.2,0 -3.7,-1.7 -3.7,-3.7 v -1.7 c 0,-2.2 1.7,-3.7 3.7,-3.7 h 49.9 c 2.2,0 3.7,1.7 3.7,3.7 v 1.7 c 0.2,2 -1.6,3.7 -3.7,3.7 z"
                           id="path3721" />
                        <path
                           style="fill:none;stroke:#6d6e71;stroke-width:3;stroke-linecap:round;stroke-miterlimit:10"
                           inkscape:connector-curvature="0"
                           class="st8"
                           d="m 719.7,409.7 h -49.9 c -2.2,0 -3.7,-1.7 -3.7,-3.7 v -1.7 c 0,-2.2 1.7,-3.7 3.7,-3.7 h 49.9 c 2.2,0 3.7,1.7 3.7,3.7 v 1.7 c 0.2,2 -1.6,3.7 -3.7,3.7 z"
                           id="path3723" />
                        <path
                           style="fill:none;stroke:#6d6e71;stroke-width:3;stroke-linecap:round;stroke-miterlimit:10"
                           inkscape:connector-curvature="0"
                           class="st8"
                           d="m 719.7,419 h -49.9 c -2.2,0 -3.7,-1.7 -3.7,-3.7 v -1.7 c 0,-2.2 1.7,-3.7 3.7,-3.7 h 49.9 c 2.2,0 3.7,1.7 3.7,3.7 v 1.7 c 0.2,1.9 -1.6,3.7 -3.7,3.7 z"
                           id="path3725" />
                        <path
                           style="fill:none;stroke:#6d6e71;stroke-width:3;stroke-linecap:round;stroke-miterlimit:10"
                           inkscape:connector-curvature="0"
                           class="st8"
                           d="m 719.7,428.3 h -49.9 c -2.2,0 -3.7,-1.7 -3.7,-3.7 v -1.7 c 0,-2.2 1.7,-3.7 3.7,-3.7 h 49.9 c 2.2,0 3.7,1.7 3.7,3.7 v 1.7 c 0.2,2 -1.6,3.7 -3.7,3.7 z"
                           id="path3727" />
                        <path
                           style="fill:none;stroke:#6d6e71;stroke-width:3;stroke-linecap:round;stroke-miterlimit:10"
                           inkscape:connector-curvature="0"
                           class="st8"
                           d="m 719.7,437.6 h -49.9 c -2.2,0 -3.7,-1.7 -3.7,-3.7 v -1.7 c 0,-2.2 1.7,-3.7 3.7,-3.7 h 49.9 c 2.2,0 3.7,1.7 3.7,3.7 v 1.7 c 0.2,2 -1.6,3.7 -3.7,3.7 z"
                           id="path3729" />
                        <path
                           style="fill:none;stroke:#6d6e71;stroke-width:3;stroke-linecap:round;stroke-miterlimit:10"
                           inkscape:connector-curvature="0"
                           class="st8"
                           d="m 719.7,447.1 h -49.9 c -2.2,0 -3.7,-1.7 -3.7,-3.7 v -1.8 c 0,-2.2 1.7,-3.7 3.7,-3.7 h 49.9 c 2.2,0 3.7,1.7 3.7,3.7 v 1.7 c 0.2,2.1 -1.6,3.8 -3.7,3.8 z"
                           id="path3731" />
                        <path
                           style="fill:none;stroke:#6d6e71;stroke-width:3;stroke-linecap:round;stroke-miterlimit:10"
                           inkscape:connector-curvature="0"
                           class="st8"
                           d="m 719.7,456.4 h -49.9 c -2.2,0 -3.7,-1.7 -3.7,-3.7 V 451 c 0,-2.2 1.7,-3.7 3.7,-3.7 h 49.9 c 2.2,0 3.7,1.7 3.7,3.7 v 1.7 c 0.2,1.9 -1.6,3.7 -3.7,3.7 z"
                           id="path3733" />
                        <path
                           style="fill:none;stroke:#6d6e71;stroke-width:3;stroke-linecap:round;stroke-miterlimit:10"
                           inkscape:connector-curvature="0"
                           class="st8"
                           d="m 719.7,465.7 h -49.9 c -2.2,0 -3.7,-1.7 -3.7,-3.7 v -1.7 c 0,-2.2 1.7,-3.7 3.7,-3.7 h 49.9 c 2.2,0 3.7,1.7 3.7,3.7 v 1.7 c 0.2,2 -1.6,3.7 -3.7,3.7 z"
                           id="path3735" />
                        <path
                           style="fill:none;stroke:#6d6e71;stroke-width:3;stroke-linecap:round;stroke-miterlimit:10"
                           inkscape:connector-curvature="0"
                           class="st8"
                           d="m 719.7,475 h -49.9 c -2.2,0 -3.7,-1.7 -3.7,-3.7 v -1.7 c 0,-2.2 1.7,-3.7 3.7,-3.7 h 49.9 c 2.2,0 3.7,1.7 3.7,3.7 v 1.7 c 0.2,2 -1.6,3.7 -3.7,3.7 z"
                           id="path3737" />
                        <path
                           style="fill:none;stroke:#6d6e71;stroke-width:3;stroke-linecap:round;stroke-miterlimit:10"
                           inkscape:connector-curvature="0"
                           class="st8"
                           d="m 719.7,484.4 h -49.9 c -2.2,0 -3.7,-1.7 -3.7,-3.7 V 479 c 0,-2.2 1.7,-3.7 3.7,-3.7 h 49.9 c 2.2,0 3.7,1.7 3.7,3.7 v 1.7 c 0.2,1.9 -1.6,3.7 -3.7,3.7 z"
                           id="path3739" />
                        <path
                           style="fill:none;stroke:#6d6e71;stroke-width:3;stroke-linecap:round;stroke-miterlimit:10"
                           inkscape:connector-curvature="0"
                           class="st8"
                           d="m 719.7,493.8 h -49.9 c -2.2,0 -3.7,-1.7 -3.7,-3.7 v -1.7 c 0,-2.2 1.7,-3.7 3.7,-3.7 h 49.9 c 2.2,0 3.7,1.7 3.7,3.7 v 1.7 c 0.2,1.8 -1.6,3.7 -3.7,3.7 z"
                           id="path3741" />
                        <path
                           style="fill:none;stroke:#6d6e71;stroke-width:3;stroke-linecap:round;stroke-miterlimit:10"
                           inkscape:connector-curvature="0"
                           class="st8"
                           d="m 719.7,503.1 h -49.9 c -2.2,0 -3.7,-1.7 -3.7,-3.7 v -1.7 c 0,-2.2 1.7,-3.7 3.7,-3.7 h 49.9 c 2.2,0 3.7,1.7 3.7,3.7 v 1.7 c 0.2,2 -1.6,3.7 -3.7,3.7 z"
                           id="path3743" />
                        <path
                           style="fill:none;stroke:#6d6e71;stroke-width:3;stroke-linecap:round;stroke-miterlimit:10"
                           inkscape:connector-curvature="0"
                           class="st8"
                           d="m 719.7,512.4 h -49.9 c -2.2,0 -3.7,-1.7 -3.7,-3.7 V 507 c 0,-2.2 1.7,-3.7 3.7,-3.7 h 49.9 c 2.2,0 3.7,1.7 3.7,3.7 v 1.7 c 0.2,2 -1.6,3.7 -3.7,3.7 z"
                           id="path3745" />
                        <path
                           style="fill:none;stroke:#6d6e71;stroke-width:3;stroke-linecap:round;stroke-miterlimit:10"
                           inkscape:connector-curvature="0"
                           class="st8"
                           d="m 719.7,521.8 h -49.9 c -2.2,0 -3.7,-1.7 -3.7,-3.7 v -1.7 c 0,-2.2 1.7,-3.7 3.7,-3.7 h 49.9 c 2.2,0 3.7,1.7 3.7,3.7 v 1.7 c 0.2,1.9 -1.6,3.7 -3.7,3.7 z"
                           id="path3747" />
                        <path
                           style="fill:none;stroke:#6d6e71;stroke-width:3;stroke-linecap:round;stroke-miterlimit:10"
                           inkscape:connector-curvature="0"
                           class="st8"
                           d="m 719.7,531 h -49.9 c -2.2,0 -3.7,-1.7 -3.7,-3.7 v -1.7 c 0,-2.2 1.7,-3.7 3.7,-3.7 h 49.9 c 2.2,0 3.7,1.7 3.7,3.7 v 1.7 c 0.2,2 -1.6,3.7 -3.7,3.7 z"
                           id="path3749" />
                        <path
                           style="fill:none;stroke:#6d6e71;stroke-width:3;stroke-linecap:round;stroke-miterlimit:10"
                           inkscape:connector-curvature="0"
                           class="st8"
                           d="m 719.7,540.4 h -49.9 c -2.2,0 -3.7,-1.7 -3.7,-3.7 V 535 c 0,-2.2 1.7,-3.7 3.7,-3.7 h 49.9 c 2.2,0 3.7,1.7 3.7,3.7 v 1.7 c 0.2,2 -1.6,3.7 -3.7,3.7 z"
                           id="path3751" />
                      </g>
                      <path
                         style="fill:#6d6e71"
                         inkscape:connector-curvature="0"
                         class="st9"
                         d="m 722,262.4 h -54.7 c -2.8,0 -5.1,-2.3 -5.1,-5.1 v -4.1 c 0,-2.8 2.3,-5.1 5.1,-5.1 H 722 c 2.8,0 5.1,2.3 5.1,5.1 v 4.1 c 0,2.8 -2.3,5.1 -5.1,5.1 z"
                         id="path3755" />
                      <rect
                         style="fill:#6d6e71"
                         x="660.5"
                         y="540.40002"
                         class="st9"
                         width="68.599998"
                         height="29.700001"
                         id="rect3757" />
                      <rect
                         style="fill:#6d6e71"
                         x="623.5"
                         y="570.20001"
                         class="st9"
                         width="142.60001"
                         height="16.799999"
                         id="rect3759" />
                    </g>
                    <path
                       style="display:inline;opacity:0.6;fill:none;stroke:#6d6e71;stroke-width:3;stroke-linecap:round;stroke-miterlimit:10;enable-background:new"
                       inkscape:connector-curvature="0"
                       class="st10"
                       d="m 694.7,251.6 c 0,-35.2 28.7,-63.9 63.9,-63.9 35.2,0 63.9,28.7 63.9,63.9"
                       id="path3763" />
                    <circle
                       style="display:inline;opacity:0.6;fill:#6d6e71;enable-background:new"
                       class="st6"
                       cx="822.40002"
                       cy="276.10001"
                       r="23.799999"
                       id="circle3765" />
                  </g>
                  <g
                     style="display:none"
                     id="Кактус_1_"
                     class="st3">
                    <polygon
                       style="display:inline;fill:#6d6e71"
                       class="st4"
                       points="726.3,467.5 709.9,591.3 632.2,591.3 614.8,467.5 651.9,467.5 689.2,467.5 "
                       id="polygon3768" />
                    <path
                       style="display:inline;fill:#b6b7ba"
                       inkscape:connector-curvature="0"
                       class="st11"
                       d="m 720.4,323.5 v 45.6 c 0,8.5 -5.4,15.2 -11.9,15.2 h -20.1 v 83.2 h -32.2 v -60.8 h -23.6 c -6.7,0 -12.2,-6.9 -12.2,-15.6 0,-0.1 0,-0.2 0,-0.2 0,-0.1 0,-0.2 0,-0.2 V 341 c 0,-8.8 5.6,-16.1 12.6,-16.1 6.9,0 12.6,7.3 12.6,16.1 v 34.7 h 10.6 v -66.4 c 0,-5.7 1.8,-10.8 4.8,-14.5 2.9,-3.7 6.9,-6 11.4,-6 8.9,0 16.1,9.2 16.1,20.6 v 44.5 h 8 v -30.5 c 0,-8.5 5.4,-15.2 11.9,-15.2 6.8,-0.1 12,6.8 12,15.3 z"
                       id="path3770" />
                  </g>
                  <g
                     id="ДЕТАЛИ_1_">
                    <circle
                       style="fill:none;stroke:#99bb6e;stroke-width:2;stroke-linecap:round;stroke-miterlimit:10;stroke-dasharray:5"
                       class="st12"
                       cx="786"
                       cy="153.2"
                       r="24.9"
                       id="circle3773" />
                    <circle
                       style="fill:#e5dcff"
                       r="11.5"
                       class="st13"
                       cx="660.29999"
                       cy="108.9"
                       id="ellipse3775" />
                    <circle
                       style="fill:#adc3d8"
                       class="st14"
                       cx="107.6"
                       cy="143.89999"
                       r="9.8999996"
                       id="circle3777" />
                    <circle
                       style="fill:none;stroke:#b57fa5;stroke-width:2;stroke-linecap:round;stroke-miterlimit:10;stroke-dasharray:5"
                       class="st15"
                       cx="165.7"
                       cy="303.60001"
                       r="15.7"
                       id="circle3779" />
                    <g
                       id="g3787">
                      <line
                         style="fill:none;stroke:#b57fa5;stroke-width:3;stroke-linecap:round;stroke-miterlimit:10"
                         class="st16"
                         x1="166.60001"
                         y1="190.8"
                         x2="166.60001"
                         y2="204.5"
                         id="line3781" />
                      <g
                         id="g3785">
                        <line
                           style="fill:none;stroke:#b57fa5;stroke-width:3;stroke-linecap:round;stroke-miterlimit:10"
                           class="st16"
                           x1="173.3"
                           y1="197.7"
                           x2="159.7"
                           y2="197.7"
                           id="line3783" />
                      </g>
                    </g>
                    <g
                       id="g3795">
                      <line
                         style="fill:none;stroke:#9f9ecd;stroke-width:3;stroke-linecap:round;stroke-linejoin:round;stroke-miterlimit:10"
                         class="st17"
                         x1="834.29999"
                         y1="342.89999"
                         x2="834.29999"
                         y2="362.29999"
                         id="line3789" />
                      <g
                         id="g3793">
                        <line
                           style="fill:none;stroke:#9f9ecd;stroke-width:3;stroke-linecap:round;stroke-linejoin:round;stroke-miterlimit:10"
                           class="st17"
                           x1="844.09998"
                           y1="352.70001"
                           x2="824.70001"
                           y2="352.70001"
                           id="line3791" />
                      </g>
                    </g>
                    <path
                       style="display:none;opacity:0.9;fill:#6d6e71;enable-background:new"
                       inkscape:connector-curvature="0"
                       class="st18"
                       d="m 723.8,-91.8 c -1.1,-2.8 -2.5,-5.4 -4.5,-7.7 v 0 0 c -6.4,-8 -17.2,-13.3 -29.4,-13.3 -19.7,0 -35.6,13.5 -35.6,30.4 0,-16.8 -16,-30.4 -35.6,-30.4 -12.2,0 -23,5.3 -29.4,13.3 v 0 0 c -1.9,2.4 -3.4,5 -4.5,7.7 -18.4,43.7 69.7,83.8 69.7,83.8 0,0 87.8,-40.1 69.3,-83.8 z"
                       id="path3797" />
                  </g>
                </g>
              </g>
              <g
                 id="Пол_2_">
                <line
                   style="fill:none;stroke:#101537;stroke-width:3;stroke-linecap:round;stroke-miterlimit:10"
                   class="st19"
                   x1="173.2"
                   y1="571.90002"
                   x2="638.79999"
                   y2="571.90002"
                   id="line3802" />
              </g>
              <g
                 style="display:inline"
                 id="КОТИК">
                <g
                   id="g3826">
                  <path
                     style="fill:#ffffff"
                     inkscape:connector-curvature="0"
                     class="st25"
                     d="m 330.1,447.7 c 0,0 -34.1,-79.7 -78.4,-79.5 -5.8,0 -11,3.5 -13.5,8.7 -7.5,16 -11.6,55.7 81.9,113.1"
                     id="path3818" />
                  <path
                     style="fill:none;stroke:#726a65;stroke-width:3;stroke-linecap:round;stroke-miterlimit:10"
                     inkscape:connector-curvature="0"
                     class="st26"
                     d="m 330.1,447.7 c 0,0 -34.1,-79.7 -78.4,-79.5 -5.8,0 -11,3.5 -13.5,8.7 -7.5,16 -11.6,55.7 81.9,113.1"
                     id="path3820" />
                  <path
                     style="fill:#ffffff"
                     inkscape:connector-curvature="0"
                     class="st25"
                     d="m 643.2,320 c 0,0 9.1,41.5 -26.4,22.3 -4.7,-2.5 -8.9,-5.9 -12.8,-9.7 -6.7,-6.5 -22.4,-18.9 -38.2,-3.6 17.4,46.9 45.3,160.2 -44.6,254 -3.6,3.7 -5,9.2 -3.3,14.1 2.1,6.2 6.7,15.8 16.8,29.9 0,0 -1.7,14.1 -18.4,8.3 -16.6,-5.8 -17.9,4.5 -17.9,4.5 0,0 -37.4,9.7 -44.5,-13.5 -3.5,-11.6 -4.2,-29.3 -6.8,-44.4 -2.4,-15.1 -6.5,-27.6 -16.8,-28.9 -36.8,29.9 -117.2,89.9 -169.1,88.8 0,0 -21.9,-4.6 -6.4,-25.9 0,0 -11,-1.9 -5.6,-16.7 5.6,-14.9 51.9,-35.4 56.5,-47 4.4,-11.1 28.9,-147.4 56.6,-203.6 2.4,-4.8 1.1,-10.6 -3,-14 -8.1,-6.7 -24.3,-11.9 -51.6,13.7 -4.1,3.7 -9.2,6.4 -14.8,7.1 -7.7,1.1 -15.7,-1.7 -9.7,-20.8 0,0 -49,-16.1 -2.5,-31 0,0 -16,-14.1 -12.6,-22.6 1,-2.4 3.9,-3.6 6.4,-2.8 12.2,4 61.4,17.1 86.1,-22 4.8,-7.6 9.8,-15.4 15.2,-22.5 8.5,-11.1 19.3,-27.2 22.1,-38.6 4.4,-18.3 -28.2,-20.4 -13.1,-99.8 v 0 l -44,-4.6 c -1.3,-0.1 -1.9,-1.9 -0.7,-2.8 l 50.2,-38.5 c 0,0 31.3,-27.8 70.9,-34.3 v 0 C 515.3,2.6 563,33.2 573.7,41 c 1,0.7 0.7,2.2 -0.4,2.5 l -32.7,11.2 c 14.6,25.9 37.2,77.9 5.7,110.4 0,0 -0.1,0.1 -0.2,0.2 -5.3,5.7 -7.4,17.2 -5.6,24.5 2.5,10.2 6.5,26.2 13.5,41.5 13.3,28.8 37.1,54.3 81.3,30.8 5.3,-2.9 14,-2.7 19.1,0.8 5.7,3.9 7.7,10.6 -9.9,25 -0.1,0.1 -0.1,0.4 0,0.5 4.4,2.3 41.5,19.4 -1.3,31.6 z"
                     id="path3822" />
                  <path
                     style="opacity:0.15;fill:#aa9d96;enable-background:new"
                     inkscape:connector-curvature="0"
                     class="st27"
                     d="m 318,487.7 c -17,-6 -39.3,-27 -47,-34 -56,-51 -29,-82 -29,-82 0,30 61,102 83,95"
                     id="path3824" />
                </g>
                <path
                   style="fill:#ffffff"
                   inkscape:connector-curvature="0"
                   class="st25"
                   d="m 644.3,288.8 c -0.1,-0.1 -0.1,-0.4 0,-0.5 17.6,-14.4 15.6,-21.2 9.9,-25 -5.1,-3.5 -13.8,-3.8 -19.1,-0.8 -44,23.4 -72.1,-4.7 -81.2,-30.6 l -15,-44.1 3.6,-17.4 v 0 c 0.1,-0.4 3.3,-4.8 3.3,-4.8 l 0.1,-0.1 C 577.5,133 554.8,80.9 540.1,55 h 0.1 l 32.6,-11.2 c 1.1,-0.4 1.3,-1.9 0.4,-2.5 C 562.6,33.5 515,3.1 461.1,15.3 421.6,21.5 390,49.6 390,49.6 L 339.8,88 c -1.1,0.8 -0.6,2.7 0.7,2.8 l 44,4.6 0.3,-0.2 c -12.3,64.8 7,78.1 12.3,90.8 l 1.2,6 c 0,1 -0.1,2 -0.4,3 -2.7,11.4 -13.8,27.5 -22.1,38.6 -5.4,7.1 -10.4,14.8 -15.2,22.5 -24.7,39.1 -73.9,26 -86.1,22 -2.5,-0.8 -5.4,0.4 -6.4,2.8 -3.4,8.5 12.6,22.6 12.6,22.6 -46.4,14.9 2.5,31 2.5,31 -6,19.1 1.9,21.9 9.7,20.8 5.6,-0.7 10.6,-3.3 14.8,-7.1 27.3,-25.4 43.5,-20.2 51.6,-13.5 4.1,3.4 5.3,9.2 3,14 -27.7,56.2 -52.2,192.5 -56.6,203.6 -4.5,11.6 -50.9,32.3 -56.4,47 -5.4,14.8 5.6,16.7 5.6,16.7 -15.5,21.3 6.4,25.9 6.4,25.9 51.9,1 132.4,-59.1 169,-88.9 20.5,2.7 16.4,50.1 23.5,73.3 7.1,23.2 44.5,13.5 44.5,13.5 0,0 1.2,-10.3 17.9,-4.5 16.7,5.8 18.4,-8.3 18.4,-8.3 -10.2,-14 -14.8,-23.7 -16.8,-29.9 -1.7,-5 -0.4,-10.4 3.3,-14.1 92.5,-96.5 60.3,-213.7 43.1,-257.9 l 1.1,-0.5 0.5,4.5 c 15.8,-15.2 31.6,-2.9 38.2,3.6 3.9,3.7 8.1,7.1 12.8,9.7 35.4,19.2 26.4,-22.3 26.4,-22.3 42.7,-12.2 5.5,-29.4 1.1,-31.3 z"
                   id="path3828" />
                <g
                   id="g3838">
                  <path
                     style="opacity:0.15;fill:#aa9d96;enable-background:new"
                     inkscape:connector-curvature="0"
                     class="st27"
                     d="M 366.8,82 417,43.6 c 0,0 15,-13.4 37.4,-23.7 C 416.5,27.3 387,53.6 387,53.6 l -46,35.2 c -1.1,0.8 1.7,1.9 3,2 l 42,4 -1,1 c -12.3,64.8 6.8,77.4 12,90 l 1,9 c 0,1 -1.8,3.9 -2,5 -2.7,11.4 -14.8,26.8 -23.2,37.9 -5.4,7.1 -10.4,14.8 -15.2,22.5 -4.7,7.4 -15.6,14.5 -21.6,18.6 16.5,-1.4 38.6,-10.3 51.6,-28.6 12.4,-17.4 28.9,-55.2 29.4,-57.7 0,0 -43.6,-40.3 -32,-101.7 l 1,3"
                     id="path3830" />
                  <path
                     style="opacity:0.15;fill:#aa9d96;enable-background:new"
                     inkscape:connector-curvature="0"
                     class="st27"
                     d="m 639.7,260.8 c 0.8,-0.1 1.6,-0.2 2.5,-0.3 -0.9,0 -1.7,0.1 -2.5,0.3 z"
                     id="path3832" />
                  <path
                     style="opacity:0.15;fill:#aa9d96;enable-background:new"
                     inkscape:connector-curvature="0"
                     class="st27"
                     d="m 291.3,631.9 c 0,0 -14.8,-3.1 -11.5,-16 1.3,-4.9 1,-10.1 -1.1,-14.8 -1.2,-2.5 -1.4,-6.2 0.6,-11.8 5.4,-14.8 51.9,-35.4 56.4,-47 4.4,-11.1 28.9,-147.4 56.6,-203.6 2.3,-4.8 1.1,-10.6 -3,-14 -7,-5.8 -20.1,-10.4 -41.2,4.9 4.7,0.8 8.4,2.9 11.2,5.1 4.1,3.4 5.3,9.2 3,14 -27.7,56.2 -52.2,192.5 -56.6,203.6 -4.5,11.6 -50.9,32.3 -56.4,47 -5.4,14.8 5.6,16.7 5.6,16.7 -15.5,21.3 6.4,25.9 6.4,25.9 15,0.3 32.4,-4.5 50.5,-12.3 -7.2,1.6 -14.1,2.4 -20.5,2.3 z"
                     id="path3834" />
                  <path
                     style="opacity:0.15;fill:#aa9d96;enable-background:new"
                     inkscape:connector-curvature="0"
                     class="st27"
                     d="m 528.3,629.8 c 0,0 -37.4,9.7 -44.5,-13.5 -7.1,-23.2 -3,-70.6 -23.5,-73.3 -5.8,4.7 -12.8,10.3 -20.6,16.2 9.8,14.1 8.3,48.4 14.1,67.1 7.1,23.2 44.5,13.5 44.5,13.5 0,0 1.2,-10.3 17.9,-4.5 16.7,5.8 18.4,-8.3 18.4,-8.3 -0.6,-0.9 -1.3,-1.7 -1.9,-2.6 -3.9,1.7 -4.4,5.4 -4.4,5.4 z"
                     id="path3836" />
                </g>
                <g
                   id="g3850">
                  <path
                     style="fill:none;stroke:#726a65;stroke-width:3;stroke-linecap:round;stroke-miterlimit:10"
                     inkscape:connector-curvature="0"
                     class="st26"
                     d="M 521.4,26.3 C 508.3,18.3 495,14.7 482.1,14 433.2,11.1 390,49.6 390,49.6 L 339.8,88 c -1.1,0.8 -0.6,2.7 0.7,2.8 l 44,4.6"
                     id="path3840" />
                  <path
                     style="fill:none;stroke:#726a65;stroke-width:3;stroke-linecap:round;stroke-miterlimit:10"
                     inkscape:connector-curvature="0"
                     class="st26"
                     d="m 530.5,39.3 c 0,0 58.8,81.5 15.5,126 -5.4,5.6 -7.6,17.3 -5.7,24.8 7.1,29.3 27.3,108.2 94.8,72.3 5.3,-2.9 14,-2.7 19.1,0.8 5.7,3.9 7.7,10.6 -9.9,25 -0.1,0.1 -0.1,0.4 0,0.5 4.5,1.9 41.6,19.1 -1.1,31.3 0,0 9.1,41.5 -26.4,22.3 -4.7,-2.5 -8.9,-5.9 -12.8,-9.7 -6.7,-6.5 -24.5,-21.5 -38.5,-4.5"
                     id="path3842" />
                  <path
                     style="fill:none;stroke:#726a65;stroke-width:3;stroke-linecap:round;stroke-miterlimit:10"
                     inkscape:connector-curvature="0"
                     class="st26"
                     d="m 556.2,307 c 0,0 81.4,154.4 -35.2,276 -3.6,3.7 -5,9.2 -3.3,14.1 1.9,5.6 5.8,14 14,25.9 2.9,4.1 1.7,10 -2.7,12.4 -2.7,1.5 -6.8,2 -12.8,-0.1 -10.1,-3.5 -14.6,-1.1 -16.5,1.3 -1.9,2.5 -4.9,4 -8,4.4 -11,1.6 -32.7,2.3 -38,-14.8 -7.1,-23.2 -3,-70.7 -23.6,-73.3"
                     id="path3844" />
                  <path
                     style="fill:none;stroke:#726a65;stroke-width:3;stroke-linecap:round;stroke-miterlimit:10"
                     inkscape:connector-curvature="0"
                     class="st26"
                     d="m 449.7,536.7 c 0,0 -115.4,102.9 -184.8,105.2 -3.7,0.1 -7.5,-0.9 -10.5,-3.1 -4.8,-3.4 -8.7,-10.2 0.5,-22.8 0,0 -11,-1.9 -5.6,-16.7 5.4,-14.8 51.9,-35.4 56.4,-47 4.4,-11.1 28.9,-147.4 56.6,-203.6 2.3,-4.8 1.1,-10.6 -3,-14 -8.1,-6.7 -24.3,-11.9 -51.6,13.5 -4.1,3.9 -9.2,6.4 -14.8,7.1 -7.7,1.1 -15.7,-1.7 -9.7,-20.8 0,0 -49,-16.1 -2.5,-31 0,0 -16,-14.1 -12.6,-22.6 1,-2.4 3.9,-3.6 6.4,-2.8 12.2,4 61.4,17.1 86.1,-22 4.8,-7.7 9.8,-15.4 15.2,-22.5 8.3,-11.1 19.5,-27.2 22.1,-38.6 4.5,-19 -30.6,-20.6 -11.2,-108.8"
                     id="path3846" />
                  <path
                     style="fill:none;stroke:#726a65;stroke-width:3;stroke-linecap:round;stroke-miterlimit:10"
                     inkscape:connector-curvature="0"
                     class="st26"
                     d="M 540.3,54.9 573,43.7 c 1.1,-0.4 1.3,-1.9 0.4,-2.5 C 562.8,33.3 515,2.9 460.9,15.3"
                     id="path3848" />
                </g>
                <g
                   id="g3894">
                  <path
                     style="opacity:0.15;fill:#aa9d96;enable-background:new"
                     inkscape:connector-curvature="0"
                     class="st27"
                     d="m 317.8,310.7 c 1.2,-1.4 1.9,-3.2 1.9,-5.1 0,-4.5 -3.7,-8.1 -8.4,-8.1 -4.6,0 -8.4,3.6 -8.4,8.1 0,2.9 1.6,5.4 3.9,6.9 -1.2,1.4 -1.9,3.2 -1.9,5.1 0,4.5 3.7,8.1 8.4,8.1 4.6,0 8.4,-3.6 8.4,-8.1 0,-2.9 -1.5,-5.4 -3.9,-6.9 z"
                     id="path3852" />
                  <path
                     style="opacity:0.15;fill:#aa9d96;enable-background:new"
                     inkscape:connector-curvature="0"
                     class="st27"
                     d="m 612.9,301.1 c 1.5,-1.1 2.6,-2.6 3.1,-4.5 1.1,-4.4 -1.6,-8.8 -6.1,-10 -4.5,-1.2 -9,1.4 -10.1,5.8 -0.7,2.8 0.2,5.6 2,7.6 -1.5,1.1 -2.6,2.6 -3.1,4.5 -1.1,4.4 1.6,8.8 6.1,10 4.5,1.2 9,-1.4 10.1,-5.8 0.7,-2.8 -0.1,-5.6 -2,-7.6 z"
                     id="path3854" />
                  <ellipse
                     style="opacity:0.15;fill:#aa9d96;enable-background:new"
                     class="st27"
                     cx="296.29999"
                     cy="339.60001"
                     rx="8.3999996"
                     ry="8.1000004"
                     id="ellipse3856" />
                  <ellipse
                     style="opacity:0.15;fill:#aa9d96;enable-background:new"
                     class="st27"
                     cx="288.29999"
                     cy="294.60001"
                     rx="8.3999996"
                     ry="8.1000004"
                     id="ellipse3858" />
                  <ellipse
                     style="opacity:0.15;fill:#aa9d96;enable-background:new"
                     class="st27"
                     cx="439.29999"
                     cy="103.7"
                     rx="8.3999996"
                     ry="4"
                     id="ellipse3860" />
                  <ellipse
                     style="opacity:0.15;fill:#aa9d96;enable-background:new"
                     transform="matrix(0.9457,-0.3251,0.3251,0.9457,4.0311,169.5216)"
                     class="st27"
                     cx="509.29999"
                     cy="72.699997"
                     rx="8.3999996"
                     ry="4"
                     id="ellipse3862" />
                  <path
                     style="opacity:0.15;fill:#aa9d96;enable-background:new"
                     inkscape:connector-curvature="0"
                     class="st27"
                     d="m 573,41.7 c 0.7,2.1 -22.6,10.5 -27,12 -4.4,1.5 -9.3,-1.9 -10,-4 -0.7,-2.1 13.5,-6.1 18,-7 5,-1 18.2,-3.1 19,-1 z"
                     id="path3864" />
                  <ellipse
                     style="opacity:0.15;fill:#aa9d96;enable-background:new"
                     class="st27"
                     cx="637.29999"
                     cy="275.60001"
                     rx="8.3999996"
                     ry="8.1000004"
                     id="ellipse3866" />
                  <ellipse
                     style="opacity:0.15;fill:#aa9d96;enable-background:new"
                     class="st27"
                     cx="642.29999"
                     cy="305.60001"
                     rx="8.3999996"
                     ry="8.1000004"
                     id="ellipse3868" />
                  <ellipse
                     style="opacity:0.15;fill:#aa9d96;enable-background:new"
                     class="st27"
                     cx="629.29999"
                     cy="330.60001"
                     rx="8.3999996"
                     ry="8.1000004"
                     id="ellipse3870" />
                  <ellipse
                     style="opacity:0.15;fill:#aa9d96;enable-background:new"
                     class="st27"
                     cx="280.29999"
                     cy="317.60001"
                     rx="8.3999996"
                     ry="8.1000004"
                     id="ellipse3872" />
                  <circle
                     style="fill:#33261b;stroke:#35281b;stroke-width:3;stroke-linecap:round;stroke-linejoin:round;stroke-miterlimit:10"
                     class="st28"
                     cx="445.29999"
                     cy="54.5"
                     r="8.1999998"
                     id="circle3874" />
                  <circle
                     style="fill:#33261b;stroke:#35281b;stroke-width:3;stroke-linecap:round;stroke-linejoin:round;stroke-miterlimit:10"
                     class="st28"
                     cx="491.20001"
                     cy="39.299999"
                     r="8.1000004"
                     id="circle3876" />
                  <path
                     style="fill:none;stroke:#726a65;stroke-width:3;stroke-linecap:round;stroke-miterlimit:10"
                     inkscape:connector-curvature="0"
                     class="st26"
                     d="m 427.3,71.7 c -2.2,15.6 4.6,27.3 11.6,28.3 7,1 16.2,-8.9 18.4,-24.7 2.2,-15.6 -3.9,-28.7 -10.8,-29.7 -7,-1 -16.9,10.5 -19.2,26.1 z"
                     id="path3878" />
                  <path
                     style="fill:none;stroke:#726a65;stroke-width:3;stroke-linecap:round;stroke-miterlimit:10"
                     inkscape:connector-curvature="0"
                     class="st26"
                     d="m 512.6,43.9 c 4,10.8 1.1,22.6 -6.7,25.4 -7.7,2.8 -19.2,-3.9 -23.1,-14.6 C 478.9,44 482,32.8 489.7,30 c 7.8,-2.8 19,3 22.9,13.9 z"
                     id="path3880" />
                  <path
                     style="fill:none;stroke:#726a65;stroke-width:3;stroke-linecap:round;stroke-miterlimit:10"
                     inkscape:connector-curvature="0"
                     class="st26"
                     d="m 485.7,90.1 c 0,0 4.6,18.9 3.1,26.6"
                     id="path3882" />
                  <ellipse
                     style="opacity:0.25;fill:#c779a9;enable-background:new"
                     transform="matrix(0.3368,-0.9416,0.9416,0.3368,177.4628,552.8647)"
                     class="st29"
                     cx="481.20001"
                     cy="150.5"
                     rx="34.700001"
                     ry="18.4"
                     id="ellipse3884" />
                  <ellipse
                     style="fill:none;stroke:#726a65;stroke-width:3;stroke-linecap:round;stroke-miterlimit:10"
                     transform="matrix(0.3368,-0.9416,0.9416,0.3368,177.4628,552.8647)"
                     class="st26"
                     cx="481.20001"
                     cy="150.5"
                     rx="34.700001"
                     ry="18.4"
                     id="ellipse3886" />
                  <path
                     style="fill:none;stroke:#726a65;stroke-width:3;stroke-linecap:round;stroke-miterlimit:10"
                     inkscape:connector-curvature="0"
                     class="st26"
                     d="m 423.2,41.6 c 0,0 5,-15.5 26.4,-19"
                     id="path3888" />
                  <path
                     style="fill:none;stroke:#726a65;stroke-width:3;stroke-linecap:round;stroke-miterlimit:10"
                     inkscape:connector-curvature="0"
                     class="st26"
                     d="m 475.3,18.1 c 0,0 15.8,-3.4 31.7,7.3"
                     id="path3890" />
                  <path
                     style="fill:#101537;stroke:#101537;stroke-width:3;stroke-linecap:round;stroke-linejoin:round;stroke-miterlimit:10"
                     inkscape:connector-curvature="0"
                     class="st30"
                     d="m 475.3,89.1 c 0,0 4.4,-11.1 20.8,-7 l -8,13.2 z"
                     id="path3892" />
                </g>
              </g>
            </g>
          </g>
        </g>
      </g>
    </g>
  </g>
  <style
     type="text/css"
     id="style3680"> .st0{display:none;opacity:0.78;fill:#C8FFE8;enable-background:new ;} .st1{display:none;opacity:0.6;} .st2{display:inline;} .st3{display:none;} .st4{display:inline;fill:#6D6E71;} .st5{display:inline;fill:#AAACAF;} .st6{display:inline;opacity:0.6;fill:#6D6E71;enable-background:new ;} .st7{opacity:0.4;} .st8{fill:none;stroke:#6D6E71;stroke-width:3;stroke-linecap:round;stroke-miterlimit:10;} .st9{fill:#6D6E71;} .st10{display:inline;opacity:0.6;fill:none;stroke:#6D6E71;stroke-width:3;stroke-linecap:round;stroke-miterlimit:10;enable-background:new ;} .st11{display:inline;fill:#B6B7BA;} .st12{fill:none;stroke:#99BB6E;stroke-width:2;stroke-linecap:round;stroke-miterlimit:10;stroke-dasharray:5;} .st13{fill:#E5DCFF;} .st14{fill:#ADC3D8;} .st15{fill:none;stroke:#B57FA5;stroke-width:2;stroke-linecap:round;stroke-miterlimit:10;stroke-dasharray:5;} .st16{fill:none;stroke:#B57FA5;stroke-width:3;stroke-linecap:round;stroke-miterlimit:10;} .st17{fill:none;stroke:#9F9ECD;stroke-width:3;stroke-linecap:round;stroke-linejoin:round;stroke-miterlimit:10;} .st18{display:none;opacity:0.9;fill:#6D6E71;enable-background:new ;} .st19{fill:none;stroke:#101537;stroke-width:3;stroke-linecap:round;stroke-miterlimit:10;} .st20{fill:none;stroke:#726A65;stroke-width:3;stroke-miterlimit:10;} .st21{fill:#E13C83;} .st22{fill:#FFFFFF;stroke:#726A65;stroke-width:3;stroke-miterlimit:10;} .st23{opacity:0.6;fill:#6D6E71;enable-background:new ;} .st24{fill:#E13C83;stroke:#E13C83;stroke-width:3;stroke-miterlimit:10;} .st25{fill:#FFFFFF;} .st26{fill:none;stroke:#726A65;stroke-width:3;stroke-linecap:round;stroke-miterlimit:10;} .st27{opacity:0.15;fill:#AA9D96;enable-background:new ;} .st28{fill:#33261B;stroke:#35281B;stroke-width:3;stroke-linecap:round;stroke-linejoin:round;stroke-miterlimit:10;} .st29{opacity:0.25;fill:#C779A9;enable-background:new ;} .st30{fill:#101537;stroke:#101537;stroke-width:3;stroke-linecap:round;stroke-linejoin:round;stroke-miterlimit:10;} .st31{display:inline;fill:#FFFFFF;} .st32{display:inline;opacity:0.15;fill:#AA9D96;enable-background:new ;} .st33{display:inline;fill:none;stroke:#726A65;stroke-width:3;stroke-miterlimit:10;} .st34{fill:#41B619;} .st35{fill:#3B405F;} .st36{fill-rule:evenodd;clip-rule:evenodd;fill:#101537;} </style>
</svg>
