<svg xmlns:dc="http://purl.org/dc/elements/1.1/" xmlns:cc="http://creativecommons.org/ns#" xmlns:rdf="http://www.w3.org/1999/02/22-rdf-syntax-ns#" xmlns:svg="http://www.w3.org/2000/svg" xmlns="http://www.w3.org/2000/svg" xmlns:sodipodi="http://sodipodi.sourceforge.net/DTD/sodipodi-0.dtd" xmlns:inkscape="http://www.inkscape.org/namespaces/inkscape" xml:space="preserve" width="57" height="63" version="1.1" viewBox="0 0 175 191.94527" inkscape:version="0.91pre4 r13712" style="clip-rule:evenodd;fill-rule:evenodd;image-rendering:optimizeQuality;shape-rendering:geometricPrecision;text-rendering:geometricPrecision"><metadata><rdf:RDF><cc:Work rdf:about=""><dc:format>image/svg+xml</dc:format><dc:type rdf:resource="http://purl.org/dc/dcmitype/StillImage"/><dc:title/></cc:Work></rdf:RDF></metadata><defs/><g transform="translate(-1426,-982)"><metadata/><g><path d="m 1520 1172 c 13 -7 24 -14 37 -21 12 -6 24 -13 36 -20 5 -3 8 -8 8 -15 0 -13 0 -26 0 -39 0 -13 0 -26 0 -39 0 -6 -2 -11 -8 -14 -12 -7 -24 -14 -36 -20 -13 -8 -24 -14 -37 -21 -2 -2 -11 -2 -13 0 -13 7 -24 13 -37 21 -12 6 -24 13 -36 20 -6 3 -8 8 -8 14 0 13 0 26 0 39 0 13 0 26 0 39 0 8 2 12 8 15 12 7 24 14 36 20 13 7 24 14 37 21 3 2 10 2 13 0 z" inkscape:connector-curvature="0" style="fill:#f2f2f2"/><path d="m 1484 1049 c 12 -5 25 -3 35 4 -1 2 -4 6 -5 8 -9 -5 -22 -8 -29 2 -7 11 -5 31 10 34 7 2 13 -2 19 -5 2 2 4 6 5 8 -9 8 -24 11 -35 5 -21 -11 -21 -46 0 -56 z m 43 -2 c 4 0 8 0 12 0 0 17 0 33 0 50 8 0 16 0 24 0 0 2 0 8 0 10 -12 0 -24 0 -37 0 0 -20 0 -40 1 -60 z" inkscape:connector-curvature="0" style="fill:#325164"/></g></g></svg>