<?xml version="1.0" encoding="utf-8"?>
<!-- Generator: Adobe Illustrator 22.0.1, SVG Export Plug-In . SVG Version: 6.00 Build 0)  -->
<svg version="1.1" xmlns="http://www.w3.org/2000/svg" xmlns:xlink="http://www.w3.org/1999/xlink" x="0px" y="0px"
	 viewBox="0 0 410 1022" style="enable-background:new 0 0 410 1022;" xml:space="preserve">
<style type="text/css">
	.st0{fill:#000000;stroke:#000000;stroke-width:3;stroke-miterlimit:10;}
</style>
<g id="Контур">
	<g>
		<path class="st0" d="M288.7,325.2c-51.8-5.9-103.9-9.3-156.2-4.7c-25.7,2.3-50.1,9.6-73.5,21.4c-14.9,7.5-30.4,13.9-47.1,15.4"/>
		<path class="st0" d="M11.9,357.3c-32.1,2.8-60.8-5.2-82.1-32.7c-13.1-16.8-29.1-28.1-48.1-35.3c-2-0.8-3.9-2.3-5.5-3.8
			c-11.4-10.7-22.6-21.7-34-32.3c-2.6-2.4-5.9-4.1-9.2-5.7c-4-1.9-8.1,1-7.7,5.8c0.6,6.2,1.9,12.3,3.2,18.3c1.8,8.1,3.8,16,5.5,23.1
			c-7.3,4.9-14.6,9-21,14.3c-11.1,9.2-18.6,21.3-21.6,36.3c-1.4,7.2-5.1,12.8-9.9,17.8c-2.4,2.5-4.6,5.3-6.9,8c0,2.2,0,4.5,0,6.7
			c2.2,3.5,4.9,6.8,6.4,10.7c3.5,9.4,9.1,17,15.5,24.3c6,6.8,12.9,8.6,20.9,6.1c3.4-1.1,6.7-2.6,10-3.9c2.6-0.9,5.3-2.2,8-2.4
			c17.4-1.4,30.9,6.5,41,21.2c11.8,17.2,17,36.7,16.5,57.9c-0.1,5.5,1.3,9.7,4.6,13.9c8.3,10.6,16.9,21,24,32.5
			c8.5,13.8,15.9,28.4,23,43.1c2.9,5.9,5,13,5,19.6c0,23.5-2.2,46.8-6.5,69.9c-3.8,20.4-9,40.3-19.1,58.3
			c-4.9,8.7-11.6,12.9-21.3,12c-2.2-0.2-5.5,1.1-6.9,2.9c-5,6.5-7,14.3-6.9,22.7c0,3.5,1.7,5.6,5,6.2c2.8,0.5,5.5,1.1,8.2,1.7
			c10.1,0,20.2,0,30.3,0c12.3-7.5,20-19.7,27.5-32c17-28,30.1-58.3,42.7-88.7c8-19.3,15.6-38.8,23.4-58.2c0.3-0.7,0.6-1.4,1.4-3
			c2,11.1,3.6,21.3,5.8,31.4c2.9,13.3,6.1,26.6,9.7,39.8c1,3.8,3.7,7.2,6.1,10.3c12.3,16.4,24.9,32.5,37.3,48.9
			c3.1,4,5.8,8.4,8.6,12.6c1.8,2.8,4.2,2.6,6.7,1.6c13.7-5.3,20.6-27.6,12.2-40.3c-6.8-10.3-15.3-18.9-25.1-26.2
			c-3.7-2.7-6.6-6.9-9.4-10.7c-0.9-1.2-0.6-3.6-0.4-5.4c3.3-27.4,6.7-54.8,6.5-82.5c-0.1-5.8-1.1-11.7-2.2-17.5
			c-0.9-4.7,1.9-6.1,4.8-7.2c4.9-1.9,9.9-3.8,14.9-4.6c23.4-3.5,46.8-6.9,70.2-9.7c13.6-1.6,27.3-2,40.9-3.1
			c3.1-0.3,4.9,0.6,6.3,3.7c12.2,26.1,24.6,52,36.6,78.2c3.2,7,5.6,14.6,7.8,22.1c2.3,7.8-1.6,14.2-5.7,19.7
			c-16.1,21.4-36.1,38.1-57,53.7c-3.8,2.8-6.1,13.2-4.5,18.5c1.5,4.8,5.3,7.3,11.8,7.5c6.5,0.2,12.6-0.8,18.1-5
			c9.1-7.1,18.5-13.9,27.7-20.9c23.9-18,44.4-39.8,63.1-63.7c0.7-0.8,1.4-1.6,2.3-2.7c1.7,1.4,3.4,2.7,5,4.1
			c8.5,7.9,17.1,15.7,25.5,23.8c5.4,5.2,7.6,11.9,7.2,19.7c-0.7,13.7-3.2,26.9-10.1,38.7c-1.7,2.9-3.7,3.7-6.9,3.8
			c-5.1,0.2-10.5,0.6-15.2,2.4c-8.6,3.3-12.5,16.3-7.8,24.6c0.8,1.4,2.7,2.4,4.3,3.1c14.5,6.1,29.2,4.5,43.8,0.8
			c1-0.3,2.2-1.6,2.6-2.8c11.1-33,22.1-66,33.1-99c0.1-0.3,0.1-0.6,0.2-0.9c2.3-6.7,1.3-12.4-2.2-18.8
			c-15.8-29.4-24.2-61.2-23.6-95.4c0.1-2.9,1-5.9,2.3-8.6c8.6-18.1,16.7-36.3,21.7-56c3.1-12.1,4.9-24.4,2.6-36.9
			c-0.7-4,0.6-5.5,4.3-6.5c35.8-9.2,71.7-17.8,107.3-28c27.7-7.9,54.5-19,80.1-33.1c12.3-6.8,23.5-14.8,33.3-25.2
			c17-18,13.1-47.1-0.9-61.7c-10.4-10.8-22.7-17.8-36-23.1c-28.5-11.4-57.8-17.1-88.2-15.3c-5.3,0.3-10.6,1.4-15.8,2.8
			c-2.9,0.8-5.8,2.7-8.1,4.8c-4.6,4.2-4.2,10.1,1.2,12.9c4.5,2.2,9.5,3.4,14.5,4.1c20.9,3.1,41.8,5.4,62.7,8.9
			c10.9,1.8,21.3,6,30.3,13.3c8.5,6.9,14.9,15.5,12.4,27.9c-2,10-7.7,17.3-16.4,21.7c-15.1,7.7-31.1,11.5-47.4,14.4
			c-41.4,7.5-83.3,8.9-125.2,9.8c-13.1,0.3-23.9-2.9-35-10.9c-26.5-19.1-56.1-31.6-87.7-35.2"/>
	</g>
</g>
<g id="Слой_1">
</g>
</svg>
