<svg id="Слой_1" data-name="Слой 1" xmlns="http://www.w3.org/2000/svg" viewBox="0 0 260 180">
  <defs>
    <style>
      .cls-1 {
        fill: red;
      }

      .cls-2 {
        fill: #fff;
      }
    </style>
  </defs>
  <title>Life_logo</title>
  <g id="Слой_2" data-name="Слой 2">
    <rect class="cls-1" width="260" height="180"/>
  </g>
  <g id="Life_Logo" data-name="Life Logo">
    <polygon id="Буква_L" data-name="Буква L" class="cls-2" points="35.5 111 18.5 111 22.5 29 39.5 29 35.5 111"/>
    <g id="Буква_i" data-name="Буква i">
      <polygon class="cls-2" points="70.68 111 52.5 111 54.32 50 72.5 50 70.68 111"/>
      <rect class="cls-2" x="53.41" y="28" width="18.18" height="12"/>
    </g>
    <path id="Буква_F" data-name="Буква F" class="cls-2" d="M124.24,38.33v-13h-18c-7.93.27-13.61,6-16,13l-.3,11h-8.7l-1,13h9.34l-1.34,49h16l1.34-49h12.66l2-13h-14.3l.3-11Z" transform="translate(-0.24 0.17)"/>
    <g>
      <rect class="cls-2" x="192" y="51.5" width="21" height="16"/>
      <rect class="cls-2" x="192" y="95.5" width="21" height="16"/>
      <path class="cls-2" d="M228.76,23.33h-9.32l0,.7c8.67,13.69,9.84,36.73,9.84,55.3,0,16.57-4.88,40.23-15.73,54.37l0,.63h10.84c12.39-13.67,19.92-34.36,19.92-52C244.24,60.85,241.68,35.38,228.76,23.33Z" transform="translate(-0.24 0.17)"/>
    </g>
    <path class="cls-2" d="M133.22,84.16c.26,15.3,10,18.6,21.35,18.6,8.1,0,13-.42,17.22-2.22l1.93,10.1c-4,1.8-10.8,3.86-20.7,3.86-19.15,0-35.6-12.6-35.6-31.37s16.06-33.56,34.19-33.56c20.31,0,29.71,17.87,29.71,29.32a42.72,42.72,0,0,1-.38,5.27Zm33.17-8.1c.13-7.2-2.95-18.39-15.68-18.39-11.44,0-16.46,10.54-17.36,18.39Z" transform="translate(-0.24 0.17)"/>
  </g>
</svg>
