<?xml version="1.0" encoding="utf-8"?>
<!-- Generator: Adobe Illustrator 22.0.1, SVG Export Plug-In . SVG Version: 6.00 Build 0)  -->
<svg version="1.1" xmlns="http://www.w3.org/2000/svg" xmlns:xlink="http://www.w3.org/1999/xlink" x="0px" y="0px"
	 viewBox="0 0 1000 2000" style="enable-background:new 0 0 1000 2000;" xml:space="preserve">
<style type="text/css">
	.st0{opacity:0.72;}
	.st1{fill:none;stroke:#000000;stroke-width:3;stroke-miterlimit:10;}
	.st2{opacity:0.78;fill:none;stroke:#000000;stroke-miterlimit:10;}
	.st3{opacity:0.78;fill:none;stroke:#000000;stroke-width:3;stroke-miterlimit:10;}
</style>
<g id="BackGraund">
</g>
<g id="Vertical_100_px__x2A__3px_bleck">
	<g class="st0">
		<line class="st1" x1="0" y1="0" x2="0" y2="2000"/>
	</g>
	<g class="st0">
		<line class="st1" x1="100" y1="0" x2="100" y2="2000"/>
	</g>
	<g class="st0">
		<line class="st1" x1="900" y1="0" x2="900" y2="2000"/>
	</g>
	<g class="st0">
		<line class="st1" x1="800" y1="0" x2="800" y2="2000"/>
	</g>
	<g class="st0">
		<line class="st1" x1="1000" y1="0" x2="1000" y2="2000"/>
	</g>
	<g class="st0">
		<line class="st1" x1="700" y1="0" x2="700" y2="2000"/>
	</g>
	<g class="st0">
		<line class="st1" x1="200" y1="0" x2="200" y2="2000"/>
	</g>
	<g class="st0">
		<line class="st1" x1="600" y1="0" x2="600" y2="2000"/>
	</g>
	<g class="st0">
		<line class="st1" x1="400" y1="0" x2="400" y2="2000"/>
	</g>
	<g class="st0">
		<line class="st1" x1="500" y1="0" x2="500" y2="2000"/>
	</g>
	<g class="st0">
		<line class="st1" x1="300" y1="0" x2="300" y2="2000"/>
	</g>
</g>
<g id="Vertical_50_px__x2A__1px_red">
	<line id="_x35_1" class="st2" x1="0" y1="0" x2="0" y2="2000"/>
	<line id="_x35_0" class="st2" x1="20" y1="0" x2="20" y2="2000"/>
	<line id="_x34_9" class="st2" x1="60" y1="0" x2="60" y2="2000"/>
	<line id="_x34_8" class="st2" x1="80" y1="0" x2="80" y2="2000"/>
	<line id="_x34_7" class="st2" x1="40" y1="0" x2="40" y2="2000"/>
	<line id="_x34_6" class="st2" x1="100" y1="0" x2="100" y2="2000"/>
	<line id="_x34_5" class="st2" x1="140" y1="0" x2="140" y2="2000"/>
	<line id="_x34_4" class="st2" x1="160" y1="0" x2="160" y2="2000"/>
	<line id="_x34_3" class="st2" x1="120" y1="0" x2="120" y2="2000"/>
	<line id="_x34_2" class="st2" x1="240" y1="0" x2="240" y2="2000"/>
	<line id="_x34_1" class="st2" x1="220" y1="0" x2="220" y2="2000"/>
	<line id="_x34_0" class="st2" x1="180" y1="0" x2="180" y2="2000"/>
	<line id="_x33_9" class="st2" x1="200" y1="0" x2="200" y2="2000"/>
	<line id="_x33_8" class="st2" x1="580" y1="0" x2="580" y2="2000"/>
	<line id="_x33_7" class="st2" x1="920" y1="0" x2="920" y2="2000"/>
	<line id="_x33_6" class="st2" x1="960" y1="0" x2="960" y2="2000"/>
	<line id="_x33_5" class="st2" x1="980" y1="0" x2="980" y2="2000"/>
	<line id="_x33_4" class="st2" x1="1000" y1="0" x2="1000" y2="2000"/>
	<line id="_x33_3" class="st2" x1="940" y1="0" x2="940" y2="2000"/>
	<line id="_x33_2" class="st2" x1="260" y1="0" x2="260" y2="2000"/>
	<line id="_x33_1" class="st2" x1="300" y1="0" x2="300" y2="2000"/>
	<line id="_x33_0" class="st2" x1="320" y1="0" x2="320" y2="2000"/>
	<line id="_x32_9" class="st2" x1="340" y1="0" x2="340" y2="2000"/>
	<line id="_x32_8" class="st2" x1="280" y1="0" x2="280" y2="2000"/>
	<line id="_x32_7" class="st2" x1="380" y1="0" x2="380" y2="2000"/>
	<line id="_x32_6" class="st2" x1="400" y1="0" x2="400" y2="2000"/>
	<line id="_x32_5" class="st2" x1="420" y1="0" x2="420" y2="2000"/>
	<line id="_x32_4" class="st2" x1="360" y1="0" x2="360" y2="2000"/>
	<line id="_x32_3" class="st2" x1="440" y1="0" x2="440" y2="2000"/>
	<line id="_x32_2" class="st2" x1="480" y1="0" x2="480" y2="2000"/>
	<line id="_x32_1" class="st2" x1="500" y1="0" x2="500" y2="2000"/>
	<line id="_x32_0" class="st2" x1="460" y1="0" x2="460" y2="2000"/>
	<line id="_x31_9" class="st2" x1="520" y1="0" x2="520" y2="2000"/>
	<line id="_x31_8" class="st2" x1="560" y1="0" x2="560" y2="2000"/>
	<line id="_x31_7" class="st2" x1="600" y1="0" x2="600" y2="2000"/>
	<line id="_x31_6" class="st2" x1="540" y1="0" x2="540" y2="2000"/>
	<line id="_x31_5" class="st2" x1="820" y1="0" x2="820" y2="2000"/>
	<line id="_x31_4" class="st2" x1="860" y1="0" x2="860" y2="2000"/>
	<line id="_x31_3" class="st2" x1="880" y1="0" x2="880" y2="2000"/>
	<line id="_x31_2" class="st2" x1="900" y1="0" x2="900" y2="2000"/>
	<line id="_x31_1" class="st2" x1="840" y1="0" x2="840" y2="2000"/>
	<line id="_x31_0" class="st2" x1="720" y1="0" x2="720" y2="2000"/>
	<line id="_x39_" class="st2" x1="760" y1="0" x2="760" y2="2000"/>
	<line id="_x38_" class="st2" x1="780" y1="0" x2="780" y2="2000"/>
	<line id="_x37_" class="st2" x1="800" y1="0" x2="800" y2="2000"/>
	<line id="_x36_" class="st2" x1="740" y1="0" x2="740" y2="2000"/>
	<line id="_x35_" class="st2" x1="620" y1="0" x2="620" y2="2000"/>
	<line id="_x34_" class="st2" x1="660" y1="0" x2="660" y2="2000"/>
	<line id="_x33_" class="st2" x1="680" y1="0" x2="680" y2="2000"/>
	<line id="_x32_" class="st2" x1="700" y1="0" x2="700" y2="2000"/>
	<line id="_x31_" class="st2" x1="640" y1="0" x2="640" y2="2000"/>
</g>
<g id="Horizont_100_px__x2A__3px_bleck">
	<line id="_x32_1_1_" class="st3" x1="0" y1="200" x2="1000" y2="200"/>
	<line id="_x32_0_1_" class="st3" x1="0" y1="300" x2="1000" y2="300"/>
	<line id="_x31_9_1_" class="st3" x1="0" y1="400" x2="1000" y2="400"/>
	<line id="_x31_8_1_" class="st3" x1="0" y1="0" x2="1000" y2="0"/>
	<line id="_x31_7_1_" class="st3" x1="0" y1="500" x2="1000" y2="500"/>
	<line id="_x31_6_1_" class="st3" x1="0" y1="600" x2="1000" y2="600"/>
	<line id="_x31_5_1_" class="st3" x1="0" y1="700" x2="1000" y2="700"/>
	<line id="_x31_4_1_" class="st3" x1="0" y1="800" x2="1000" y2="800"/>
	<line id="_x31_3_1_" class="st3" x1="0" y1="900" x2="1000" y2="900"/>
	<line id="_x31_2_1_" class="st3" x1="0" y1="1000" x2="1000" y2="1000"/>
	<line id="_x31_1_1_" class="st3" x1="0" y1="1100" x2="1000" y2="1100"/>
	<line id="_x31_0_1_" class="st3" x1="0" y1="1200" x2="1000" y2="1200"/>
	<line id="_x39__1_" class="st3" x1="0" y1="1300" x2="1000" y2="1300"/>
	<line id="_x38__1_" class="st3" x1="0" y1="1400" x2="1000" y2="1400"/>
	<line id="_x37__1_" class="st3" x1="0" y1="1500" x2="1000" y2="1500"/>
	<line id="_x36__1_" class="st3" x1="0" y1="1600" x2="1000" y2="1600"/>
	<line id="_x35__1_" class="st3" x1="0" y1="1700" x2="1000" y2="1700"/>
	<line id="_x34__1_" class="st3" x1="0" y1="1800" x2="1000" y2="1800"/>
	<line id="_x33__1_" class="st3" x1="0" y1="1900" x2="1000" y2="1900"/>
	<line id="_x32__1_" class="st3" x1="0" y1="2000" x2="1000" y2="2000"/>
	<line id="_x31__1_" class="st3" x1="0" y1="100" x2="1000" y2="100"/>
</g>
<g id="Horizontal_50_px__x2A__1px_red">
	<line id="_x39_5" class="st2" x1="0" y1="520" x2="1000" y2="520"/>
	<line id="_x39_4" class="st2" x1="0" y1="600" x2="1000" y2="600"/>
	<line id="_x39_3" class="st2" x1="0" y1="700" x2="1000" y2="700"/>
	<line id="_x39_2" class="st2" x1="0" y1="240" x2="1000" y2="240"/>
	<line id="_x39_1" class="st2" x1="0" y1="400" x2="1000" y2="400"/>
	<line id="_x39_0" class="st2" x1="0" y1="640" x2="1000" y2="640"/>
	<line id="_x38_9" class="st2" x1="0" y1="280" x2="1000" y2="280"/>
	<line id="_x38_8" class="st2" x1="0" y1="440" x2="1000" y2="440"/>
	<line id="_x38_7" class="st2" x1="0" y1="760" x2="1000" y2="760"/>
	<line id="_x38_6" class="st2" x1="0" y1="320" x2="1000" y2="320"/>
	<line id="_x38_5" class="st2" x1="0" y1="480" x2="1000" y2="480"/>
	<line id="_x38_4" class="st2" x1="0" y1="360" x2="1000" y2="360"/>
	<line id="_x38_3" class="st2" x1="0" y1="560" x2="1000" y2="560"/>
	<line id="_x38_2" class="st2" x1="0" y1="140" x2="1000" y2="140"/>
	<line id="_x38_1" class="st2" x1="0" y1="380" x2="1000" y2="380"/>
	<line id="_x38_0" class="st2" x1="0" y1="720" x2="1000" y2="720"/>
	<line id="_x37_9" class="st2" x1="0" y1="1000" x2="1000" y2="1000"/>
	<line id="_x37_8" class="st2" x1="0" y1="1160" x2="1000" y2="1160"/>
	<line id="_x37_7" class="st2" x1="0" y1="1320" x2="1000" y2="1320"/>
	<line id="_x37_6" class="st2" x1="0" y1="1480" x2="1000" y2="1480"/>
	<line id="_x37_5" class="st2" x1="0" y1="1640" x2="1000" y2="1640"/>
	<line id="_x37_4" class="st2" x1="0" y1="1800" x2="1000" y2="1800"/>
	<line id="_x37_3" class="st2" x1="0" y1="1920" x2="1000" y2="1920"/>
	<line id="_x37_2" class="st2" x1="0" y1="180" x2="1000" y2="180"/>
	<line id="_x37_1" class="st2" x1="0" y1="460" x2="1000" y2="460"/>
	<line id="_x37_0" class="st2" x1="0" y1="820" x2="1000" y2="820"/>
	<line id="_x36_9" class="st2" x1="0" y1="1040" x2="1000" y2="1040"/>
	<line id="_x36_8" class="st2" x1="0" y1="1200" x2="1000" y2="1200"/>
	<line id="_x36_7" class="st2" x1="0" y1="1360" x2="1000" y2="1360"/>
	<line id="_x36_6" class="st2" x1="0" y1="1520" x2="1000" y2="1520"/>
	<line id="_x36_5" class="st2" x1="0" y1="1680" x2="1000" y2="1680"/>
	<line id="_x36_4" class="st2" x1="0" y1="1840" x2="1000" y2="1840"/>
	<line id="_x36_3" class="st2" x1="0" y1="1940" x2="1000" y2="1940"/>
	<line id="_x36_2" class="st2" x1="0" y1="220" x2="1000" y2="220"/>
	<line id="_x36_1" class="st2" x1="0" y1="540" x2="1000" y2="540"/>
	<line id="_x36_0" class="st2" x1="0" y1="900" x2="1000" y2="900"/>
	<line id="_x35_9" class="st2" x1="0" y1="1080" x2="1000" y2="1080"/>
	<line id="_x35_8" class="st2" x1="0" y1="1240" x2="1000" y2="1240"/>
	<line id="_x35_7" class="st2" x1="0" y1="1400" x2="1000" y2="1400"/>
	<line id="_x35_6" class="st2" x1="0" y1="1560" x2="1000" y2="1560"/>
	<line id="_x35_5" class="st2" x1="0" y1="1720" x2="1000" y2="1720"/>
	<line id="_x35_4" class="st2" x1="0" y1="1880" x2="1000" y2="1880"/>
	<line id="_x35_3" class="st2" x1="0" y1="1960" x2="1000" y2="1960"/>
	<line id="_x35_2" class="st2" x1="0" y1="300" x2="1000" y2="300"/>
	<line id="_x35_1_1_" class="st2" x1="0" y1="620" x2="1000" y2="620"/>
	<line id="_x35_0_1_" class="st2" x1="0" y1="960" x2="1000" y2="960"/>
	<line id="_x34_9_1_" class="st2" x1="0" y1="1120" x2="1000" y2="1120"/>
	<line id="_x34_8_1_" class="st2" x1="0" y1="1280" x2="1000" y2="1280"/>
	<line id="_x34_7_1_" class="st2" x1="0" y1="1440" x2="1000" y2="1440"/>
	<line id="_x34_6_1_" class="st2" x1="0" y1="1600" x2="1000" y2="1600"/>
	<line id="_x34_5_1_" class="st2" x1="0" y1="1760" x2="1000" y2="1760"/>
	<line id="_x34_4_1_" class="st2" x1="0" y1="1900" x2="1000" y2="1900"/>
	<line id="_x34_3_1_" class="st2" x1="0" y1="1980" x2="1000" y2="1980"/>
	<line id="_x34_2_1_" class="st2" x1="0" y1="2000" x2="1000" y2="2000"/>
	<line id="_x34_1_2_" class="st2" x1="0" y1="0" x2="1000" y2="0"/>
	<line id="_x34_0_2_" class="st2" x1="0" y1="80" x2="1000" y2="80"/>
	<line id="_x33_9_2_" class="st2" x1="0" y1="200" x2="1000" y2="200"/>
	<line id="_x33_8_2_" class="st2" x1="0" y1="500" x2="1000" y2="500"/>
	<line id="_x33_7_2_" class="st2" x1="0" y1="860" x2="1000" y2="860"/>
	<line id="_x33_6_2_" class="st2" x1="0" y1="1060" x2="1000" y2="1060"/>
	<line id="_x33_5_2_" class="st2" x1="0" y1="1220" x2="1000" y2="1220"/>
	<line id="_x33_4_2_" class="st2" x1="0" y1="1380" x2="1000" y2="1380"/>
	<line id="_x33_3_2_" class="st2" x1="0" y1="1540" x2="1000" y2="1540"/>
	<line id="_x33_2_2_" class="st2" x1="0" y1="1700" x2="1000" y2="1700"/>
	<line id="_x33_1_2_" class="st2" x1="0" y1="20" x2="1000" y2="20"/>
	<line id="_x33_0_2_" class="st2" x1="0" y1="100" x2="1000" y2="100"/>
	<line id="_x32_9_2_" class="st2" x1="0" y1="260" x2="1000" y2="260"/>
	<line id="_x32_8_2_" class="st2" x1="0" y1="580" x2="1000" y2="580"/>
	<line id="_x32_7_2_" class="st2" x1="0" y1="940" x2="1000" y2="940"/>
	<line id="_x32_6_2_" class="st2" x1="0" y1="1100" x2="1000" y2="1100"/>
	<line id="_x32_5_2_" class="st2" x1="0" y1="1260" x2="1000" y2="1260"/>
	<line id="_x32_4_2_" class="st2" x1="0" y1="1420" x2="1000" y2="1420"/>
	<line id="_x32_3_2_" class="st2" x1="0" y1="1580" x2="1000" y2="1580"/>
	<line id="_x32_2_2_" class="st2" x1="0" y1="1740" x2="1000" y2="1740"/>
	<line id="_x32_1_3_" class="st2" x1="0" y1="40" x2="1000" y2="40"/>
	<line id="_x32_0_3_" class="st2" x1="0" y1="120" x2="1000" y2="120"/>
	<line id="_x31_9_3_" class="st2" x1="0" y1="340" x2="1000" y2="340"/>
	<line id="_x31_8_3_" class="st2" x1="0" y1="660" x2="1000" y2="660"/>
	<line id="_x31_7_3_" class="st2" x1="0" y1="980" x2="1000" y2="980"/>
	<line id="_x31_6_3_" class="st2" x1="0" y1="1140" x2="1000" y2="1140"/>
	<line id="_x31_5_3_" class="st2" x1="0" y1="1300" x2="1000" y2="1300"/>
	<line id="_x31_4_3_" class="st2" x1="0" y1="1460" x2="1000" y2="1460"/>
	<line id="_x31_3_3_" class="st2" x1="0" y1="1620" x2="1000" y2="1620"/>
	<line id="_x31_2_3_" class="st2" x1="0" y1="1780" x2="1000" y2="1780"/>
	<line id="_x31_1_3_" class="st2" x1="0" y1="60" x2="1000" y2="60"/>
	<line id="_x31_0_3_" class="st2" x1="0" y1="160" x2="1000" y2="160"/>
	<line id="_x39__3_" class="st2" x1="0" y1="420" x2="1000" y2="420"/>
	<line id="_x38__3_" class="st2" x1="0" y1="780" x2="1000" y2="780"/>
	<line id="_x37__3_" class="st2" x1="0" y1="1020" x2="1000" y2="1020"/>
	<line id="_x36__3_" class="st2" x1="0" y1="1180" x2="1000" y2="1180"/>
	<line id="_x35__3_" class="st2" x1="0" y1="1340" x2="1000" y2="1340"/>
	<line id="_x34__3_" class="st2" x1="0" y1="1500" x2="1000" y2="1500"/>
	<line id="_x33__3_" class="st2" x1="0" y1="1660" x2="1000" y2="1660"/>
	<line id="_x32__3_" class="st2" x1="0" y1="1820" x2="1000" y2="1820"/>
	<line id="_x31__3_" class="st2" x1="0" y1="1860" x2="1000" y2="1860"/>
	<line id="_x34_1_1_" class="st2" x1="0" y1="680" x2="1000" y2="680"/>
	<line id="_x34_0_1_" class="st2" x1="0" y1="880" x2="1000" y2="880"/>
	<line id="_x33_1_1_" class="st2" x1="0" y1="740" x2="1000" y2="740"/>
	<line id="_x33_0_1_" class="st2" x1="0" y1="920" x2="1000" y2="920"/>
	<line id="_x32_1_2_" class="st2" x1="0" y1="800" x2="1000" y2="800"/>
	<line id="_x31_1_2_" class="st2" x1="0" y1="840" x2="1000" y2="840"/>
</g>
</svg>
