<?xml version="1.0" encoding="UTF-8" standalone="no"?>
<!-- Created with Inkscape (http://www.inkscape.org/) -->

<svg
   xmlns:dc="http://purl.org/dc/elements/1.1/"
   xmlns:cc="http://creativecommons.org/ns#"
   xmlns:rdf="http://www.w3.org/1999/02/22-rdf-syntax-ns#"
   xmlns:svg="http://www.w3.org/2000/svg"
   xmlns="http://www.w3.org/2000/svg"
   xmlns:sodipodi="http://sodipodi.sourceforge.net/DTD/sodipodi-0.dtd"
   xmlns:inkscape="http://www.inkscape.org/namespaces/inkscape"
   width="297mm"
   height="210mm"
   viewBox="0 0 297 210"
   version="1.1"
   id="svg2411"
   inkscape:version="0.92.2 (5c3e80d, 2017-08-06)"
   sodipodi:docname="008.svg">
  <defs
     id="defs2405" />
  <sodipodi:namedview
     id="base"
     pagecolor="#ffffff"
     bordercolor="#666666"
     borderopacity="1.0"
     inkscape:pageopacity="0.0"
     inkscape:pageshadow="2"
     inkscape:zoom="0.35"
     inkscape:cx="367.64548"
     inkscape:cy="560"
     inkscape:document-units="mm"
     inkscape:current-layer="layer1"
     showgrid="false"
     inkscape:window-width="981"
     inkscape:window-height="886"
     inkscape:window-x="0"
     inkscape:window-y="17"
     inkscape:window-maximized="0" />
  <metadata
     id="metadata2408">
    <rdf:RDF>
      <cc:Work
         rdf:about="">
        <dc:format>image/svg+xml</dc:format>
        <dc:type
           rdf:resource="http://purl.org/dc/dcmitype/StillImage" />
        <dc:title></dc:title>
      </cc:Work>
    </rdf:RDF>
  </metadata>
  <g
     inkscape:label="Layer 1"
     inkscape:groupmode="layer"
     id="layer1"
     transform="translate(0,-87)">
    <g
       id="g6715"
       transform="matrix(0.4617883,0,0,0.60677479,0.22678671,92.023514)">
      <path
         id="path6674"
         d="M 492,23.6 C 492,31.553 485.553,38 477.6,38 H 436.4 C 428.447,38 422,31.553 422,23.6 V 14.4 C 422,6.447 428.447,0 436.4,0 h 41.2 c 7.953,0 14.4,6.447 14.4,14.4 z"
         inkscape:connector-curvature="0"
         style="fill:#c1272d" />
      <path
         id="path6676"
         d="m 644,270.6 c 0,7.953 -6.447,14.4 -14.4,14.4 H 14.4 C 6.447,285 0,278.553 0,270.6 V 155.4 C 0,147.447 6.447,141 14.4,141 h 615.2 c 7.953,0 14.4,6.447 14.4,14.4 z"
         inkscape:connector-curvature="0"
         style="fill:#c7deff" />
      <path
         id="path6678"
         d="m 644,206.8 c 0,1.768 -6.447,3.2 -14.4,3.2 H 14.4 C 6.447,210 0,208.567 0,206.8 V 181.2 C 0,179.432 6.447,178 14.4,178 h 615.2 c 7.953,0 14.4,1.433 14.4,3.2 z"
         inkscape:connector-curvature="0"
         style="fill:#ff0000" />
      <path
         id="path6680"
         d="m 573,157.6 c 0,7.953 -5.736,14.4 -12.813,14.4 H 12.813 C 5.736,172 0,165.553 0,157.6 V 42.4 C 0,34.447 5.736,28 12.813,28 H 512.187 C 519.264,28 525,34.447 525,42.4 Z"
         inkscape:connector-curvature="0"
         style="fill:#c7deff" />
      <path
         id="path6682"
         d="m 422,127.6 c 0,7.953 6.447,14.4 14.4,14.4 H 527 c 7.953,0 14.4,-6.447 14.4,-14.4 L 513,54.4 C 513,46.447 506.553,40 498.6,40 H 436.4 C 428.447,40 422,46.447 422,54.4 Z"
         inkscape:connector-curvature="0"
         style="fill:#29abe2" />
      <path
         id="path6684"
         d="m 86.5,328.5 c -27.018,0 -48.999,-21.98 -48.999,-49 0,-27.018 21.981,-48.999 48.999,-48.999 27.02,0 49,21.981 49,48.999 0,27.02 -21.981,49 -49,49 z"
         inkscape:connector-curvature="0"
         style="fill:#4d4d4d" />
      <path
         id="path6686"
         d="m 86.5,221 c 32.309,0 58.5,26.191 58.5,58.5 C 145,311.809 118.809,338 86.5,338 54.191,338 28,311.809 28,279.5 28,247.191 54.191,221 86.5,221 m 0,19 C 64.72,240 47,257.72 47,279.5 47,301.28 64.72,319 86.5,319 108.28,319 126,301.28 126,279.5 126,257.72 108.28,240 86.5,240 Z"
         inkscape:connector-curvature="0" />
      <path
         id="path6688"
         d="m 543.5,328.5 c -27.018,0 -48.999,-21.98 -48.999,-49 0,-27.018 21.981,-48.999 48.999,-48.999 27.02,0 49,21.981 49,48.999 0,27.02 -21.98,49 -49,49 z"
         inkscape:connector-curvature="0"
         style="fill:#4d4d4d" />
      <path
         id="path6690"
         d="m 543.5,221 c 32.309,0 58.5,26.191 58.5,58.5 0,32.309 -26.191,58.5 -58.5,58.5 -32.309,0 -58.5,-26.191 -58.5,-58.5 0,-32.309 26.191,-58.5 58.5,-58.5 m 0,19 c -21.78,0 -39.5,17.72 -39.5,39.5 0,21.78 17.72,39.5 39.5,39.5 21.78,0 39.5,-17.72 39.5,-39.5 0,-21.78 -17.72,-39.5 -39.5,-39.5 z"
         inkscape:connector-curvature="0" />
      <rect
         id="rect6692"
         height="114"
         width="32"
         y="51"
         x="159.5"
         style="fill:#ff0000" />
      <rect
         id="rect6694"
         height="32"
         width="114"
         y="92"
         x="118.5"
         style="fill:#ff0000" />
    </g>
    <rect
       style="fill:#0000bb;stroke:#0a0009;stroke-width:0.73553443;stroke-linejoin:round;stroke-miterlimit:4;stroke-dasharray:none;stroke-opacity:1;paint-order:normal;fill-opacity:1"
       id="rect6720"
       width="14.905379"
       height="70.471115"
       x="73.717293"
       y="122.80431" />
    <rect
       style="fill:#0000bb;fill-opacity:1;stroke:#0a0009;stroke-width:0.58738387;stroke-linejoin:round;stroke-miterlimit:4;stroke-dasharray:none;stroke-opacity:1;paint-order:normal"
       id="rect6722"
       width="52.988941"
       height="19.742426"
       x="54.603626"
       y="147.8468" />
    <text
       xml:space="preserve"
       style="font-style:normal;font-weight:normal;font-size:17.5725441px;line-height:1.25;font-family:sans-serif;letter-spacing:0px;word-spacing:0px;fill:#0000f6;fill-opacity:1;stroke:none;stroke-width:0.43931356"
       x="27.83633"
       y="177.30139"
       id="text6726"
       transform="scale(0.81652649,1.2247)"><tspan
         sodipodi:role="line"
         id="tspan6724"
         x="27.83633"
         y="177.30139"
         style="fill:#0000f6;fill-opacity:1;stroke-width:0.43931356">0988991623</tspan></text>
    <text
       xml:space="preserve"
       style="font-style:normal;font-weight:normal;font-size:16.94992828px;line-height:1.25;font-family:sans-serif;letter-spacing:0px;word-spacing:0px;fill:#0000f8;fill-opacity:1;stroke:none;stroke-width:0.42374817;"
       x="190.59877"
       y="163.68193"
       id="text6730"
       transform="scale(0.75281358,1.3283501)"><tspan
         sodipodi:role="line"
         id="tspan6728"
         x="190.59877"
         y="163.68193"
         style="stroke-width:0.42374817;fill:#0000f8;fill-opacity:1;">0953233984</tspan></text>
  </g>
  <g
     inkscape:groupmode="layer"
     id="layer2"
     inkscape:label="кузов" />
</svg>
