<?xml version='1.0' encoding='utf-8'?>
<svg xmlns="http://www.w3.org/2000/svg" id="Layer_1" data-name="Layer 1" width="730.22mm" height="598.7mm" viewBox="0 0 2069.92 1697.11"><title>cat-outline</title><path d="M391.54,1753.73c23.33,5,47.08,8.21,71,8,19.15-.14,38.85-1.32,56.38-9.59,11.57-5.46,20.75-12.86,30.2-21.06,1.1-1,1.72-.59.65.17l5.44-3.85c4.39-3.09,8.64-6.27,13.88-7.77,8.91-2.55,17.51-3.95,25.84-8.35,18-9.51,31-27.94,45.34-42a529.48,529.48,0,0,1,50-43.54c21.56-16.32,45.15-29.73,67.26-45.29,24-16.89,48.87-34.6,68.72-56.37,4.27-4.68,7.64-10.28,12.1-14.75,6.09-6.11,14-10.28,20.69-15.7,10.31-8.33,20-17.48,29.48-26.78,9-8.88,19.05-18.31,25.43-29.37,4.2-7.29,7.64-13.7,13.89-19.65a206.65,206.65,0,0,1,25.27-19.9c7.61-5.25,16-9.24,24-13.77,8.49-4.78,14.84-10.8,22.45-16.58,8.11-6.16,12.91,1.32,20.64,4.49,7.89,3.24,16.43,3.54,24.84,3.72,22.2.47,45.58,3.49,67.44,7.37,21.64,3.84,38.52,12.29,49.75,31.91,12.36,21.59,24.33,43.43,36.45,65.16s24.81,43.27,35.42,65.74c12.17,25.76,22.68,52.41,32.93,79,4.21,10.91,8.52,21.86,12,33,1.6,5.21,2.83,8.77-2.95,11.93-7.58,4.15-17,5-24.7,9.45-13.69,7.89-22.81,21.18-22.4,37.34.23,9.18,3.19,18,6.06,26.6,2.59,7.77,3.1,16.48,11.57,19.57,9.93,3.62,23.09,3.45,33.58,4.87,11.65,1.57,23.34,2.95,35.09,3.47A192.77,192.77,0,0,0,1349,1770c7.67-1,16.19-1.94,22.3-7.18,12.37-10.59,12.92-33.52,13.08-48.39.26-23.81-4-47.53-4.8-71.32-1.53-43.22-12.06-85.66-20.36-127.9-9.79-49.82-19.07-99.8-27.19-149.92-.87-5.35-1.86-10.79-2.33-16l-4.4,5.79c14-3.57,30.68-5.41,43.15-12.63,1.29-.75.81-.76,1.46-1a31.28,31.28,0,0,1,5.81-1.48c13.24-2.58,27.24-2.49,40.67-2.74,39.31-.73,78.68.71,117.94,2.55,14.61.69,29.22,1.44,43.81,2.44,12.54.86,18.82,2,32.15,3.92,19.43,2.82,39.08,6.51,58.71,7.6,7.12.39,14.45.71,21.48-.75,6.69-1.4,12.33-4.3,19.31-4.5A44.32,44.32,0,0,1,1744,1363.6c9.07,10.67,11.31,26.58,16.75,39.26a147.15,147.15,0,0,0,24.32,39.3,885,885,0,0,1,67.7,88c9.92,14.67,25.18,30.81,30.09,48.06,5.67,19.95-9.73,34.25-21.74,47.92-12.19,13.88-24.58,27.59-37,41.28-4.81,5.3-10.05,10.12-14.52,15.72-4.75,5.94-10.22,11.67-18.32,12.08-7,.35-13-3.15-20.16-2.2-6.62.88-13,3.83-19,6.73a89.25,89.25,0,0,0-32.14,25.78c-8.25,10.83-10.5,21.6-7.79,35,1.75,8.65,4.24,19,10.73,25.43,5.78,5.74,14,7,21.74,7.51,17.48,1.08,35.36-.28,52.83-1.1q27.85-1.31,55.68-3.35c6.22-.46,9-1.62,13.6-5.64,11.63-10.11,21.65-22.41,31.77-34,12.79-14.63,25.33-29.48,37.88-44.3,7.72-9.12,14.75-17.47,24-24.93,23.12-18.68,36.33-45.79,49.72-71.63,8-15.44,15.24-31.19,22.09-47.17,6.29-14.66,12.79-26.7,10.52-42.95-3.86-27.69-9.26-55.14-12.62-82.92-2.2-18.23-5.94-38.46-3.58-56.82.57-4.44.87-4.42,5.75-3.66,9.65,1.52,19.41,5.51,28.76,8.38,18.59,5.72,37.13,11.57,55.73,17.28,17.16,5.27,34,11.52,51.32,16.39,16.65,4.69,34,5.91,50.23,12.18a134.57,134.57,0,0,1,70.91,62.9c7.58,14.35,13.1,29.58,18.38,44.89,6,17.32,12.68,34.42,17.83,52,4,13.74,7.68,27.74,10.49,41.78,2.48,12.36,1.59,25.28,5.71,37.28,4.63,13.51,13,25.31,22.45,35.91,7.44,8.37,17,22,29.75,19.05,11.32-2.57,21-12.22,29.58-19.51,9.15-7.79,14.91-17.19,16.7-29.15,2.49-16.68,2.79-35.07-3-51-8.17-22.33-16.86-44.46-25.1-66.77-11.27-30.51-22.73-61.22-31.54-92.55-7.6-27-9.14-55.76-17.56-82.41-6.55-20.74-17-41.08-26.79-60.46-2.73-5.43-5.38-12.46-10.27-16.37s-11.43-6.46-16.67-10.15a114.91,114.91,0,0,1-18.78-16.69c-5-5.56-8.89-11.92-13.69-17.64-5-6-11.28-10.58-17.18-15.59-5.62-4.78-11-9.91-14.67-16.37-3.47-6-3.68-12.44-6.34-18.68-4.35-10.19-12.23-18.64-19.16-27.11-3.39-4.14-3.64-6.23-4.55-11.79-1.73-10.46-3.38-20.94-4.68-31.47-2.7-21.92-2.82-44.08-5.56-66-.47-3.73-2.3-7.65-2.58-11.25-.57-7.44,2.66-14.4,1.56-22.19-1.92-13.57-9.61-25.18-15.14-37.45-6.73-14.95-14.41-29.9-19.52-45.5-5.87-17.93-4-35.62-5.17-54.09-.48-7.31-4.14-13.4-5.54-20.53a53.74,53.74,0,0,1,2.25-27.71c5.47-16.26,16-30.84,25.15-45.18,19.65-30.79,40.82-60.77,55.6-94.29,13.5-30.6,33.69-56.95,44.62-88.84,2.85-8.31,5-16.77,8.77-24.72,3.39-7.09,7.44-13.82,10.3-21.16,6.81-17.43,10.93-36.29,15.69-54.36,3.9-14.79,8.34-29.55,11.1-44.61,6.32-34.47,7-70.16,3.29-104.95-6.23-58.93-25.6-116.06-57.38-166.16-7.39-11.65-14.87-26.81-27.85-32.93-4.88-2.3-12-3.48-16.35-6.37-2.83-1.89-5.36-6.39-7.92-8.83-14.88-14.19-33.18-25.13-51.09-35-16.79-9.27-34.41-18.3-52.75-24.1-5.08-1.61-10.22-3-15.56-2.26-3.88.52-5.95,1-10-.23a75.78,75.78,0,0,0-12.09-3c-22.67-3.19-46.89,2.3-68.31,9.45-22.36,7.46-45,18-62.48,34.12-9.11,8.41-17.68,18.37-22.72,29.8-4.39,10-5.88,20.84-8.72,31.28-5.38,19.81-12.25,50.87,9.41,63.37,10.86,6.26,24.4,7,36.35,3.82,14.88-3.91,24-14,35.27-23.64,13.18-11.25,30-20.82,47.45-22.83,18.62-2.15,35.75,6,51.09,15.77,26.67,17,50,40.82,63.32,69.71,13.64,29.59,15.75,65.71,13.3,97.83-1.41,18.46-5.33,37-8.47,55.26s-6.69,36.63-11.13,54.71c-9,36.47-22.49,71.39-38.6,105.27-7.73,16.25-14.92,32.94-27.31,46.24a342.42,342.42,0,0,1-35,33c-13.22,10.65-25.72,23.81-40.58,32.07-13.35,7.43-28.4,10.79-43.62,10.84-17.41.06-34.16-4.56-51.14-7.81q-27-5.17-54.28-8.51a913.23,913.23,0,0,0-111.58-6.77c-75.57-.09-150.87,9.38-226,17-47.18,4.76-94.08,11.64-141,18.43-80.33,11.63-160.56,24-240.95,35.23-9.41,1.31-17.52,6.42-27.35,9.74-16.69,5.63-34.32,6.66-51.77,5.06-16.83-1.54-33.16-5.89-49.68-9.2-16.17-3.25-32.49-6.25-48.05-11.85-16.8-6-30.45-16.47-45-26.44-15.26-10.44-30.72-20.59-45.68-31.44-27.34-19.83-52-41.39-83.92-53.83-29.28-11.42-55.7-27.37-78-49.66-24.23-24.16-43.48-52.35-69.42-75-3.16-2.75-7-2-9.42,1.21l-12.51,16.77,6.78-2.76c-9-1.35-17.79-.31-21.68,9.1-2.63,6.38-2,14.1-1.94,20.82.15,10.43.94,20.83,2,31.21,1.35,13.77,3.09,28.67-9.57,37.8-6.32,4.56-14.16,6.88-21.13,10.28a162.65,162.65,0,0,0-22,12.88c-27.92,19.54-41.38,47-57.86,75.74a167.35,167.35,0,0,1-33.82,42.23c-10.16,9.15-22.21,23.31-24.4,37.24-2.43,15.44,8.79,31.43,15.7,44.46,3.46,6.53,6.72,13.08,11.14,19,5,6.7,8,14.49,13.11,21.13,16.77,21.58,43.82,31,70.47,26.41,16.38-2.82,32.16-3,47.95,2.85a94.08,94.08,0,0,1,31,19.83c2.49,2.44,4.56,6.1,7.59,7.94,3.61,2.19,7.93,2,11.61,4.3,5.21,3.28,9.42,8.51,13,13.4,6.59,8.93,11.88,18.83,16.79,28.76,9,18.14,17.67,36.44,24.77,55.42,1.55,4.15,3.46,8.54,4.28,12.91,1.33,7.12.05,15-.34,22.24-.75,13.61-1.3,27.21-1.78,40.83-1.55,43.58-4.26,87.13-6.66,130.67-.89,16.17.32,32.25.27,48.42-.06,18-11,36.5-17.6,53-8.67,21.71-18,40.89-30.85,60.47-22.78,34.74-47.24,69.42-74.19,101.09-27.08,31.82-56.76,62.2-87.07,90.92-7.12,6.75-14.66,15.18-23.33,19.92-14.91,8.15-31.37.19-47.09,4-7.9,1.93-14.62,6.58-22.12,9.51-6.46,2.52-12.14,5.19-17,10.32A42.75,42.75,0,0,0,372,1719.8c.59,13,7.2,24.08,16.93,32.39,5.84,5,14.37-3.46,8.49-8.49-11.78-10.06-17.48-25.11-10-39.64,3.58-7,9.08-11.08,16.29-13.8,7.44-2.81,14.42-7.69,22.12-9.51,8-1.89,15.4,0,23.41.43a52.37,52.37,0,0,0,21.16-3.2c9.06-3.39,16.31-10.62,23.36-17,32-29.13,61.92-61.14,90.71-93.46,24.1-27,45.21-57.38,65.87-87.06,12-17.31,24.37-34.91,33.83-53.81,5.5-11,9.39-22.77,13.94-34.16,6.21-15.51,16.08-32.05,16.6-49s-1.24-33.59-.33-50.41c.42-7.88.89-15.75,1.33-23.62q2-36,3.8-72.1c1-20.55,1.43-41.13,2.5-61.67.71-13.67,4-29.23.46-42.65-2.6-9.93-7-19.57-10.94-29-7.11-16.83-14.84-33.55-23.48-49.66-5.37-10-11.38-19.93-19-28.39a51.52,51.52,0,0,0-10.58-9.25c-3.57-2.24-8.47-2.54-11.66-4.64-2.19-1.43-4.3-5-6.31-6.85-2.53-2.37-5.24-4.56-8-6.67a101.37,101.37,0,0,0-20.21-12.28A93,93,0,0,0,573,938c-15.42.18-30,5.57-45.44,2.16a60.3,60.3,0,0,1-36-23.93c-3.86-5.45-6.26-11.69-10.11-17.13-5.13-7.24-9.14-14.91-13.27-22.78-4.27-8.14-10.58-17.68-12.34-26.73s4.13-17.12,9.25-24.21c9.74-13.49,23.66-23,33.67-36.47s17.78-28.61,25.76-43.43c17-31.58,41-52.54,73.8-66.68,10.39-4.48,19.63-10.7,24.18-21.46,5.4-12.79,2.58-26.82,1.46-40.14-.76-9.09-1.28-18.2-1.28-27.32,0-7.45-1.16-15.88,8.46-14.45a6.42,6.42,0,0,0,6.78-2.76l12.51-16.77-9.42,1.21c26.34,23,45.82,51.74,70.59,76.12a226.71,226.71,0,0,0,74.31,48.55c15.94,6.43,30.91,13.33,45.25,22.9,14.1,9.41,26.95,20.48,40.59,30.51,14.89,11,30.33,21.14,45.6,31.54,13.82,9.4,26.93,19.77,42.39,26.39,15,6.4,30.78,10,46.67,13.26s31.53,7.12,47.45,9.66c15.43,2.46,31.08,3.56,46.64,1.72a119.33,119.33,0,0,0,22.11-4.66c7.64-2.43,14.85-7.34,22.46-9.41,10.5-2.85,22.47-3.16,33.22-4.72q27.37-4,54.73-8c90.33-13.29,180.65-28.43,271.39-38.63,37.33-4.2,74.78-7.23,112.14-11.13s74.74-7.28,112.35-8.24a956.64,956.64,0,0,1,111.7,3.48q28.62,2.63,57,7.23c18.07,3,35.89,7.52,54,10.27,27.68,4.2,56.23.57,79.57-15.79,12.71-8.91,24.31-20.12,36.33-30a337.54,337.54,0,0,0,34.69-33.09c11.32-12.44,18.25-27.18,25.52-42.2,7.54-15.58,14.64-31.39,21.07-47.46,13.65-34.11,22.94-69.35,29.67-105.43,11.54-61.85,23.89-132-9.57-189.54-14.7-25.26-36.8-46.38-61.37-62-26.77-17-54.77-23.35-84.42-9.63-15.12,7-26.66,17.43-39,28.24-12.06,10.55-30.37,16.68-45.59,8.94-13.05-6.64-10.51-24.82-8.35-36.95a356.18,356.18,0,0,1,8.65-35.42c7.06-24.56,29.64-41.72,51.44-52.92,22.29-11.46,47.75-19.64,72.84-21.52,9.81-.73,19.82-.6,29.17,2.78,4,1.44,7.12,3,11.51,2.41a51.94,51.94,0,0,0,5.48-1.87c-.34,0,0,.09,1,.12,6.07.2,12.85,3.53,18.39,5.73,9.32,3.7,18.4,8,27.33,12.6,19.36,9.89,38.94,20.89,55.66,34.89,5.67,4.74,10.66,12.9,17.15,16.15,6,3,13.14,3.82,18.77,7.73,7.44,5.17,12.95,16,17.87,23.61,50.14,77.38,72.41,177.17,54.23,268.35-3.8,19.05-9.46,37.85-14.56,56.58-4.78,17.58-9.2,35-17.59,51.29-7.27,14.08-11,29-16.75,43.7-6.64,17-16,31.61-25.53,47-8.84,14.35-14.39,30.45-21.82,45.52-16.24,33-39.15,63-58.47,94.21-7.84,12.66-15.55,26.06-18.36,40.88a61.65,61.65,0,0,0-.63,19.56c1.15,8.74,5.7,16.51,6.07,25.23.7,16.75-.55,33.22,4,49.57,4.31,15.45,11.88,29.69,18.34,44.29,5.7,12.88,14.32,26,17.18,39.91,1.65,8-1.86,14.25-1.67,21.86.11,4.11,2.22,8,2.88,12.06,3.54,21.71,2.9,44.13,5.56,66,1,8.34,2.22,16.65,3.53,25,1,6.55,1,14.26,4.1,20.2,4.35,8.45,12.8,15.17,18,23.19,6.91,10.69,7.28,23,15.33,33.44,9.25,12,22.93,19.24,31.89,31.47,8.24,11.25,17.21,21.22,28.38,29.67,6,4.53,12.5,7.86,18.74,12,2.9,1.91-.76-1.76,1.43,1.41a52.87,52.87,0,0,1,2.78,4.9,515.48,515.48,0,0,1,27.37,59.66c9.19,23.9,10.17,51.23,16.33,76,8,32.1,19.76,63.42,31.1,94.46,8.71,23.83,17.87,47.48,26.73,71.25,1.81,4.86,4.39,10.07,5.31,15.22-.32-1.8-.2,4.08-.21,5.56,0,3.47,0,6.93.09,10.4.09,6.78.38,13.74-.8,20.45-2.45,14-13.53,22.46-24.29,30.56-5.67,4.27-12.13,10-18.34,4.56a153.81,153.81,0,0,1-17.47-18.47c-10.21-12.61-16.78-26.15-17.81-42.4-.82-12.89-3.7-25.49-6.85-38-8.09-32.06-19-63.48-30.78-94.36-10.44-27.39-24.37-54.15-47.78-72.65a168.33,168.33,0,0,0-37.31-22.68c-15.3-6.62-31-8.44-47.06-12.26-17.37-4.13-34.09-10.54-51.1-15.9-17.84-5.63-35.74-11.07-53.61-16.61q-13.45-4.17-26.93-8.26c-7.11-2.15-14.32-5.21-21.88-4-7.4,1.19-10.76,4.93-12,12-3.06,17.7.5,37.48,2.52,55.13,2.76,24,6.7,47.86,10.58,71.72,1.39,8.53,3.88,17.7,3.57,26.36-.35,9.61-6.78,20-10.54,28.73q-10.56,24.54-22.79,48.22c-6.71,13-13.29,26.1-21.38,38.31-8.95,13.51-19.66,22.43-31.57,33-7.57,6.71-13.76,15.71-20.27,23.41-12.49,14.75-25,29.51-37.74,44-9.12,10.37-18.79,24.35-30.45,32.08-2.27,1.5-.61.62-3.73.95-9.88,1-19.91,1.34-29.82,1.94-19.22,1.17-38.45,2.12-57.7,2.51-9.17.19-25.88,3.1-33.73-3.49-7.05-5.91-9.57-22.49-8.94-30.8,1.2-15.82,19.62-28.94,32.41-35.66,6.9-3.62,14.77-7.67,22.75-6.43,6.47,1,11.81,2.88,18.52,1.47,13.38-2.81,19.86-14.2,28.84-23.2,12.28-12.32,23.63-25.71,35.21-38.7,19.68-22.07,45.83-45.71,30.53-77.57-7.61-15.83-19.39-30-29.2-44.55-10.4-15.38-21-30.55-32.34-45.27-20.62-26.82-46.29-50.27-59.26-82.06-5.11-12.53-7.45-26.65-15.89-37.52a55.41,55.41,0,0,0-26.46-18.33,53.47,53.47,0,0,0-32.67-.45c-11.64,3.66-23,3.55-35,2.18-21.31-2.41-42.54-5.77-63.75-8.92-24-3.57-48.8-3.76-73-4.81-38.66-1.67-77.48-3.07-116.17-1.85-12,.38-24.53.6-36.31,3.22-3.82.85-6.52,2.54-9.9,4.19-11.57,5.64-26.6,7.47-39.16,10.68-2.36.6-4.64,3.23-4.4,5.79,1.43,15.68,4.75,31.33,7.44,46.82q6.92,39.84,14.37,79.58c8.22,44.06,18.67,87.74,24.44,132.2,1.42,11,3,22.06,3.57,33.12,1,20.74,3.62,41.34,4.62,62.07.77,15.95,3.39,49.28-16.74,53.77-24.63,5.49-51.29,2.2-76-1.19-7.4-1-25.28-.8-29.53-5.45-2.3-2.51-3.34-10.06-4.44-13.43-1.94-5.95-4.05-12.12-4.45-18.41-1.4-22.13,17.75-30.31,35.5-36,12.18-3.91,18.28-11.27,15-24.25-2.45-9.8-6.49-19.38-10.06-28.8-18.28-48.3-38.85-94.54-63.86-139.69-13.39-24.17-27-48.2-40.45-72.33-6.4-11.48-12.86-22.32-23.42-30.58-15.21-11.89-34.12-14.91-52.8-17.29-20.53-2.62-41-4.75-61.65-5.75a47.53,47.53,0,0,1-12.47-1.88c-5-1.63-7.74-5.1-12.15-7.41-5-2.64-11.87-1.93-17,.17-7.13,2.92-12.21,10.26-18.66,14.51-7.74,5.09-16.19,9-24.18,13.64-15.2,8.86-31.83,20.81-42.85,34.65-4,5-6.16,10.72-9.58,16-3.61,5.56-8.32,10.5-12.84,15.31-9.84,10.47-20.33,20.37-31.14,29.83-11,9.64-24.62,16.62-33.53,28.36-7.83,10.32-17.14,19.17-26.94,27.61-46.24,39.79-101.15,67.33-146.6,108-16.49,14.78-31.58,30.79-47.09,46.55-6.35,6.46-13.47,11.63-22,14.8-9.41,3.49-19,3.95-27.65,9.37-3.75,2.34-7.25,5.11-10.88,7.63-1.43,1-5.78,5.21-5.17,4.62-1.65,1.59-9.51,7.06-13.62,9.63-18.27,11.42-37.21,14.07-58.51,14.54-24.15.54-48.08-2.51-71.66-7.55C387.2,1740.55,384,1752.12,391.54,1753.73Z" transform="translate(-371.92 -96.75)"/></svg>