<?xml version="1.0" encoding="UTF-8" standalone="no"?>
<svg
   xmlns:dc="http://purl.org/dc/elements/1.1/"
   xmlns:cc="http://creativecommons.org/ns#"
   xmlns:rdf="http://www.w3.org/1999/02/22-rdf-syntax-ns#"
   xmlns:svg="http://www.w3.org/2000/svg"
   xmlns="http://www.w3.org/2000/svg"
   xmlns:xlink="http://www.w3.org/1999/xlink"
   xmlns:sodipodi="http://sodipodi.sourceforge.net/DTD/sodipodi-0.dtd"
   xmlns:inkscape="http://www.inkscape.org/namespaces/inkscape"
   enable-background="new 0 0 1842 1920"
   version="1.1"
   viewBox="0 0 1842 1920"
   id="svg8"
   sodipodi:docname="003.svg"
   inkscape:version="0.92.2 (5c3e80d, 2017-08-06)">
  <metadata
     id="metadata14">
    <rdf:RDF>
      <cc:Work
         rdf:about="">
        <dc:format>image/svg+xml</dc:format>
        <dc:type
           rdf:resource="http://purl.org/dc/dcmitype/StillImage" />
        <dc:title></dc:title>
      </cc:Work>
    </rdf:RDF>
  </metadata>
  <defs
     id="defs12">
    <filter
       id="ac">
      <feGaussianBlur
         id="feGaussianBlur39"
         stdDeviation="4.89594" />
    </filter>
    <filter
       id="ab">
      <feGaussianBlur
         id="feGaussianBlur42"
         stdDeviation="4.72005" />
    </filter>
    <filter
       id="q">
      <feGaussianBlur
         id="feGaussianBlur45"
         stdDeviation="3.68158" />
    </filter>
    <filter
       id="d">
      <feGaussianBlur
         id="feGaussianBlur48"
         stdDeviation="1.03313" />
    </filter>
    <filter
       height="1.1535"
       width="1.2563"
       y="-.07675"
       x="-.12815"
       id="aa">
      <feGaussianBlur
         id="feGaussianBlur51"
         stdDeviation="6.02793" />
    </filter>
    <filter
       height="1.1344"
       width="1.3359"
       y="-.06721"
       x="-.16796"
       id="z">
      <feGaussianBlur
         id="feGaussianBlur54"
         stdDeviation=".98635" />
    </filter>
    <filter
       height="1.1447"
       width="1.2853"
       y="-.07234"
       x="-.14265"
       id="y">
      <feGaussianBlur
         id="feGaussianBlur57"
         stdDeviation="3.53429" />
    </filter>
    <filter
       height="1.1397"
       width="1.307"
       y="-.06984"
       x="-.15348"
       id="x">
      <feGaussianBlur
         id="feGaussianBlur60"
         stdDeviation="6.71099" />
    </filter>
    <filter
       height="1.1582"
       width="1.2442"
       y="-.07908"
       x="-.12212"
       id="w">
      <feGaussianBlur
         id="feGaussianBlur63"
         stdDeviation="2.1969" />
    </filter>
    <filter
       height="1.226"
       width="1.1669"
       y="-.11301"
       x="-.08344"
       id="v">
      <feGaussianBlur
         id="feGaussianBlur66"
         stdDeviation="4.07268" />
    </filter>
    <filter
       height="1.1738"
       width="1.2144"
       y="-.08691"
       x="-.10721"
       id="u">
      <feGaussianBlur
         id="feGaussianBlur69"
         stdDeviation="2.48948" />
    </filter>
    <filter
       height="1.1188"
       width="1.5001"
       y="-.0594"
       x="-.25005"
       id="t">
      <feGaussianBlur
         id="feGaussianBlur72"
         stdDeviation="3.64141" />
    </filter>
    <filter
       height="1.0718"
       width="1.3637"
       y="-.03593"
       x="-.18185"
       id="s">
      <feGaussianBlur
         id="feGaussianBlur75"
         stdDeviation="2.19494" />
    </filter>
    <filter
       height="1.3043"
       width="1.1402"
       y="-.15215"
       x="-.07012"
       id="r">
      <feGaussianBlur
         id="feGaussianBlur78"
         stdDeviation="3.39951" />
    </filter>
    <filter
       height="1.1498"
       width="1.2673"
       y="-.07491"
       x="-.13363"
       id="p">
      <feGaussianBlur
         id="feGaussianBlur81"
         stdDeviation="5.26883" />
    </filter>
    <filter
       height="1.123"
       width="1.4373"
       y="-.0615"
       x="-.21863"
       id="o">
      <feGaussianBlur
         id="feGaussianBlur84"
         stdDeviation="4.54788" />
    </filter>
    <filter
       height="1.1585"
       width="1.2434"
       y="-.07926"
       x="-.12171"
       id="n">
      <feGaussianBlur
         id="feGaussianBlur87"
         stdDeviation="4.27495" />
    </filter>
    <filter
       height="1.1041"
       width="2.2384"
       y="-.05203"
       x="-.61919"
       id="m">
      <feGaussianBlur
         id="feGaussianBlur90"
         stdDeviation="4.155" />
    </filter>
    <filter
       height="1.1216"
       width="1.4559"
       y="-.0608"
       x="-.22797"
       id="l">
      <feGaussianBlur
         id="feGaussianBlur93"
         stdDeviation="2.92249" />
    </filter>
    <filter
       height="1.0834"
       width="1.214"
       y="-.04169"
       x="-.10699"
       id="k">
      <feGaussianBlur
         id="feGaussianBlur96"
         stdDeviation="2.62743" />
    </filter>
    <filter
       height="1.3219"
       width="1.1913"
       y="-.16093"
       x="-.09567"
       id="j">
      <feGaussianBlur
         id="feGaussianBlur99"
         stdDeviation="3.58953" />
    </filter>
    <filter
       height="1.214"
       width="1.2732"
       y="-.10699"
       x="-.13661"
       id="i">
      <feGaussianBlur
         id="feGaussianBlur102"
         stdDeviation="2.27361" />
    </filter>
    <filter
       height="1.1532"
       width="1.2572"
       y="-.07658"
       x="-.12862"
       id="h">
      <feGaussianBlur
         id="feGaussianBlur105"
         stdDeviation="2.01934" />
    </filter>
    <filter
       height="1.1799"
       width="1.2058"
       y="-.08997"
       x="-.1029"
       id="g">
      <feGaussianBlur
         id="feGaussianBlur108"
         stdDeviation="3.40783" />
    </filter>
    <filter
       height="1.151"
       width="1.2634"
       y="-.07552"
       x="-.13171"
       id="f">
      <feGaussianBlur
         id="feGaussianBlur111"
         stdDeviation="5.12451" />
    </filter>
    <filter
       height="1.1249"
       width="1.4147"
       y="-.06246"
       x="-.20737"
       id="e">
      <feGaussianBlur
         id="feGaussianBlur114"
         stdDeviation="4.55274" />
    </filter>
    <linearGradient
       id="a">
      <stop
         id="stop117"
         offset="0"
         stop-color="#f8fdff" />
      <stop
         id="stop119"
         offset="1"
         stop-color="#000502" />
    </linearGradient>
    <radialGradient
       xlink:href="#a"
       gradientUnits="userSpaceOnUse"
       gradientTransform="scale(1.1282,0.88636)"
       r="20.851"
       cy="388.24"
       cx="351"
       id="c" />
    <radialGradient
       xlink:href="#a"
       gradientUnits="userSpaceOnUse"
       r="22.87"
       cy="345.93"
       cx="396.22"
       id="b" />
    <style
       id="style542">.cls-1{fill:#231f20;}</style>
    <filter
       id="ac-8">
      <feGaussianBlur
         id="feGaussianBlur607"
         stdDeviation="4.89594" />
    </filter>
    <filter
       id="ab-0">
      <feGaussianBlur
         id="feGaussianBlur610"
         stdDeviation="4.72005" />
    </filter>
    <filter
       id="q-0">
      <feGaussianBlur
         id="feGaussianBlur613"
         stdDeviation="3.68158" />
    </filter>
    <filter
       id="d-4">
      <feGaussianBlur
         id="feGaussianBlur616"
         stdDeviation="1.03313" />
    </filter>
    <filter
       height="1.1535"
       width="1.2563"
       y="-.07675"
       x="-.12815"
       id="aa-6">
      <feGaussianBlur
         id="feGaussianBlur619"
         stdDeviation="6.02793" />
    </filter>
    <filter
       height="1.1344"
       width="1.3359"
       y="-.06721"
       x="-.16796"
       id="z-4">
      <feGaussianBlur
         id="feGaussianBlur622"
         stdDeviation=".98635" />
    </filter>
    <filter
       height="1.1447"
       width="1.2853"
       y="-.07234"
       x="-.14265"
       id="y-9">
      <feGaussianBlur
         id="feGaussianBlur625"
         stdDeviation="3.53429" />
    </filter>
    <filter
       height="1.1397"
       width="1.307"
       y="-.06984"
       x="-.15348"
       id="x-1">
      <feGaussianBlur
         id="feGaussianBlur628"
         stdDeviation="6.71099" />
    </filter>
    <filter
       height="1.1582"
       width="1.2442"
       y="-.07908"
       x="-.12212"
       id="w-0">
      <feGaussianBlur
         id="feGaussianBlur631"
         stdDeviation="2.1969" />
    </filter>
    <filter
       height="1.226"
       width="1.1669"
       y="-.11301"
       x="-.08344"
       id="v-4">
      <feGaussianBlur
         id="feGaussianBlur634"
         stdDeviation="4.07268" />
    </filter>
    <filter
       height="1.1738"
       width="1.2144"
       y="-.08691"
       x="-.10721"
       id="u-9">
      <feGaussianBlur
         id="feGaussianBlur637"
         stdDeviation="2.48948" />
    </filter>
    <filter
       height="1.1188"
       width="1.5001"
       y="-.0594"
       x="-.25005"
       id="t-5">
      <feGaussianBlur
         id="feGaussianBlur640"
         stdDeviation="3.64141" />
    </filter>
    <filter
       height="1.0718"
       width="1.3637"
       y="-.03593"
       x="-.18185"
       id="s-3">
      <feGaussianBlur
         id="feGaussianBlur643"
         stdDeviation="2.19494" />
    </filter>
    <filter
       height="1.3043"
       width="1.1402"
       y="-.15215"
       x="-.07012"
       id="r-7">
      <feGaussianBlur
         id="feGaussianBlur646"
         stdDeviation="3.39951" />
    </filter>
    <filter
       height="1.1498"
       width="1.2673"
       y="-.07491"
       x="-.13363"
       id="p-4">
      <feGaussianBlur
         id="feGaussianBlur649"
         stdDeviation="5.26883" />
    </filter>
    <filter
       height="1.123"
       width="1.4373"
       y="-.0615"
       x="-.21863"
       id="o-6">
      <feGaussianBlur
         id="feGaussianBlur652"
         stdDeviation="4.54788" />
    </filter>
    <filter
       height="1.1585"
       width="1.2434"
       y="-.07926"
       x="-.12171"
       id="n-4">
      <feGaussianBlur
         id="feGaussianBlur655"
         stdDeviation="4.27495" />
    </filter>
    <filter
       height="1.1041"
       width="2.2384"
       y="-.05203"
       x="-.61919"
       id="m-3">
      <feGaussianBlur
         id="feGaussianBlur658"
         stdDeviation="4.155" />
    </filter>
    <filter
       height="1.1216"
       width="1.4559"
       y="-.0608"
       x="-.22797"
       id="l-9">
      <feGaussianBlur
         id="feGaussianBlur661"
         stdDeviation="2.92249" />
    </filter>
    <filter
       height="1.0834"
       width="1.214"
       y="-.04169"
       x="-.10699"
       id="k-0">
      <feGaussianBlur
         id="feGaussianBlur664"
         stdDeviation="2.62743" />
    </filter>
    <filter
       height="1.3219"
       width="1.1913"
       y="-.16093"
       x="-.09567"
       id="j-8">
      <feGaussianBlur
         id="feGaussianBlur667"
         stdDeviation="3.58953" />
    </filter>
    <filter
       height="1.214"
       width="1.2732"
       y="-.10699"
       x="-.13661"
       id="i-5">
      <feGaussianBlur
         id="feGaussianBlur670"
         stdDeviation="2.27361" />
    </filter>
    <filter
       height="1.1532"
       width="1.2572"
       y="-.07658"
       x="-.12862"
       id="h-8">
      <feGaussianBlur
         id="feGaussianBlur673"
         stdDeviation="2.01934" />
    </filter>
    <filter
       height="1.1799"
       width="1.2058"
       y="-.08997"
       x="-.1029"
       id="g-7">
      <feGaussianBlur
         id="feGaussianBlur676"
         stdDeviation="3.40783" />
    </filter>
    <filter
       height="1.151"
       width="1.2634"
       y="-.07552"
       x="-.13171"
       id="f-0">
      <feGaussianBlur
         id="feGaussianBlur679"
         stdDeviation="5.12451" />
    </filter>
    <filter
       height="1.1249"
       width="1.4147"
       y="-.06246"
       x="-.20737"
       id="e-2">
      <feGaussianBlur
         id="feGaussianBlur682"
         stdDeviation="4.55274" />
    </filter>
    <radialGradient
       xlink:href="#a"
       gradientUnits="userSpaceOnUse"
       gradientTransform="scale(1.1282 .88636)"
       r="20.851"
       cy="388.24"
       cx="351"
       id="c-8" />
    <radialGradient
       xlink:href="#a"
       gradientUnits="userSpaceOnUse"
       r="22.87"
       cy="345.93"
       cx="396.22"
       id="b-5" />
    <style
       id="style1107">.cls-1{fill:#231f20;}</style>
  </defs>
  <sodipodi:namedview
     pagecolor="#ffffff"
     bordercolor="#666666"
     borderopacity="1"
     objecttolerance="10"
     gridtolerance="10"
     guidetolerance="10"
     inkscape:pageopacity="0"
     inkscape:pageshadow="2"
     inkscape:window-width="936"
     inkscape:window-height="902"
     id="namedview10"
     showgrid="false"
     inkscape:zoom="0.24"
     inkscape:cx="923.38992"
     inkscape:cy="907.11884"
     inkscape:window-x="299"
     inkscape:window-y="40"
     inkscape:window-maximized="0"
     inkscape:current-layer="svg8" />
  <path
     id="path1113"
     d="m 1646.2848,1637.3491 c 11.3207,-12.8453 16.2132,-32.6722 19.4368,-49.4031 4.921,-25.2911 4.5015,-51.2587 4.4443,-76.9701 0,-6.6741 -10.3477,-8.6933 -11.2442,-1.6403 -2.1745,17.1511 -3.9676,34.2717 -5.4841,51.4943 -1.5352,17.4282 -5.3406,34.7741 -16.2132,48.4501 -5.9797,7.5452 -10.4906,8.2013 -19.2651,10.6821 -12.8178,3.5574 -25.4163,7.9965 -38.3486,11.0925 -26.3512,6.3151 -71.1759,12.302 -80.8273,-23.3741 -3.0807,-11.3587 1.3255,-15.7875 8.2878,-23.7634 7.583,-8.6955 15.8366,-16.6863 24.6724,-23.8867 6.5521,-5.3205 12.1218,-8.5704 20.3046,-10.1696 11.4923,-2.2452 28.6115,1.753 38.1486,-7.1763 8.3834,-7.8425 7.3056,-24.0711 8.4404,-34.6303 2.0219,-18.8221 3.7099,-37.6959 4.6542,-56.6205 1.7739,-35.5428 3.2712,-74.5814 -8.5834,-108.453 -10.4146,-29.7301 -28.6115,-55.1444 -47.4379,-79.2973 -9.642,-12.3636 -19.0744,-27.6182 -31.5298,-36.6603 -11.95,-8.6831 -21.8591,-19.5397 -30.9577,-31.5035 -19.2172,-25.2604 -37.0898,-49.6082 -59.3019,-72.1211 -8.6789,-8.7959 -15.4406,-18.9862 -23.0609,-28.8996 -10.0141,-13.0402 -20.6383,-25.6294 -28.9357,-40.0638 -7.6963,-13.3888 -11.5017,-28.4384 -18.2159,-42.3398 -7.935,-16.40267 -13.7239,-33.46175 -20.133,-50.60251 -12.5985,-33.66663 -31.1101,-65.04733 -49.45,-95.34123 -5.8369,-9.65711 -11.9597,-18.45319 -23.1563,-20.5035 -13.8003,-2.53203 -23.7569,7.00197 -34.5341,14.54715 -27.6576,19.31438 -57.8047,33.77947 -87.8466,48.07048 -28.7067,13.65536 -57.5663,18.5557 -87.7419,26.38793 -23.0607,5.97678 -45.6924,13.93219 -68.48623,20.97526 -31.978,9.88253 -65.4534,14.03449 -97.813,22.69737 -38.5014,10.30285 -76.9171,20.89299 -116.1053,27.73075 -20.028,3.5062 -40.3517,6.674 -60.6372,8.4167 -19.6943,1.6914 -39.49341,0.4818 -59.21624,0.5741 -2.96607,0 -5.89388,2.8091 -5.72233,6.151 0.95371,17.6946 -9.81377,29.0842 -16.21313,44.0825 -5.54107,12.9276 -6.67602,28.1002 -8.48814,42.0323 -4.11991,32.0162 -2.39375,64.1759 -6.80945,96.1715 -4.36797,31.6267 -8.23061,63.3455 -11.05357,95.1875 -3.06136,34.4765 -7.62972,69.9885 -7.01927,104.6292 0.57221,31.7806 4.00549,63.7555 2.03127,95.4951 -0.95371,14.7112 -2.36519,35.717 -8.40217,49.2081 -4.93063,11.0208 -16.75678,5.9359 -23.69976,14.8652 -15.95573,20.5036 -26.3416,50.9204 -33.31339,76.273 -3.73165,13.7264 -6.47687,27.7407 -8.21148,41.9193 -1.5736,12.5688 -2.43189,26.4803 -9.53701,37.1525 -5.24553,7.8526 -13.7431,12.4966 -20.29514,18.9348 -6.83815,6.7149 -16.48024,8.4474 -25.89338,8.7139 -12.39822,0.3486 -24.98725,-1.5069 -37.39515,-2.0504 -15.54556,-0.6663 -33.33229,1.2714 -48.45831,-2.7781 -23.06085,-6.151 -27.31441,-32.6517 -16.69949,-52.8066 9.16518,-17.4281 28.19185,-25.4757 45.77832,-28.0386 52.80716,-7.6682 61.24759,-76.0886 72.37745,-120.6015 2.6227,-10.508 21.84005,-58.4349 0.0667,-61.1516 -7.95397,-1.0252 -13.8861,10.0365 -17.57694,15.8081 -7.69391,12.2235 -13.71602,25.5707 -17.88214,39.6333 -2.34616,7.7502 -4.26313,15.2649 -7.85866,22.5539 -3.70995,7.4632 -8.51659,14.3523 -11.99772,21.8977 -3.11862,6.7969 -4.32027,14.1166 -6.26594,21.3339 -5.12143,19.0375 -14.90651,37.2239 -33.51353,43.539 -9.48953,3.2192 -20.15192,2.7987 -30.0134,3.8752 -11.73073,1.2816 -23.46135,2.7885 -35.28749,3.3625 -11.82604,0.5743 -22.56495,-0.4613 -33.30371,-6.2227 -3.13776,-1.6812 -5.57921,-2.4911 -7.62972,-6.1511 -3.09006,-5.6075 -0.11385,-4.4903 -1.76442,-7.863 -1.54502,-3.1781 -3.36657,-4.3672 -5.96071,-6.7867 l 1.46875,5.987 c 0.95369,-6.3868 -4.28215,-10.7746 -4.13916,-16.7409 0.1431,-5.6592 7.42946,-15.3778 10.78649,-19.3144 3.4208,-3.9624 7.50771,-7.1938 12.0454,-9.524 7.62984,-4.0494 16.14656,-6.6329 24.06237,-10.0159 7.05754,-3.0243 13.58088,-5.4847 21.33458,-4.9003 6.6283,0.5024 13.49502,3.4548 20.20918,2.0504 18.37806,-3.8854 19.86595,-32.1597 24.14808,-47.5477 9.35588,-33.6462 21.42043,-68.2048 26.06506,-103.0608 1.90741,-14.2909 0.65804,-28.387 -0.64847,-42.6576 -1.64865,-18.9243 -2.14249,-37.9444 -1.47832,-56.9381 1.09682,-36.1885 4.83534,-71.7622 3.62413,-108.0635 -1.21124,-36.3015 -3.08049,-72.3362 -5.94172,-108.3918 -2.68942,-33.8306 -4.57767,-68.9223 -12.17895,-102.0149 -6.23725,-27.18772 -14.83968,-56.93816 -30.77629,-79.45111 -17.062,-24.09141 -28.02016,-51.08448 -50.47067,-70.35766 -9.69923,-8.32441 -20.26646,-15.95165 -26.28431,-28.02826 -7.70613,-15.46979 -9.60397,-35.18386 -13.54274,-52.11978 -7.88724,-33.93325 -16.64246,-67.6615 -29.1361,-99.96468 -10.49081,-27.10578 -22.32641,-53.84219 -38.63495,-77.52371 -16.6328,-24.14282 -40.5615,-41.06853 -52.37807,-68.90195 -5.36939,-12.65076 -9.34644,-21.40577 -18.51162,-31.4525 -10.0903,-11.05127 -20.3713,-22.77934 -31.03392,-33.14377 -7.191083,-6.99169 -15.984193,-9.75959 -25.569033,-8.99076 -15.56466,1.24045 -30.51901,4.43903 -46.22666,2.51161 -15.04006,-1.84529 -34.4290903,-42.68815 -39.8366103,-59.47029 -3.4809997,-10.80532 1.27793,11.17432 0,0 -1.7644097,-15.921 -12.8942597,-19.4271 -25.9316397,-22.84092 -11.8546,-3.07553 -23.1657,-4.65422 -35.28737,-1.97852 -17.24316,3.82384 -30.518857,15.74672 -49.173587,11.43072 -14.9352,-3.45498 -27.40019,-14.20893 -42.25909,-18.45314 -14.16268,-3.99828 -28.85947,-1.60957 -42.91722,-5.37194 -13.56167,-3.63936 -24.71062,-13.05054 -34.9058,-22.89219 -11.57811,-11.16413 -22.35512,-22.14375 -30.51888,-36.53718 -8.44993,-14.82405 -14.83983,-30.75527 -20.02806,-47.15805 -2.30796,-7.24796 -4.93071,-14.84456 -6.04656,-22.44107 -1.96462,-13.32723 6.77136,-17.61246 16.81406,-20.73928 31.3104,-9.73916 62.88798,-18.68892 94.33194,-27.90522 29.44121,-8.63198 58.31013,-16.48482 84.19399,-34.63036 8.907727,-6.24335 17.433917,-13.46057 23.528147,-22.95369 7.26735,-11.27691 6.44706,-28.653643 17.26224,-36.557703 5.89402,-4.305759 14.15319,-6.345843 20.80052,-9.226548 6.83814,-2.973042 13.65726,-5.997287 20.56212,-8.775514 17.1192497,-6.868685 33.24656,-9.995435 51.50065,-10.723315 33.65663,-1.36348 67.322713,-2.45015 101.008053,-2.80899 30.76683,-0.32807 55.7064,5.86398 79.11059,28.469133 22.93687,22.153947 42.21136,49.136597 63.95614,72.705317 23.49006,25.46531 47.90511,49.86449 72.54913,74.01755 11.76887,11.53321 23.55675,23.03574 35.23023,34.66119 11.44464,11.36913 22.6222,25.51652 35.5259,34.85588 4.47296,3.24984 9.82322,4.40825 14.73496,6.69446 7.92537,3.69056 15.16402,9.09328 22.49808,13.9218 14.94477,9.84165 29.56518,20.43174 44.82463,29.7301 25.94106,15.72613 54.76238,24.60418 83.37373,32.8056 32.21649,9.15812 64.4998,18.02584 96.84989,26.60317 31.76821,8.45769 63.67941,18.35065 95.92461,24.46068 31.5298,5.97679 63.5746,6.15109 95.3715,3.07554 66.3405,-6.56112 131.80353,-19.47836 198.47773,-22.50253 33.7426,-1.50705 67.5517,-1.58902 101.3226,-1.85563 33.7711,-0.26661 68.0952,-2.38871 101.8856,-0.87132 33.3798,1.49671 67.4943,11.37947 100.2354,18.13528 32.7411,6.75595 63.527,16.60784 94.9517,27.89499 31.7017,11.37949 61.4673,14.24989 94.6661,15.1624 34.5528,0.94312 69.1823,1.83497 103.7353,1.52743 15.5077,-0.14349 30.9768,-1.42492 46.4651,-1.98886 16.7283,-0.61505 33.237,1.02522 49.9366,1.29183 26.4204,0.53309 52.7701,-3.11108 78.2045,-10.81566 41.4773,-12.7019 78.1188,-36.69095 112.5385,-64.00164 50.3562,-39.98182 103.2589,-78.13877 150.4678,-122.33403 17.8534,-16.71036 38.3299,-28.23331 62.5446,-28.97146 2.5845,-0.082 6.2469,-0.53307 8.6311,0.70739 -6.2087,-3.22934 -3.0329,-0.70739 -7.0384,2.13233 -3.4048,2.41947 -6.676,8.30396 -9.4322,11.62555 -10.8471,13.24524 -21.8624,26.33328 -33.0463,39.26411 -24.234,27.86426 -49.5932,54.64178 -75.0957,81.19383 -25.8169,26.91082 -51.634,55.20568 -80.3886,78.55914 -23.1083,18.77087 -52.4542,30.89876 -78.4334,44.29784 -14.3057,7.38119 -25.6455,12.753 -41.4771,14.97774 -19.6849,2.7679 -39.1023,7.3403 -58.8252,9.98514 -27.5148,3.69061 -55.3155,3.31129 -82.9066,6.57146 -16.0223,1.88624 -32.0924,3.33183 -48.1435,4.84894 -16.0509,1.51724 -33.6279,1.11754 -49.4978,4.45954 -14.2389,3.00377 -29.7941,15.72619 -38.7303,27.67966 -12.6844,16.90519 -0.2384,31.25756 7.2483,48.07054 21.6492,48.65477 42.1637,97.39149 47.2946,151.95124 3.0231,32.12897 -1.5545,61.78715 -5.1691,94.7773 -4.1964,38.32102 -9.27,77.01103 -9.9187,115.63967 -0.9537,54.46753 6.5999,112.76923 26.561,163.28973 11.8452,30.0068 28.9834,57.8199 46.5222,84.3001 7.3708,11.2811 15.4721,21.99 24.2436,32.0468 4.7336,5.3748 9.7251,10.4803 14.9542,15.2956 5.9702,5.4745 15.0402,10.2519 19.0741,17.51 7.0003,12.6712 0.2195,32.8058 -0.9537,46.5944 -1.5163,17.3664 -2.6701,34.8558 -3.6336,52.2223 -1.9551,35.5633 -0.1136,71.3008 -0.6104,106.9256 -0.5054,36.1376 -0.7437,72.0186 2.6611,108.0227 1.4495,15.2956 4.6253,31.7804 1.7071,47.0966 -2.7181,14.2292 -12.8657,24.8295 -18.0061,38.0748 -5.0548,13.0094 -9.604,27.4748 -23.9956,30.5298 -15.6887,3.3419 -33.8567,3.2394 -49.822,3.3008 -14.3058,0.06 -31.177,-0.3382 -44.6244,-6.4686 -6.781,-3.0756 -7.048,-8.2017 -11.4446,-13.4401 -4.1487,-4.9824 -9.9854,-5.4949 -12.6463,-11.6358 -8.8027,-20.2881 8.6694,-38.0954 23.6236,-46.3583 11.2728,-6.2331 23.2994,-9.2984 35.5164,-12.5072 7.1528,-1.8761 4.1199,-13.7475 -3.0425,-11.8612 -33.5897,8.8266 -80.9131,28.4792 -66.6073,75.6886 2.9087,9.6163 5.3789,6.8379 12.0262,12.7121 4.5015,3.9777 5.913,10.4774 10.8057,14.4652 11.7115,9.5344 30.6047,10.6209 44.6243,11.4205 20.8786,1.2256 41.8188,0.2332 62.5161,-2.9629 11.8356,-1.9272 20.1138,-9.2264 25.9315,-20.1957 3.2711,-6.1513 5.56,-12.8968 8.1638,-19.4169 3.9483,-9.8829 10.9008,-17.4279 14.8398,-27.3209 6.1991,-15.4802 4.6921,-32.0468 3.109,-48.3471 -4.5015,-46.4098 -4.2059,-92.2659 -3.6623,-138.8702 0.2672,-22.9638 -1.0396,-45.9483 -0.4958,-68.8814 0.5341,-22.4309 2.4034,-44.8617 4.1296,-67.2104 1.2875,-16.5977 7.7728,-37.019 1.7644,-53.3091 -5.7223,-15.3777 -22.8892,-23.7738 -33.3801,-35.0302 -27.7244,-29.5866 -50.9475,-68.533 -68.0286,-106.1567 -9.537,-20.9853 -15.431,-43.3034 -19.923,-66.0726 -4.3586,-22.1026 -10.7961,-46.3276 -9.6611,-68.9327 1.0587,-21.07759 -0.7726,-42.03211 0.7629,-63.29436 1.9074,-26.23428 4.7018,-52.39659 7.5439,-78.53849 4.9402,-45.40485 10.6149,-89.026 1.1922,-134.40022 -7.2864,-35.07131 -17.1671,-68.87122 -31.9209,-101.13347 -4.9498,-10.79513 -10.0998,-21.4569 -14.8874,-32.34422 -2.4988,-5.68981 -9.7852,-15.37773 -8.8982,-21.52882 0.7916,-5.53577 8.1733,-11.46131 11.9215,-14.76241 11.1297,-9.79045 20.7527,-14.2704 34.944,-15.46993 21.5921,-1.82476 43.1747,-3.88529 64.7477,-5.99718 21.7733,-2.13244 43.4894,-5.74107 65.3773,-6.25361 13.9506,-0.19024 27.8807,-1.21701 41.725,-3.07555 14.0577,-2.05033 28.0392,-4.55173 41.9635,-7.12493 9.785,-1.79405 20.4667,-2.05033 29.9561,-4.91065 18.1208,-5.55642 35.7644,-17.2229 52.569,-26.17261 16.4896,-8.78574 34.0187,-16.90518 49.4881,-27.67977 14.8302,-10.35425 28.0011,-24.04033 41.0097,-36.78314 37.7959,-36.9884 74.3136,-75.63748 109.8777,-115.09638 6.7714,-7.51796 13.4474,-15.12817 20.0279,-22.8306 6.994,-8.20143 13.937,-16.46776 20.8291,-24.799 6.6761,-8.09889 15.5934,-16.55655 20.8674,-25.81384 10.4907,-18.45319 -20.9817,-15.37764 -28.9644,-13.94244 -12.7513,2.25544 -25.5595,6.58165 -36.842,13.44004 -15.8031,9.60591 -28.4207,25.10656 -42.7932,36.90632 -34.515,28.31528 -69.707,55.69764 -104.5463,83.5517 -47.0752,37.64438 -94.2271,73.53578 -153.0809,85.84803 -38.3965,8.03746 -76.7834,2.16317 -115.5044,4.15203 -43.6991,2.24502 -87.4366,1.21993 -131.1644,0.11245 -22.6699,-0.57402 -45.8357,0.15377 -68.0667,-5.26944 -19.4843,-4.75676 -38.1486,-12.48655 -57.08,-19.23229 -40.5137,-14.42403 -82.9158,-20.50349 -124.6218,-29.54549 -41.7059,-9.04202 -82.7634,-6.98136 -125.0701,-6.66352 -42.6598,0.32794 -85.3864,0.1435 -128.0076,2.14252 -43.0795,2.05044 -85.72013,7.61707 -128.43713,13.73732 -42.7168,6.12035 -85.7198,12.97881 -128.8373,10.00578 -43.1176,-2.97304 -85.4149,-17.30503 -127.11123,-28.39736 -40.61863,-11.06161 -81.62845,-21.44656 -121.94199,-34.34329 -19.81811,-6.34592 -39.31212,-14.01414 -57.22285,-25.18859 -18.81682,-11.63568 -36.79438,-24.77846 -55.4394,-36.67044 -7.55357,-4.81837 -16.11787,-7.45301 -23.49018,-12.36366 -8.95536,-5.95626 -16.52781,-15.11105 -24.23381,-22.81007 -15.67275,-15.64415 -31.42498,-31.19263 -47.25669,-46.64542 -31.59657,-30.97045 -62.68765,-62.53558 -92.07159,-95.90504 -23.58546,-26.818554 -44.54808,-58.711676 -77.29872,-73.2692 -14.66813,-6.52009 -29.64147,-8.06808 -45.34912,-7.94505 -21.64937,0.16401 -43.298733,0.64586 -64.938423,1.31218 -20.80063,0.64585 -42.14477,0.19477 -62.83075,2.6142 -19.3510103,2.26559 -37.6718,11.13338 -55.53495,18.893975 -12.4555,5.412884 -27.56237,8.847247 -34.33368,22.625601 -3.4907,7.063439 -3.59553,15.316124 -6.97169,22.492334 -4.33938,9.22655 -11.559,16.4028 -19.350887,22.24624 -33.91414,25.42434 -75.79175,33.16439 -114.92267,44.83093 -20.29509,6.0485 -40.54245,12.36359 -60.91378,18.11477 -11.70209,3.30106 -24.72031,7.72983 -28.3826,21.70293 -4.12959,15.76723 5.3217,36.40395 10.49089,50.78716 6.25637,17.42795 14.15308,34.58938 24.7203,49.48514 17.8726,25.18854 46.68436,52.70429 77.39395,54.61106 10.14753,0.63556 19.85638,0.47161 29.81316,3.28055 10.49088,2.96271 19.41763,9.04202 29.25045,13.66555 15.25943,7.17617 31.62521,8.49873 47.227987,1.73259 10.71021,-4.65426 19.93265,-9.72899 31.8922,-9.50345 8.79326,0.16409 17.7106,2.51176 26.13179,5.23871 11.54005,3.74187 10.19528,12.01506 10.04259,23.69172 -0.18112,13.32729 2.64179,-25.56756 10.9295497,-14.88526 9.64208997,12.46616 39.8366103,59.47029 39.8366103,59.47029 -39.8366103,-59.47029 37.26024,-1.68026 46.22666,-2.51161 9.11749,-0.67663 -0.91549,10.45655 8.11625,12.50688 9.03164,2.05045 14.30563,11.04107 20.628833,17.66378 7.02883,7.42227 14.30574,14.49595 21.23929,22.07197 12.65575,13.89109 16.39426,33.35927 27.15219,48.98282 9.82333,14.26019 23.39463,24.78872 33.97142,38.40299 24.79656,31.95473 41.25766,72.00835 53.87538,111.03661 6.91443,21.4058 12.49365,43.27274 17.67233,65.22167 4.53968,19.22197 6.84772,41.13002 14.85882,59.11142 6.87628,15.4393 19.29374,24.77856 31.29145,35.26601 14.60129,12.76346 23.62347,28.27424 33.24656,45.37424 9.81366,17.42775 22.36454,32.02635 29.44108,51.25862 6.90499,18.75057 12.85613,38.6491 16.38495,58.43507 8.19236,46.0608 10.4907,94.193 12.89414,140.9512 2.38432,45.7841 3.0042,90.5023 0,136.2352 -1.50688,23.2407 -2.16492,46.5738 -0.77257,69.8451 1.35434,22.6566 4.44438,43.5597 -0.53394,66.0419 -4.97843,22.4821 -11.08226,44.8923 -17.26225,67.1283 -4.62563,16.659 -7.62973,34.9893 -13.63826,51.1359 -4.13903,11.1332 -10.3287,9.9134 -20.36173,8.3859 -7.4962,-1.138 -14.60141,-1.0253 -21.93547,1.2198 -11.55373,3.7344 -22.81938,8.4301 -33.69478,14.0449 -10.88188,5.5666 -18.89311,14.6703 -24.57729,26.0292 -6.27539,12.5379 -3.8148,16.6794 -0.56265,27.9566 0.51495,1.8145 0.95371,7.0837 5.25499,8.7957 2.5273,1.0253 -0.20982,-4.1928 -0.63903,-0.7482 -0.35281,2.8295 1.61187,7.1763 2.86122,9.5957 5.72231,10.672 20.80051,15.7363 31.29134,17.7866 23.52818,4.6032 50.39438,-2.1528 74.02744,-4.3261 23.07028,-2.1221 40.59961,-16.8026 50.01276,-39.2128 3.30944,-7.894 5.23584,-16.0748 7.39132,-24.3687 4.18686,-16.0951 15.25945,-28.5612 20.41914,-44.2669 3.09949,-9.3905 5.20714,-18.935 9.06021,-28.059 1.00141,-2.3682 14.22946,-30.3451 16.65191,-29.197 4.54923,2.1632 -13.45701,62.146 -15.11645,68.5842 -10.01403,39.0181 -18.28266,80.466 -61.13317,87.3654 -21.6875,3.4958 -43.12704,17.0896 -52.2254,39.0695 -8.73611,21.0978 -5.38852,47.5679 14.21034,60.0853 13.77168,8.7959 31.0912,7.2582 46.45548,7.7913 18.47348,0.6358 37.40474,3.3831 55.86863,2.6347 11.80702,-0.4818 24.15767,-3.3626 32.51226,-12.3022 8.5833,-9.1444 18.85485,-14.1574 24.72028,-26.1726 7.32449,-14.988 7.27679,-32.5287 10.00434,-48.8394 3.46537,-20.7871 9.22853,-41.0548 17.16697,-60.3723 3.67754,-8.8757 7.79392,-17.5336 12.33151,-25.9368 1.9074,-3.5268 3.81479,-8.7653 6.5806,-11.6051 4.05333,-4.2238 10.05218,-3.8546 14.8685,-6.0998 12.58904,-5.8536 14.11494,-22.5539 16.56596,-35.1326 8.27831,-42.4935 3.36658,-85.3971 2.50829,-128.3828 -0.46735,-23.3637 2.38432,-47.0246 4.19631,-70.2961 1.81211,-23.2715 3.8149,-46.5429 6.42817,-69.7119 2.61315,-23.169 5.87475,-46.061 8.68827,-69.1275 2.49873,-20.4521 1.64988,-40.7815 2.99465,-61.2746 1.29706,-19.8577 2.25076,-43.6622 9.93764,-61.9925 7.15293,-17.0587 18.40675,-29.8427 17.36721,-49.7001 l -5.7222,6.151 c 34.5912,-0.1538 67.79953,-0.9125 102.14273,-6.0692 35.9647,-5.3922 71.338,-13.5937 106.5683,-22.96377 35.0491,-9.31899 69.831,-17.58185 105.2711,-24.83994 20.5048,-4.20333 40.44703,-11.60506 60.46553,-17.83808 23.5663,-7.34022 47.1803,-12.10737 71.0804,-17.93036 31.8922,-7.77085 61.772,-23.57909 91.0702,-38.84396 14.8589,-7.61293 29.3112,-16.11112 43.2893,-25.45497 6.0465,-4.10061 11.7592,-9.35989 18.1204,-12.9376 13.8385,-7.84255 21.9356,2.16301 29.0216,14.00386 19.4272,32.32366 38.2632,65.46753 51.0429,101.49219 4.9847,14.45982 10.7453,28.59673 17.2527,42.33963 7.3151,15.1419 11.4445,31.3191 20.2282,45.7228 7.1054,11.6768 15.5742,22.308 23.9002,32.9799 9.2509,11.8613 16.8904,25.1885 27.8675,35.0813 23.1753,20.8828 40.3518,47.1582 59.302,72.1212 8.0685,10.6207 16.833,20.6264 27.1143,28.8279 14.4773,11.533 25.321,26.3778 36.8705,41.2632 21.22,27.3414 42.1065,57.4098 48.6872,93.1371 7.1242,38.6388 3.4239,81.1528 -0.123,120.0377 -0.8585,9.4417 -1.8503,18.8632 -2.9089,28.2743 -0.4577,4.1006 -0.2097,10.6926 -1.8406,14.2498 -3.0234,6.5715 -7.6298,5.1875 -13.047,5.5669 -11.5304,0.8099 -24.93,0.7994 -35.459,6.6327 -15.3357,8.5088 -30.0229,23.8969 -41.086,37.8598 -4.1106,5.1874 -8.9744,11.1231 -9.232,18.2686 -0.4579,12.5379 6.2468,27.2389 14.649,35.6863 20.6194,20.7187 59.4642,14.5983 84.2798,8.4064 12.961,-3.2395 25.6074,-7.7092 38.5205,-11.1746 11.5876,-3.0754 16.6234,-5.5256 24.5107,-16.4025 20.5525,-28.254 18.0061,-68.6252 22.2787,-102.2817 l -11.2443,-1.6402 c 0,22.8819 0.6296,46.1328 -3.1473,68.7379 -2.6609,15.9311 -6.5711,36.6704 -17.3861,48.9314 -5.0738,5.7617 3.0232,14.4755 8.0969,8.714 z"
     class="cls-1"
     inkscape:connector-curvature="0"
     style="fill:#231f20;stroke-width:0.98879945"
     sodipodi:nodetypes="cccccccccccccccccccccccccccccccccccccccccccccccccccccccccccccccccccccccccccccsccccccccccccccccccccccccccccccccccccccccccccccscccccccccccccccccccccccccccccccccccccccccccccccccccccccccccccccccccccccccccccccccccccccccccccscccsccccccccccccccccccccccccccccccccccccccccccccccccccccccccccccccccccccccccccccccccccccccccccccccccccccccccccccccccccccccccc" />
</svg>
