<?xml version='1.0' encoding='utf-8'?>
<svg xmlns="http://www.w3.org/2000/svg" id="Layer_1" data-name="Layer 1" width="664.57mm" height="671.67mm" viewBox="0 0 1883.81 1903.93"><defs><style>.cls-1{fill:#fff;}.cls-2{fill:#231f20;}</style></defs><title>rabbit-outline</title><path class="cls-1" d="M719.57,1607.85c37.51-11.15,67.95,6.11,64.66-2.48-7.4-19.38-.57-10.42-7.76-29.61-10.17-27.09-17.63-50.26-19.78-79.52-2.07-28.17.09-125.46,1.59-145.16,1.7-22.3,5-36.25,11.94-57.26,18.86-57,40.55-108.8,66.46-162.73,24-49.93,64.94-97.44,104.27-137.6,35.54-36.3,242.45-158.13,300.21-193.58,54.33-33.34,111.59-53.72,173.64-67.14,53.48-11.57,111.58-29.33,166.26-31,34-1.07,67.21,5.34,100.43,11.72,30.17,5.8,50-1.79,79.3-6.06,22.32-3.24,43.57-9.22,63.77-10,27.27-1.05,50.76-5,61-33.36,7.21-20,7.84-116.77,8-124.75.07-5,4-6.64,4.1-12.07.15-7.27,5.79-43.94,4.89-49.07-.56-3.2-15.11-5.91-17.41-6.58-13.19-3.85-26.73-6.44-39.94-10.26-58.41-16.9-105-57.39-150.92-95.79-25.38-21.2-116.91-94.46-119.91-97.63-1.82-1.92-16.73-22.45-17.2-28.61-1.09-14.37,3.85-28.53,17.18-35.27,13.77-7,21.16-1.12,33.81,3.57,15.82,5.86,33.13,4.83,49.49,8.31,18.66,4,36.69,9.44,55.62,12.52,13.38,2.18,28.3,10.09,30.82-2.21,2.36-11.53-21.22-43.44-27-56-8-17.31-14.16-34.8-20.81-52.59s-15.5-34-14.82-53.52c.21-6.07,4.43-35.71,5.07-36.9C1702.76-3,1861.09,105.6,1910.16,144.81c50.27,40.17,84.7,92.48,117.4,147,5.83,9.73,14.06,25.92,21.76,33.7,8.39,8.47,22.21,13.77,31.66,20.95,9.13,6.94,17.28,16.46,28.87,17,4.69.22,27.11,1.23,30.3,2,33.15,8.3,69.79,3,102.71,10.71,12.41,2.9,23.73,7.44,37,9.42a87.79,87.79,0,0,1,29.77,9.72c21.95,12.15,108.49,66.5,127.41,81.74,19.88,16,31.31,34,51.17,48.94,16.89,12.69,46.36,46.61,43.39,69.55-1.89,14.61-16.91,20.68-18,36.12-.2,2.88,3.43,5.89,3.52,8.93.26,9.12-2.64,23.92-5.36,32.64s-7,18.17-10.67,26.07c-1.17,2.51-5.75-2.59-6.84,2-1,4.34,1.49,8,2.81,12.14-16.67-7.83-13.71,7.3-10,19.19-15-11-10.24-9.31-28.74,1.77a278.43,278.43,0,0,1-44.62,21.62c-18.07,6.58-37.89,6.09-56.18,10.76-19.49,5-74.39,28.7-78.55,45.17-2,7.76.85,19.6-.26,28.08-.85,6.49-2.06,12.71-2.71,19.27-2.27,22.8-1.95,45.83-4.3,68.55-7.54,72.64-30.69,143.21-52.5,212.15-9.87,31.19-20.83,62.15-32.11,92.52-4.6,12.4-10.13,30.89-17.08,42.76-6.18,10.54-12.37,16.07-16.67,28.51-5.8,16.81-12.55,24.44-24.25,37.62-9.29,10.47-15.21,25.47-20.64,38.07-12,27.81-8.85,62.76-2.82,94,7,36.2,21,70.23,28.87,106.1,6.47,29.5,12.12,59,20.19,88.17,9.28,33.55,74.58,108.53,85,117.86,12,10.79,30.79,18.25,39,32.8,6.21,11,7.7,24.63,13.67,36.56,5.78,11.56,9.85,20.35-3.29,27.27-12.12,6.39-43.13,1.19-56.68.53-17.48-.85-34.78-3-52.13-4.72-14.74-1.5-48.67-2.52-59.32-24.63-5-23.12-20-44-30.26-64.59-12.6-25.26-33.57-43.74-46.44-68.66-5.32-10.3-11.87-17.71-17.7-26.89-5.18-8.17-40.26-79.41-48.1-84.47-5.37,29,11.91,67.51,16.31,96.49,4.6,30.27,18.78,54.68,38.44,77.74,9.06,10.62,17.92,21.3,30.07,28.45,10.82,6.37,19.24,8,25.45,19.52,5.26,9.73,10.31,13.43,16,24.19,3.55,6.67,6,24.51,1.05,30.21-23,26.35-78.83,8.38-113.38,4.84-21.56-2.21-53.34-4.31-73.73-16-11.44-6.57-17.87-17.26-17.89-28.91,0-10.46.76-11.08-3.06-20.77-5.13-13-10-25.58-14-39.25-14.32-49-26.3-95.74-51.76-140.18-12.34-21.55-18.3-40.82-23.91-65.72-3.15-14-8.26-26.45-12.86-40.54-2-6.18-2.1-14-5.34-19.62-4-6.91-12.17-18.87-29.59-38.85-1-1.17-29.38-39.16-30.87-39.89-44.07-21.69-60-56.55-65-56.74-7-.23-48.89,21.26-53.52,23.48-19.56,9.4-32.28,25.63-51.2,33-23.5,9.1-57.33,15.59-72.36,38.74s-14.53,53.6-24.47,78.27c-9,22.35-26.29,48.53-43.26,65.09-5.51,5.38-55,38.59-61.13,51.38-21,44.17-60,23.77-36.57,23.61,28.8-.19,58.14-.05,86.84,2,36.18,2.59,75.49,3.3,110.67,13.78,27.2,8.11,60.32,21.24,80,40.8,10.6,10.55,36.76,61.68,17,74.47-12,7.78-41.54,2.21-54.82,2-17.81-.32-35.66-.61-53.46-1.35-14.61-.61-33.48-.6-55.58-.22,1.57,1.55,3.14,3.13,4.69,4.81,43,46.74,33.52,51.79,17.1,57.88-9.53,3.54-53.52-.94-55.27-1.12-11.77-1.21-174.89-19.14-174.89-19.14-11-5.69-112,4.81-137.64,1.66-74.4-9.14-75.94,6.93-149.55-6.31-34.8-6.26-154.5-92.22-189.41-97.78-28.5-4.54-62.67-25.11-72.32-38.23C671.59,1698.44,657,1626.45,719.57,1607.85Z" transform="translate(-661.45 -8.69)"/><path class="cls-2" d="M723.16,1620.87c17.34-4.8,33.56-3.11,51-.42,5.61.86,11.27,1.8,16.48-1.25,7.94-4.64,8.12-12.87,5.47-20.55-.65-1.88-1.18-3.8-1.82-5.68-.24-.7-.86-4.3-.41-1.06-.35-2.48-.32-4.94-.75-7.45-1.49-8.63-5.38-16.81-8.28-25-7.35-20.81-13.25-42.18-14.72-64.29-1.74-26.3-.84-52.92-.39-79.25.42-24.84.12-50.1,3-74.81,2.48-21.35,9.7-41.75,16.73-61.94q11.58-33.26,25-65.82c17.31-42,35.46-84.51,61.23-122.06,22.43-32.68,49.18-65.13,78.57-91.84,13.8-12.54,29.58-22.89,46.49-34.33,49.29-33.33,100.15-64.36,151-95.27Q1186,849,1220.28,828.36c25.28-15.27,50.28-30.85,77.12-43.33,40.2-18.69,82.73-30.75,125.89-40.33,45.6-10.11,90.87-23.69,137.52-28.17a301.16,301.16,0,0,1,72.52,2c23.34,3.41,46.94,10.67,70.63,10.47,20.36-.17,40.37-5.52,60.39-8.64,22.29-3.47,43.94-8.42,66.5-9.83,31.57-2,62.06-14.59,69.21-48.78,5.3-25.36,5.27-52.33,6.05-78.12q.51-17,.73-34c0-2.87-.43-6.3.11-9.13.38-2-1,2.06,1.18-2.11s2.58-8.37,3-13.07c1.24-12.54,3.13-25,4.34-37.56.53-5.53,1.33-11.37-1.4-16.49-3.52-6.62-11.35-9.18-18.13-11-19.71-5.3-39.94-9.08-59.21-15.87s-37.48-16.67-54.67-27.76c-31.08-20-58.71-44.66-87.23-68.06-36.47-29.93-73.36-59.35-109.86-89.24-.41-.34-.8-.7-1.19-1.07-1.48-1.4,1.69,2.14.22.35-.79-1-1.51-2-2.24-3.05-3.78-5.27-8.9-11.36-11-17.55a15.56,15.56,0,0,1-.23-5.5,24.59,24.59,0,0,1,2.5-9.26c4.44-8.49,12.61-10.09,20.92-7,10.1,3.79,19.28,7.17,30.06,8.7,11.18,1.58,22.39,2.2,33.43,4.62,22,4.81,44,10,65.9,15,16.69,3.82,35.43-1.46,34.16-22.2-.89-14.53-11.07-28.83-18.37-40.87-9.88-16.32-17.07-33.08-23.77-51-7.11-19-18.7-39.7-20.4-60.13-.94-11.36,1.63-23.5,3.5-34.65,0-.24.89-4.77.88-4.78.51.17-2.78,5.66-1.84,3.62.11-.25,3.49-3.32-1.22.92.23-.21,2.4-1.62.21-.21s-.16-.24.46,0c2,.88-2.26.12-.8.1,1,0,2.08-.1,3.13,0l1.94.14c3.33.25-2.11-.38.07,0,1.93.36,3.85.78,5.75,1.27A126.59,126.59,0,0,1,1721,41.51a296,296,0,0,1,30.34,14.39c49.09,26,95.81,57.69,140,91.25,26.69,20.25,54,47.87,75.28,76.35,12.88,17.23,24.73,35.2,36.08,53.47,10.2,16.41,18.92,34.21,30.31,49.81,11.52,15.78,29.13,21.36,43.62,33.44,6.81,5.68,13.61,11.61,22.11,14.6,6.94,2.44,14.41,2.28,21.68,2.67,3.41.18,6.83.37,10.24.6,1.15.08,8.79,1,5.26.31,10.19,1.85,20.14,3.85,30.49,4.78,23.15,2.08,46.83.59,69.68,5.35,9.3,1.94,18.28,5.07,27.47,7.45,11.17,2.88,22.89,3.63,33.61,8.2,9.68,4.13,18.76,10.42,27.72,15.87q38,23.13,75.19,47.64c9.1,6,18.27,12,27,18.6,2.94,2.22-2-1.67.46.35,1.77,1.44,3.52,2.91,5.23,4.41,4.08,3.6,7.94,7.42,11.73,11.31,8,8.27,15.59,17,24.12,24.8,12.14,11.08,24.79,20.24,34.87,33.49,7.05,9.27,19.37,25.6,13,37.74-3.27,6.26-8.81,11-12,17.39a36,36,0,0,0-4,13.43c-.48,6,2.21,8.28,3.19,13.71,1.14,6.29-1.93,16-3.6,22.35a119.46,119.46,0,0,1-4.4,13.26c-1.14,2.9-2.82,10.23-4.88,12l9.55-4c1.63.12-5.7-.65-7.59-.22a15.16,15.16,0,0,0-9.66,7.43c-4.38,7.69-1.78,15.71,1,23.33l19.84-15.25c-10.57-4.49-23.75-6.67-30.5,5.21-5,8.83-2.09,20.18.63,29.24L2493.88,721c-10.36-7.65-19.19-12.38-31.41-5.22-14.62,8.57-28.65,17.52-44.36,24.13-17.59,7.4-35.81,8.56-54.36,11.82-11.53,2-22.39,5.84-33.18,10.31-20.41,8.45-48.93,19.25-61.26,39-7.9,12.62-2.6,28-4.55,41.89-2.79,19.91-3.8,39.71-4.78,59.77-3.93,80.38-29.61,157.65-53.8,233.77-11.89,37.43-25.37,74.31-38.72,111.23-2.76,7.62-5.67,15.13-9.88,22.09-3.91,6.47-8.84,12.3-12.35,19-3.74,7.17-5.71,15.06-9.62,22.14a95.13,95.13,0,0,1-12.14,16.52c-22.56,25.83-36.1,60.2-36.67,94.56-.63,38.11,9.86,75.43,20.91,111.53,11.78,38.49,19,77.7,28.51,116.76,3.24,13.35,6.45,26.31,12.69,38.59a250.75,250.75,0,0,0,18.39,29.7,700.44,700.44,0,0,0,46.46,58.95c4.83,5.54,9.65,11.22,15,16.31,9.24,8.87,21,14.35,30.64,22.66,12.55,10.81,13.55,28.09,20.05,42.5,1.24,2.74,2.85,5.41,3.91,8.23.26.7,1.23,3,1.16,3.93,0,.57-.38-1.5.14-1.84-3.39,2.22-8.7,2.47-13.4,2.55-13,.22-25.87-1.79-38.81-2.61-18.4-1.17-36.67-3.26-55-5-10.72-1-22-1.87-32-6.25-13.65-6-14.1-19.5-19.67-32-7.18-16.08-16.44-31.33-24.78-46.83s-19.68-28.64-30-42.62c-10.63-14.34-19-30.13-29.09-44.82a188,188,0,0,1-11.4-19.81c-10.06-19.18-19.79-38.64-31-57.19-3.93-6.51-7.91-13.08-14.11-17.64-6.58-4.84-18.53,0-19.84,8.07-3.27,20.32.52,40.19,5.63,59.9,2.39,9.23,5.07,18.38,7.34,27.64,2.5,10.2,3.67,20.66,6.42,30.79,5.11,18.84,14.18,36.51,25.62,52.26,11.59,16,24.74,32.62,41,44.06,6.61,4.65,15.27,7.18,21.36,12.45,3.35,2.89,5,7.09,7.39,10.72,3,4.55,6.58,8.68,9.54,13.26,3.37,5.22,6.06,11.47,5.37,17.94-.58,5.36-5,7.31-10.18,9.11-14.29,5-31.21,2.68-45.83.57-16.77-2.42-33.34-5.83-50.21-7.53-18.34-1.85-37.26-3.27-54.69-9.77-6.85-2.56-14-6.15-17.65-12.83-3.91-7.24-1.44-15.77-2.92-23.62-1.85-9.82-6.87-19.24-10.28-28.6-3.94-10.82-7.17-21.82-10.36-32.88-6.29-21.79-12.52-43.62-20.09-65s-16.51-42.52-27.58-62.42a223.32,223.32,0,0,1-22-56c-5.13-20.76-12.59-40.74-17.59-61.48-3.52-14.59-14.39-26.92-23.59-38.34q-4.35-5.4-8.87-10.66c-1.18-1.38-2.35-2.78-3.55-4.13,2.92,3.27,1.79,2.31,1.13,1.45-3.1-4-6.07-8-9.11-12-6.84-9-13.3-18.83-21-27.19-4.25-4.63-10.06-6.79-15.39-10a133.3,133.3,0,0,1-22-16.54c-9.11-8.46-16.48-18.13-24.42-27.61-6.59-7.86-14-9.89-23.8-6.66-12.44,4.09-24.41,10.34-36.15,16.08s-23.3,11.47-33.86,19.37c-7.25,5.43-14.24,11.3-22,15.94s-16.81,7.2-25.5,10.12c-16.87,5.67-34,11.79-48,23.11-15,12.17-22.71,30.17-27.41,48.52-5,19.33-7.37,39-16.38,57-9.21,18.48-21.06,35.93-35.76,50.48-.57.57-3.65,3-1.23,1.12-1.65,1.31-3.37,2.54-5.07,3.8-5.38,4-10.8,7.95-16.16,12-11.1,8.34-22.65,16.68-32.42,26.62-9.12,9.28-12.59,23.7-24.51,30a20.41,20.41,0,0,1-4.91,1.9c-2.92.8-.25.06-3.39.43s-1.05-1.15-.35.09c0,0-1.46-.26-1.51-.43l2.07.83q9.25,18-2.48,21.8c.85.88-2.16-.41.4-.09,10.9,1.32,22.95-.14,33.95,0,12.09.12,24.18.39,36.26.95,23.43,1.07,47,2.55,70.31,4.66,40.86,3.7,84.86,14.12,118.75,38.47,16.94,12.17,32.1,39.27,29.77,61.13-.07.63-1.53,1.57,0,.67a17.6,17.6,0,0,1-6.65,2c-8.85,1.21-18.27,0-27.11-.79-20.13-1.76-40.38-1.41-60.57-2.13-20.91-.74-41.78-.84-62.7-.5-11.63.19-17.91,14.68-9.55,23.05,9.22,9.24,18.33,19.19,25.71,30a51.68,51.68,0,0,1,5.8,10c-.77-2-.13.55.2,1.19,1.22,2.34-.63-.34-.05-.8-.59.47.06.54.34-1.19-.27,1.71,1.79-2.11.17-.25.34-.39.55-1.8,2.06-2-1.2.15-6.4,3.24-3.27,2-6.39,2.57-9,2.18-16.8,2.08-22.66-.29-45.24-3.21-67.74-5.67q-50.7-5.54-101.39-11.11l-36.5-4c-2.18-.24-4.89-1-7.09-.78-.7.07,9.85,3.15,4.52.94a22.79,22.79,0,0,0-3.4-1.2,55.92,55.92,0,0,0-9.09-1.18c-35.82-2.78-72.52,2.91-108.38,3.6-19.73.38-39.11-3-58.82-3.42-18.94-.44-37.72,1.91-56.63,2.07-19.55.17-41.6-.73-60.15-7.29a142.15,142.15,0,0,1-17.12-7.75c-8-4-15.76-8.34-23.52-12.74-35.13-19.9-69-42.08-105-60.56-12.77-6.57-25.52-12.28-39.6-15.16-20.85-4.27-47.07-15.28-61-32.2-17.13-20.87-27.2-64.7-6.75-87.74,6.33-7.12,14.69-11.39,23.67-14.2,16.53-5.18,9.47-31.26-7.18-26-22.2,7-40.35,21-49.05,42.94-7.43,18.75-6.59,40.12-1.67,59.4,4.48,17.55,12.74,36.88,26.38,49.3,19.81,18,46.24,30.06,72.31,35.31,14.35,2.89,25.66,9.65,39.18,17,19,10.34,37.62,21.53,56.24,32.59,18.22,10.83,36.41,21.75,55.13,31.7,14,7.44,28.32,14.74,44.07,17.4,24,4,47.69,5.85,71.95,4.33,23.75-1.49,47-1.71,70.72.95,38,4.25,77.06-1.77,115.17-2.65,7.33-.17,14.8-.43,22.1.37-2.2-.24-1.65-.1.15.11.32,0,.62.2.93.25-5.51-.86-.21.15,1,.39,1.61.33,3.27.43,4.9.63,9.92,1.16,19.86,2.18,29.79,3.27q53.6,5.88,107.2,11.75c24.47,2.67,49,6,73.69,6.41,13.4.23,29.13-1,39.11-11.32,12.22-12.6,4.13-29.94-4.42-42A267.75,267.75,0,0,0,1462,1819.2l-9.55,23.05c44.4-.72,88.83.71,133.12,3.4,15.6.95,35.71,1,45.63-13.38,8.57-12.41,6.2-29,2-42.58-4.25-13.73-10.66-27.51-19.22-39.1-10.75-14.55-27.64-24.62-43.65-32.41-43.82-21.3-90.16-27.86-138.29-30.88-24.67-1.55-49.29-3.15-74-3.46-12.43-.16-25.16-.76-37.58,0-5.61.34-11.23,1.37-15.28,5.58-12.14,12.62,3.16,25.79,16.05,26.2,13.22.42,25.94-6.07,35.1-15.28,6.44-6.48,9.83-14.07,14.73-21.53,1.11-1.7,7.45-7.58,11.15-10.77,11-9.47,22.83-17.92,34.48-26.56,28.69-21.26,51.35-54.72,62-88.78,6.2-19.83,7-41.87,16.57-60.55,8.59-16.73,25.11-24,42.09-30,19.25-6.76,36.85-12.6,53.31-25.13a228.63,228.63,0,0,1,37.83-23.53c11.53-5.7,23.22-10.74,35-15.78a28.1,28.1,0,0,0,3-.81c-.93,2.73-6.13-.66-7.89-1-2.86-.61-1.88-2.09-.75-.25a21.36,21.36,0,0,0,1.89,2.22c3.54,4.2,6.78,8.65,10.35,12.84a170.11,170.11,0,0,0,40.3,34.76q3.23,2,6.54,3.8c1.75,1,7.92,6.17,3.29,1.18.94,1,1.78,2.1,2.65,3.17,3.46,4.26,6.49,8.33,9.84,12.73,6.68,8.78,13.06,17.89,20.26,26.27,8.94,10.41,22.32,23.31,26.27,36.94,6.35,21.93,13,43.79,18.71,66s14.67,42.26,25.6,62.36c23,42.26,34,88.79,48.1,134.41,3.58,11.61,8,22.91,12.37,34.23,3.68,9.49,2.21,17.51,4.09,27.33,4,20.76,21.33,32.76,40.11,39.27,19,6.59,39.5,8.2,59.38,10.17,17.78,1.76,35.27,5.61,53,7.89,29.47,3.8,83.31,2.93,81.41-39.3-.91-20.3-13.16-36.45-24.7-52.33-5.26-7.24-12.35-11.79-20.16-15.88a87.09,87.09,0,0,1-24.66-18.94c-14.37-15.59-27.88-32.81-36.26-52.45-8.23-19.29-10.14-40.88-15.61-61-5-18.55-12.33-39.35-9.2-58.83l-19.84,8.07c-4.33-3.19-.76-.79-.43.22-.95-2.88.52.89,1.39,2.2,2.44,3.69,4.67,7.52,6.88,11.35,5.64,9.78,11,19.75,16.23,29.73,9.48,17.94,18.64,35,30,51.74,10.08,14.85,18.44,30.27,29.47,44.57a317.41,317.41,0,0,1,28,43.43c8.34,15.37,18.28,30.36,23.15,47.31,4.13,14.37,12.76,24.58,26.53,30.84,11.93,5.42,24.69,7.46,37.64,8.78,15.94,1.62,31.89,3.42,47.87,4.7,14.24,1.14,28.56,2.56,42.83,3.3,13.28.69,27.86.62,39-7.62,13.49-10,12.31-24.61,5.95-38.4-6.76-14.65-9-32-18.63-45.2-9.24-12.73-23.15-19.43-35.3-28.81-5.22-4-9.59-9.13-14-14a647.25,647.25,0,0,1-43.73-54.08,308.5,308.5,0,0,1-19.74-30.4c-6-10.87-8.55-20.7-11.7-33.49-9.64-39.05-16.59-78.48-28.36-117-11-35.9-22.32-72.85-20.86-110.83.66-17.32,5.81-32.75,13.15-48.3,7-14.87,18-25.45,27.35-38.7,8.86-12.6,12.37-27.66,21.16-40.36,9.61-13.88,15.39-29.2,20.92-45.06,26.29-75.3,53.66-150.42,72.62-228,9.58-39.2,16.2-79,18.05-119.3.91-19.86,3.25-39.26,5.07-59,.72-7.82-1.6-16-.32-23.74,0,.16-.58-.22.5-1.4.43-.47,2.9-3,4.28-4.16,16.44-14,40-23.6,60.48-29.81,16.42-5,33.81-4.92,50.43-9,17.35-4.24,34.18-12.72,49.72-21.36,3.62-2,7.2-4.08,10.71-6.27,1.11-.69,8.62-4.58,8.78-5.65.06-.45-4.77-.51-4.73-.25.17,1.06,7.53,5.41,8.19,5.89,9.69,7.16,23-4.67,19.84-15.25-.86-2.85-1.11-6.95-2.41-9.59.12.24,0-1.65,0-1.61,3.41,2.12-13.51,4.68-7.44,7.26,9.5,4,24.42-2.86,19.84-15.25q-.86-2.42-1.85-4.79-1.18-5.48-1.51,1.49l-8.07,6.21,1.19-.44h-7.18c9.81,1.54,16.29.62,21.34-8.9a148.31,148.31,0,0,0,12-31,136.71,136.71,0,0,0,4.49-27.25,27.66,27.66,0,0,0-2.36-13.66c-2.82-6.25-1,.14-.57-1.6.55-2.22,2.35-4.4,3.64-6.24,4.61-6.59,9.81-12.08,12.28-20,2.53-8.06,2-16.61-.13-24.7-4.48-16.78-15.49-31.78-26.79-44.63-12.17-13.84-27.47-24.14-40.17-37.46-12.15-12.74-24-25.39-38.24-35.8-22.36-16.31-46-31-69.47-45.69-22-13.83-45.06-31.35-70-39.36-10.14-3.25-20.82-4.21-31.08-7-11.36-3.12-22.43-6.58-34.12-8.3-23.37-3.45-47-2.47-70.48-5-15.39-1.63-30-4.74-45.56-5.52-6.4-.32-10.35-.52-15.87-4.4-7.79-5.47-14.5-12-22.77-16.94-7.41-4.38-15.79-8.07-21.53-14.69-6.41-7.38-10.79-16.68-15.65-25.1-10.82-18.72-22.38-37.1-34.49-55-24.1-35.67-51.49-69.59-85-96.9-19.21-15.67-39.49-30.11-59.87-44.18-24.72-17.07-49.94-33.49-75.94-48.57-21.48-12.46-44-25-67.78-32.41-15-4.66-39.83-7.6-45.43,12.26-3.12,11.08-3.83,23.75-5,35.17-2,19.84,5.49,37.73,12.65,55.76,8.49,21.35,15.11,43.81,25.73,64.26,6.84,13.16,16.4,25.05,22.1,38.81.65,1.58,1.78,5.65,2,5.81l0-.39q-.39,5.2,4.2-4.22c-.21-.44-1.59-.16-1.95-.45-2.18-1.74-8.19-2.05-11.06-2.71-6.33-1.44-12.77-2.36-19.12-3.73-11.59-2.5-23-5.6-34.6-8.27-12.32-2.84-24.67-3.9-37.17-5.49-21-2.66-39.22-17.33-60.43-8-17.95,7.92-27.6,26.36-27.08,45.62.52,18.92,16.44,37,30.52,48.58,40.37,33.07,81.36,65.38,121.39,98.86,32.91,27.52,66.53,55.39,105.32,74.31,20.62,10.06,41.94,16.5,64.16,21.92,8,2,16,4,24,6.12,9.17,2.46-1.8-.38.22-7.21-.59,2-.18,4.83-.37,6.95-1.09,12.67-1.52,26.92-4.5,39.27-.83,3.43-3.9,9.5-4.21,14.67-.19,3.19-.07,6.44-.12,9.64-.35,25.84-1,51.72-2.77,77.51-.8,11.34-1,20.51-3.79,30.63-3.87,14-14.51,21.2-28.16,24-7.3,1.52-14.75,1.67-22.18,2.09-11.68.65-23.28,2.63-34.76,4.8-22.39,4.23-44.92,8.77-67.48,12-23.21,3.32-44.93-2.41-67.68-6.24-23.76-4-47.83-7-72-6.29-48.66,1.46-96.23,14.3-143.33,25.47-44.1,10.46-87.76,20.25-129.84,37.54-32.29,13.26-62.17,30.2-92,48.22-48.41,29.28-96.92,58.39-144.93,88.32-44.15,27.53-90,54.58-130.25,87.77-10,8.26-18.73,18-27.56,27.44-16.15,17.35-31.57,35.35-46,54.19-28.34,37.13-48.18,78-66.78,120.6s-37.42,86.95-49.19,132.16c-7.21,27.68-7.44,56.41-8.12,84.81-.7,29.24-1.3,58.54-.55,87.78a251.91,251.91,0,0,0,6,50.14,300.74,300.74,0,0,0,9.06,30.83c1.84,5.32,3.84,10.57,5.75,15.86.81,2.25,1.66,4.48,2.33,6.77.24.8,1.38,6.4.92,3,.76,5.7.86,11.38,3.36,16.73l.58,1.57q3.26,10.81,11.58-13c.25.32-4-1-.88,0-2.6-.88-5.79-1-8.49-1.45-19.19-3.14-38-3.36-56.85,1.87C699.25,1599.46,706.35,1625.52,723.16,1620.87Z" transform="translate(-661.45 -8.69)"/></svg>