<?xml version="1.0" encoding="UTF-8" standalone="no"?>
<svg
   xmlns:dc="http://purl.org/dc/elements/1.1/"
   xmlns:cc="http://creativecommons.org/ns#"
   xmlns:rdf="http://www.w3.org/1999/02/22-rdf-syntax-ns#"
   xmlns:svg="http://www.w3.org/2000/svg"
   xmlns="http://www.w3.org/2000/svg"
   xmlns:sodipodi="http://sodipodi.sourceforge.net/DTD/sodipodi-0.dtd"
   xmlns:inkscape="http://www.inkscape.org/namespaces/inkscape"
   enable-background="new 0 0 841.9 595.3"
   version="1.1"
   viewBox="0 0 841.9 595.3"
   id="svg1257"
   sodipodi:docname="005.svg"
   inkscape:version="0.92.2 (5c3e80d, 2017-08-06)">
  <metadata
     id="metadata1263">
    <rdf:RDF>
      <cc:Work
         rdf:about="">
        <dc:format>image/svg+xml</dc:format>
        <dc:type
           rdf:resource="http://purl.org/dc/dcmitype/StillImage" />
        <dc:title></dc:title>
      </cc:Work>
    </rdf:RDF>
  </metadata>
  <defs
     id="defs1261" />
  <sodipodi:namedview
     pagecolor="#ffffff"
     bordercolor="#666666"
     borderopacity="1"
     objecttolerance="10"
     gridtolerance="10"
     guidetolerance="10"
     inkscape:pageopacity="0"
     inkscape:pageshadow="2"
     inkscape:window-width="1420"
     inkscape:window-height="845"
     id="namedview1259"
     showgrid="false"
     inkscape:zoom="0.39643878"
     inkscape:cx="642.0906"
     inkscape:cy="297.64999"
     inkscape:window-x="0"
     inkscape:window-y="0"
     inkscape:window-maximized="0"
     inkscape:current-layer="svg1257" />
  <path
     d="m 103.84896,33.262005 c 0.53584,3.357288 17.68016,2.098302 27.32377,6.714576 9.10774,4.616284 17.14424,23.501026 19.28723,30.215603 2.14299,6.714586 8.0365,13.429142 8.0365,13.429142 0,0 8.03629,48.680704 11.25094,62.949154 3.75031,14.26849 13.39403,48.68069 19.28733,52.87731 6.42913,4.1966 12.8581,7.5539 12.8581,7.5539 0,0 -26.78791,12.17018 -17.67996,33.15322 4.28598,9.23256 20.8947,16.78644 20.8947,16.78644 0,0 2.67877,-10.07185 6.42908,-13.42914 3.75042,-3.3573 9.64372,-5.4556 9.64372,-5.4556 0,0 0,20.98304 4.28598,28.53695 3.75031,7.13424 19.8231,20.56339 19.8231,20.56339 0,0 -19.28733,82.67325 4.82176,113.30849 24.10929,30.63526 57.86199,57.91325 58.93365,61.27052 0.53566,3.35729 -1.60733,66.72612 -10.71527,72.60138 -9.10784,5.87526 -36.96734,6.29492 -38.03889,16.36678 -1.60732,10.07186 15.00125,32.3139 15.00125,32.3139 0,0 -4.82176,-15.52745 3.21453,-23.08135 7.50063,-7.13425 12.85826,-8.39323 12.85826,-8.39323 0,0 -1.60732,6.71458 0.53567,12.58984 2.1432,6.29492 10.17949,11.75052 10.17949,11.75052 0,0 3.75031,-10.49153 3.75031,-15.10782 0,-5.03593 -0.53567,-7.5539 -0.53567,-7.5539 0,0 11.25083,2.09831 11.25083,8.81289 0,6.29493 1.07166,11.75052 1.07166,11.75052 0,0 8.57217,-7.97356 8.03629,-15.52747 -0.53578,-7.5539 -3.21444,-18.04542 -3.21444,-18.04542 0,0 9.10774,-5.87526 9.64362,-10.07187 1.07144,-4.19661 -1.07155,-7.13424 -1.07155,-7.13424 0,0 13.9297,7.13424 19.28733,10.49153 5.35774,3.77695 17.14434,4.61627 20.89466,2.0983 4.28619,-2.51796 12.32248,-15.52746 16.07279,-15.1078 3.75031,0.41965 24.10909,0 32.14559,3.35728 8.03629,3.3573 17.14423,-1.25898 27.85939,0.41967 11.25094,1.67865 42.32498,-5.87526 42.86086,-1.67865 0.53567,4.19661 15.00114,28.1173 12.32248,32.73357 -2.67887,4.61628 -13.9298,14.26848 -13.9298,19.30442 0,5.03593 5.8933,11.33084 5.8933,11.33084 0,0 3.21454,-10.07185 11.25093,-15.94711 8.0363,-5.87526 11.25104,-7.5539 11.25104,-7.5539 0,0 -1.60732,10.07186 -1.07154,14.26848 0.53566,4.19659 10.71516,15.10779 10.71516,15.10779 0,0 5.35763,-16.78644 7.50062,-19.72407 2.14299,-2.93763 5.8933,-8.39323 5.8933,-8.39323 0,0 4.28619,13.00951 10.71516,15.94713 6.96496,2.93762 23.57342,7.13423 23.57342,7.13423 0,0 -8.03629,-13.8488 -10.17928,-20.98304 -2.1432,-6.71459 -8.0365,-10.9112 -18.75167,-14.68815 -10.71526,-3.77694 -14.46536,-4.1966 -15.53712,-11.7505 -1.60711,-7.5539 0,-25.59933 0,-25.59933 0,0 99.11553,31.47459 130.72534,40.70712 31.60992,9.23254 108.22326,15.1078 123.22461,9.23254 15.00125,-5.87525 25.71641,-22.66169 16.60857,-24.34033 -9.10794,-1.67864 -102.32996,-41.96612 -117.33131,-56.23459 -15.00125,-14.68815 -85.72139,-86.03053 -116.25976,-120.02307 -30.53827,-33.99255 -84.64995,-75.53901 -110.36636,-83.0929 -25.71641,-7.97356 -40.71765,-14.68814 -42.32508,-23.50103 -1.60711,-8.81288 4.28619,-32.73357 -9.64361,-54.55594 -13.92981,-21.82238 -48.75395,-39.86779 -48.75395,-39.86779 0,0 26.78785,-6.29492 34.28847,-15.10781 7.50073,-8.39323 10.1795,-19.30441 3.75031,-18.88474 -6.42907,0.83932 -30.53816,11.7505 -41.7892,14.26847 l -11.25093,2.51796 c 0,0 15.00135,-18.04542 26.78795,-40.28744 12.32249,-22.661718 8.03651,-29.795943 3.21465,-27.277972 -4.82197,2.517951 -36.96745,39.448122 -42.86096,42.805412 -5.8933,3.3573 -14.46547,0 -14.46547,0 0,0 3.21453,-13.84879 17.14434,-31.474572 13.9298,-17.625757 14.46547,-36.090862 10.71516,-37.349848 -3.75031,-0.839316 -18.21579,25.179681 -23.03765,32.313906 -4.82185,6.714586 -21.43021,22.661724 -21.43021,22.661724 0,0 27.32352,-34.831881 26.25207,-45.743072 -1.07154,-11.33086 -4.82186,-17.206099 -8.03639,-13.848811 -3.21465,3.357278 -13.9297,33.153212 -17.68012,37.769486 -3.75031,4.616273 -12.32238,16.366787 -12.32238,16.366787 0,0 11.25094,-28.956612 8.57207,-43.225092 -2.67876,-14.688138 -9.64361,-29.795944 -15.53692,-30.215602 -5.35763,0 3.21454,32.313905 -0.53587,41.126794 -3.75031,8.812888 -12.85805,24.760004 -12.85805,24.760004 0,0 6.96474,-32.733566 0.53567,-41.546455 -5.8933,-9.232537 -19.82311,-18.884743 -23.57352,-16.366782 -4.28588,2.517971 13.9298,23.920685 12.85836,32.313905 -1.07155,8.812889 -11.25094,21.822373 -11.25094,21.822373 0,0 -6.42918,-41.126794 -21.43053,-59.17221 -15.00104,-18.045416 -23.57321,-20.5633868 -26.78785,-18.884743 -3.21459,1.678644 26.78785,32.313906 27.85961,43.644745 1.07144,11.33086 -3.21475,38.608825 -3.21475,38.608825 0,0 -10.71505,-39.86781 -34.28852,-57.073909 C 161.711,19.413184 125.8151,15.216579 125.27943,18.993515 c -1.07155,3.776957 36.96734,19.72409 43.93219,26.019008 6.42908,6.294897 23.57342,46.162716 23.57342,46.162716 0,0 -23.57342,-36.930189 -42.86075,-48.261029 C 131.7084,29.485048 102.77747,22.770472 103.84896,33.262005 Z"
     id="path1255"
     inkscape:connector-curvature="0"
     style="fill:none;stroke:#080000;stroke-width:4.74170113;stroke-opacity:1" />
</svg>
