<?xml version="1.0" encoding="UTF-8" standalone="no"?>
<svg
   xmlns:dc="http://purl.org/dc/elements/1.1/"
   xmlns:cc="http://creativecommons.org/ns#"
   xmlns:rdf="http://www.w3.org/1999/02/22-rdf-syntax-ns#"
   xmlns:svg="http://www.w3.org/2000/svg"
   xmlns="http://www.w3.org/2000/svg"
   xmlns:sodipodi="http://sodipodi.sourceforge.net/DTD/sodipodi-0.dtd"
   xmlns:inkscape="http://www.inkscape.org/namespaces/inkscape"
   enable-background="new 0 0 841.9 595.3"
   version="1.1"
   viewBox="0 0 841.9 595.3"
   id="svg1257"
   sodipodi:docname="006.svg"
   inkscape:version="0.92.2 (5c3e80d, 2017-08-06)">
  <metadata
     id="metadata1263">
    <rdf:RDF>
      <cc:Work
         rdf:about="">
        <dc:format>image/svg+xml</dc:format>
        <dc:type
           rdf:resource="http://purl.org/dc/dcmitype/StillImage" />
        <dc:title></dc:title>
      </cc:Work>
    </rdf:RDF>
  </metadata>
  <defs
     id="defs1261">
    <style
       id="style2070">.cls-1{fill:#fff;}.cls-2{fill:#231f20;}</style>
  </defs>
  <sodipodi:namedview
     pagecolor="#ffffff"
     bordercolor="#666666"
     borderopacity="1"
     objecttolerance="10"
     gridtolerance="10"
     guidetolerance="10"
     inkscape:pageopacity="0"
     inkscape:pageshadow="2"
     inkscape:window-width="1420"
     inkscape:window-height="845"
     id="namedview1259"
     showgrid="false"
     inkscape:zoom="0.39643878"
     inkscape:cx="642.0906"
     inkscape:cy="-5.0449152"
     inkscape:window-x="0"
     inkscape:window-y="0"
     inkscape:window-maximized="0"
     inkscape:current-layer="svg1257" />
  <g
     id="g2146"
     transform="matrix(1.078133,0,0,1,99.137459,6.2162059)"
     style="stroke:#0a0000;stroke-opacity:1;fill:none">
    <g
       id="g2100"
       style="stroke:#0a0000;stroke-opacity:1;fill:none">
      <g
         id="g2096"
         style="fill:none;stroke-width:2.90300012;stroke:#0a0000;stroke-opacity:1">
        <path
           id="path2090"
           d="M 33.968,191.28 C 22.869,197.0877 1.451,188.1661 1.451,188.1661"
           inkscape:connector-curvature="0"
           style="stroke:#0a0000;stroke-opacity:1;fill:none" />
        <path
           id="path2092"
           d="M 39.36,184.2 C 10.472,177.1751 3.364,147.704 3.364,147.704"
           inkscape:connector-curvature="0"
           style="stroke:#0a0000;stroke-opacity:1;fill:none" />
        <path
           id="path2094"
           d="M 45.488,200.51 C 21.653,198.5075 13.641,218.705 13.641,218.705"
           inkscape:connector-curvature="0"
           style="stroke:#0a0000;stroke-opacity:1;fill:none" />
      </g>
      <path
         id="path2098"
         d="m 405.84,273.83 c -23.814,9.8435 -56.824,17.758 -77.63,5.7636 0,0 -25.23,55.092 -39.871,68.616 -15.616,14.425 -31.051,24.733 -31.051,24.733 l -55.068,-1.7371 c 0,0 1.8882,10.837 -16.724,16.048 -15.123,-13.152 -11.704,-27.914 4.4887,-48.226 11.586,-14.533 71.357,-8.6032 71.357,-8.6032 l 15.327,-32.096 c -10.363,-10.602 -17.641,-10.373 -33.976,-22.004 l -11.273,36.19 c 0,0 -50.459,16.172 -71.718,37.431 -21.259,21.259 -42.518,0 -42.518,0 l 42.518,-42.518 42.518,-21.259 13.198,-38.176 c 0,0 -20.769,-27.329 -55.957,-39.044 -35.188,-11.715 -84.796,-7.8169 -84.796,-7.8169 0,0 -31.889,5.3148 -42.518,0 -10.63,-5.3148 4.0534,-24.666 4.0534,-24.666 0,0 40.616,-20.666 61.876,-41.926 21.259,-21.259 61.626,-60.964 61.626,-60.964 0,0 -26.673,-23.865 -5.4142,-45.124 21.2588,-21.259 30.907,-17.219 43.058,-6.1957 16.756,15.2 -6.3724,41.034 -0.17923,45.612 8.5996,-6.8368 8.5613,14.099 19.177,-22.212 10.643,-36.406 48.712,-56.286 70.913,-35.858 21.238,19.543 -5.6918,60.303 -5.6918,60.303 0,0 89.305,-45.227 154.51,-39.044 65.2,6.1833 79.722,21.259 106.3,63.777 26.574,42.518 -2.647,114.61 -2.647,114.61 0,0 49.725,26.801 39.751,72.671 -9.9739,45.87 -50.98,81.713 -82.991,97.072 -32.011,15.359 -128.92,46.506 -150.98,50.583 -22.823,4.2185 -89.912,26.429 -116.49,58.318 -26.574,31.889 2.8298,58.555 21.018,73.828 18.189,15.272 14.799,24.361 14.799,24.361 0,0 -42.472,-0.33221 -58.437,-14.807 -22.273,-20.194 -38.511,-59.806 -18.335,-96.576 20.176,-36.769 69.104,-68.632 122.02,-73.455 53.665,-4.8911 185.92,-63.956 211.46,-88.344 25.544,-24.389 -10.745,-64.482 -10.745,-64.482 l -36.382,9.72 c 0,0 7.1914,38.923 3.1283,43.883 -4.0632,4.9596 -34.577,33.585 -34.577,33.585 l -70.672,14.145 -29.2,7.2384 c 0,0 3.4267,-25.612 24.424,-40.037 20.998,-14.424 60.181,-7.7748 60.181,-7.7748 l -20.612,-36.358 c -31.887,-50.83 -34.009,-94.485 26.829,-124.57"
         inkscape:connector-curvature="0"
         style="stroke-width:3.54299998;stroke:#0a0000;stroke-opacity:1;fill:none" />
    </g>
    <path
       id="path2102"
       d="m 186.12,112.12 c -7.5087,0 -13.594,5.6606 -13.594,12.625 0,6.9644 6.085,12.594 13.594,12.594 7.5087,0 13.594,-5.6293 13.594,-12.594 0,-6.9644 -6.085,-12.625 -13.594,-12.625 z m -4.375,4.0625 c 0.42958,0.049 0.82013,0.22902 1.125,0.53125 1.2195,1.2089 0.74286,4.0518 -1.0625,6.375 -1.80536,2.3232 -4.2805,3.2402 -5.5,2.0312 -1.2195,-1.2089 -0.74284,-4.0831 1.0625,-6.4062 1.354,-1.7424 3.0863,-2.6783 4.375,-2.5312 z"
       inkscape:connector-curvature="0"
       style="stroke-width:0.126;stroke-linecap:round;stroke-linejoin:round;stroke:#0a0000;stroke-opacity:1;fill:none" />
    <g
       id="g2120"
       style="fill-rule:evenodd;stroke:#0a0000;stroke-opacity:1;fill:none">
      <g
         id="g2114"
         style="fill:none;stroke:#0a0000;stroke-opacity:1">
        <path
           id="path2104"
           d="m 150.93,208.18 c 38.147,-6.8738 43.907,-31.922 43.907,-31.922"
           inkscape:connector-curvature="0"
           style="stroke-width:3.19000006;stroke:#0a0000;stroke-opacity:1;fill:none" />
        <g
           id="g2112"
           style="stroke-width:2.90300012;stroke:#0a0000;stroke-opacity:1;fill:none">
          <path
             id="path2106"
             d="M 39.291,192.23 C 71.188,144.384 71.188,128.436 71.188,128.436"
             inkscape:connector-curvature="0"
             style="stroke:#0a0000;stroke-opacity:1;fill:none" />
          <path
             id="path2108"
             d="m 48.21,196.27 c 17.552,-9.3763 37.65,-11.6 56.652,-6.4178"
             inkscape:connector-curvature="0"
             style="stroke:#0a0000;stroke-opacity:1;fill:none" />
          <path
             id="path2110"
             d="m 51.179,187.68 c 13.848,-5.8074 34.778,-23.659 51.26,-28.534"
             inkscape:connector-curvature="0"
             style="stroke:#0a0000;stroke-opacity:1;fill:none" />
        </g>
      </g>
      <path
         id="path2116"
         d="m 35.346,177.85 c -14.882,11.478 -4.35,27.963 11.616,24.588 z"
         inkscape:connector-curvature="0"
         style="stroke-width:4.50099993;stroke:#0a0000;stroke-opacity:1;fill:none" />
      <path
         id="path2118"
         d="m 267.57,69.122 c 0,0 -46.812,-6.202 -46.812,-6.202 0,0 2.4414,-14.138 11.329,-27.413 8.9668,-13.393 14.383,-21.372 26.969,-23.994 12.587,-2.6216 18.307,3.7758 22.935,12.139 4.6284,8.3636 1.7264,12.911 -1.9896,23.937 -3.7159,11.026 -12.432,21.533 -12.432,21.533 z"
         inkscape:connector-curvature="0"
         style="fill:none;stroke-width:3.046;stroke:#0a0000;stroke-opacity:1" />
    </g>
  </g>
</svg>
