<?xml version="1.0" encoding="UTF-8" standalone="no"?>
<svg
   xmlns:dc="http://purl.org/dc/elements/1.1/"
   xmlns:cc="http://creativecommons.org/ns#"
   xmlns:rdf="http://www.w3.org/1999/02/22-rdf-syntax-ns#"
   xmlns:svg="http://www.w3.org/2000/svg"
   xmlns="http://www.w3.org/2000/svg"
   xmlns:sodipodi="http://sodipodi.sourceforge.net/DTD/sodipodi-0.dtd"
   xmlns:inkscape="http://www.inkscape.org/namespaces/inkscape"
   enable-background="new 0 0 841.9 595.3"
   version="1.1"
   viewBox="0 0 841.9 595.3"
   id="svg1257"
   sodipodi:docname="007.svg"
   inkscape:version="0.92.2 (5c3e80d, 2017-08-06)">
  <metadata
     id="metadata1263">
    <rdf:RDF>
      <cc:Work
         rdf:about="">
        <dc:format>image/svg+xml</dc:format>
        <dc:type
           rdf:resource="http://purl.org/dc/dcmitype/StillImage" />
        <dc:title></dc:title>
      </cc:Work>
    </rdf:RDF>
  </metadata>
  <defs
     id="defs1261">
    <style
       id="style2070">.cls-1{fill:#fff;}.cls-2{fill:#231f20;}</style>
    <style
       id="style2154"
       type="text/css">.fil0 {fill:#1F1A17}</style>
  </defs>
  <sodipodi:namedview
     pagecolor="#ffffff"
     bordercolor="#666666"
     borderopacity="1"
     objecttolerance="10"
     gridtolerance="10"
     guidetolerance="10"
     inkscape:pageopacity="0"
     inkscape:pageshadow="2"
     inkscape:window-width="1420"
     inkscape:window-height="845"
     id="namedview1259"
     showgrid="false"
     inkscape:zoom="0.39643878"
     inkscape:cx="642.0906"
     inkscape:cy="-5.0449152"
     inkscape:window-x="0"
     inkscape:window-y="0"
     inkscape:window-maximized="0"
     inkscape:current-layer="svg1257" />
  <g
     style="clip-rule:evenodd;fill-rule:evenodd;image-rendering:optimizeQuality;shape-rendering:geometricPrecision;text-rendering:geometricPrecision"
     id="g2168"
     transform="matrix(0.29391375,0,0,0.33098403,95.047356,-262.8108)">
    <path
       id="path2158"
       d="m 1229.8,908.65 c 21.042,-35.493 51.013,-63.659 87.007,-84.205 25.025,-18.352 48.749,-20.218 70.574,2.0069 32.114,39.48 42.938,91.539 28.069,158.78 -47.305,129.82 -105.42,117.49 -120.29,178.03 -1.5371,-25.93 0.5966,-51.862 -1.6034,-77.789 11.938,-17.513 4.8571,-37.561 -15.238,-59.343 17.407,6.048 32.579,15.202 48.921,24.457 -17.617,-17.774 -39.338,-34.214 -66.563,-47.714 -14.675,-4.0217 -5.3063,-20.186 25.662,-18.445 -6.1337,-11.882 -28.118,-11.082 -60.947,-1.6034 2.4137,-8.288 10.163,-17.646 23.257,-28.067 -2.9211,-5.608 -16.086,-3.7383 -36.088,2.4057 16.307,-12.832 17.394,-30.067 48.919,-38.494 -9.4251,-6.7486 -20.118,-9.6891 -31.677,-10.025 z m -506.42,64.559 c -20.709,17.571 -27.75,58.216 -0.40229,83.799 -27.201,39.499 -27.137,82.802 -8.4229,128.71 -76.891,-54.486 -132.07,-111.26 -165.2,-170.01 -22.8,-32.523 -14.526,-65.598 16.038,-100.24 31.262,-34.913 64.577,-34.251 99.041,-13.634 27.125,19.521 46.773,43.313 58.944,71.376 z m 111.47,20.849 c -60.485,-49.625 -123.7,-89.878 -191.66,-113.88 -43.497,-6.1486 -83.498,-5.1223 -106.66,30.471 -23.131,55.577 -17.813,110.69 25.261,165.2 39.669,47.576 82.375,94.483 129.52,133.52 -49.151,12.41 -80.984,35.073 -64.957,96.638 -19.81,94.851 -25.399,189.08 3.9931,281.8 -11.255,93.018 -82.021,119.71 -21.637,275.55 28.214,106.6 20.389,176.78 147.56,254.22 26.288,157.89 81.601,286.75 227.75,324.78 -32.279,21.651 -67.165,43.304 -105.86,64.958 -55.735,-6.752 -102.78,-7.4194 -137.13,0.8011 -36.094,14.703 -48.126,29.402 -7.2171,44.107 29.405,4.0091 56.671,9.0869 81.798,15.237 29.939,5.6137 55.601,2.672 76.986,-8.8217 132.86,2.7223 221.96,-12.311 190.06,-73.778 43.971,42.77 114.01,61.214 222.14,44.107 -23.523,42.503 -121.63,16.84 -137.93,50.522 62.818,5.6126 104.79,17.642 188.46,16.84 73.846,0.4686 124.23,-10.359 140.34,-37.691 58.263,-12.56 121.6,-21.312 188.42,-27.455 54.274,-40.379 70.058,-18.469 116.32,-233.98 32.805,-110.49 51.695,-224.45 67.363,-339.22 39.997,-249.22 -56.991,-387.76 -168.41,-541.31 -85.051,-102.44 -194.64,-215.9 -274.26,-269.45 -28.693,-23.232 -38.001,1.056 -68.967,-32.078 -6.8731,-11.917 12.683,-13.422 19.026,-20.131 53.672,-51.689 63.607,-121.18996 59.563,-196.38996 -13.161,-94.015 -54.79,-114.34 -110.67,-93.025 -59.986,34.209 -114.82,77.697 -158.78,140.74 -26.643,-23.921 -24.646,-41.966 -9.6274,-57.344 -34.752,23.525 -42.271,68.272 -104.25,70.571 -33.413,-2.3989 -64.688,0.007 -93.826,7.2171 -9.0251,-18.439 -19.853,-33.406 -32.078,-43.305 -3.6126,8.8891 -10.83,16.775 -20.849,22.455 -12.765,-14.763 -24.664,-25.858 -38.495,-35.286 9.2114,20.585 10.817,41.168 7.2171,61.75 -19.24,-4.2846 -33.675,-16.047 -43.304,-35.286 0.10286,19.481 1.5074,38.527 4.8114,56.938 z m 272.26,-37.749 c -28.966,12.83 -71.947,20.406 -126.54,23.626 -39.305,2.2823 -49.375,-8.8011 -51.258,-23.626 -5.4046,10.611 -14.48,17.554 -31.637,16.418 21.891,7.696 -4.0571,31.342 -36.842,57.265 71.917,-29.134 104.82,-23.997 118.14,31.235 12.681,-30.167 30.702,-40.046 54.062,-29.633 18.688,6.9406 35.775,7.4754 51.258,1.6011 -14.715,-4.8057 -22.926,-11.347 -21.624,-20.423 25.365,7.944 41.917,3.4046 54.462,-6.808 -31.101,-1.0297 -62.202,-7.9051 -93.306,-16.418 37.776,-2.5703 66.878,-12.515 83.295,-33.238 z m -82.094,414.47 c -19.414,-49.967 -22.113,-102.21 -18.021,-155.38 16.694,48.738 23.752,100.23 18.021,155.38 z m -164.82,-126.89 c -4.96,1.1771 -9.6137,9.3977 -10.359,18.302 -0.744,8.904 2.6949,15.207 7.6537,14.031 4.96,-1.1771 9.6126,-9.3977 10.358,-18.302 0.74514,-8.904 -2.6937,-15.206 -7.6526,-14.031 z m 280.56,-25.432 c -2.7406,0.6503 -5.3131,5.1954 -5.7246,10.119 -0.4137,4.9223 1.488,8.4057 4.2297,7.7566 2.7417,-0.6503 5.3154,-5.1966 5.7269,-10.119 0.4114,-4.9223 -1.4891,-8.4057 -4.232,-7.7566 z m 23.734,-2.3714 c 2.7417,0.6503 5.3143,5.1954 5.7257,10.118 0.4126,4.9223 -1.4891,8.4069 -4.2297,7.7566 -2.7417,-0.6503 -5.3154,-5.1954 -5.7269,-10.118 -0.4114,-4.9223 1.4891,-8.4069 4.2309,-7.7566 z m 12.696,16.138 c -2.9371,-21.491 -11.746,-34.439 -26.43,-38.845 -12.114,-2.6366 -19.121,5.9737 -21.625,30.034 3.4903,20.27 8.3566,37.562 26.831,42.849 21.259,4.536 26.664,-8.6777 21.224,-34.039 z m 2.0023,-28.833 c -20.59,-36.507 -38.009,-36.24 -53.261,-10.813 -9.3566,17.879 -13.099,39.498 3.2034,74.486 13.081,15.352 29.499,22.694 53.261,12.414 14.375,-8.0651 9.1326,-38.103 -3.2034,-76.087 z m -297.54,40.446 c -8.7394,-29.504 -21.288,-31.104 -33.238,-20.023 -9.5097,13.281 -12.379,41.979 -8.0091,67.678 5.1737,16.953 29.667,13.481 38.043,-3.2034 5.2743,-14.818 5.4069,-29.635 3.2034,-44.451 z m 14.817,-4.8046 c -17.954,-37.912 -33.171,-42.984 -46.854,-29.634 -17.235,14.583 -28.815,39.61 -23.626,77.689 2.4514,26.914 13.833,40.095 34.439,36.041 36.653,-14.418 40.051,-47.21 36.041,-84.096 z m 198.03,240.67 c -20.559,9.6114 -35.91,22.695 -43.65,40.847 19.355,-22.025 32.704,-2.8034 43.65,-40.847 z m -111.73,2.0331 c 23.266,10.736 48.937,28.125 43.65,40.846 -19.355,-22.025 -32.704,-2.8023 -43.65,-40.846 z m 60.67,76.056 c 17.201,35.239 53.742,51.655 101.92,48.455 -21.002,6.6869 -49.202,5.264 -51.086,8.4354 -24.915,5.8514 -19.279,10.465 -45.024,10.986 -14.776,0.9371 -31.243,-4.0366 -33.736,-6.6766 -22.993,-9.0549 -44.184,11.726 -71.183,4.8754 47.525,-10.343 84.703,-29.031 99.113,-66.075 z m 185.56,20.069 c -74.125,23.161 -120.41,71.551 -184.84,78.594 -60.834,7.0297 -128.42,-37.026 -194.87,-71.37 72.467,54.523 140.38,93.862 191.66,89.013 53.778,7.7943 114.87,-51.951 188.05,-96.237 z m -599.44,265.45 c 9.1211,139.3 69.074,263.41 228.28,270.52 -91.335,28.359 -78.297,105.02 -4.2731,200.49 96.585,122.2 243.1,181.63 211.18,31.539 -20.326,-89.725 -46.171,-178.12 -90.886,-263.56 -38.842,24.902 -71.99,13.496 -99.438,-34.218 -67.347,-9.0914 -93.171,-52.613 -102.11,-110.13 -64.408,-15.526 -108.25,-50.63 -142.75,-94.635 z m 366.37,607.63 c 22.959,9.7886 45.918,17.262 68.879,21.358 13.813,41.266 -0.1303,72.511 -113.2,75.286 -40.245,-5.1611 -79.712,-4.0949 -118.54,2.136 -41.718,3.6709 -71.698,-8.4411 -88.634,-24.027 152,10.502 150.93,-12.993 251.49,-74.752 z m 460.52,60.602 c -2.4023,-10.056 -6.9406,-15.839 -13.615,-17.353 0.888,21.535 -4.6297,33.103 -16.553,34.706 -7.3886,-3.7349 -7.9223,-17.263 -5.3394,-35.24 -11.746,7.2971 -19.222,18.865 -22.425,34.706 -0.8903,-10.145 -0.1783,-19.755 -2.6697,-30.434 -8.9006,5.3394 -15.664,12.815 -20.29,22.425 -2.936,-6.4069 -2.1349,-14.95 -8.8091,-19.222 -8.008,47.743 -92.104,53.703 -156.18,73.15 73.771,13.018 147.1,14.043 223.72,0 67.047,-17.92 69.601,-49.694 35.24,-95.041 0.6229,13.617 -3.7394,24.385 -13.081,32.303 z m -387.22,-708.6 c -34.165,14.395 -35.229,291.38 -1.8126,447.75 -49.815,-140.4 -75.998,-291.44 -94.629,-445.88 -14.621,-16.117 -32.944,-14.654 -53.799,-1.1691 -20.259,-25.454 -44.949,-33.817 -76.115,-17.207 6.5714,-21.117 8.2709,-34.93 -0.74514,-32.673 l -36.144,-1.8789 c -16.63,-5.136 31.008,-27.8 46.512,-41.701 l -89.817,-4.8126 c -23.367,-8.088 19.123,-11.111 57.739,-14.434 -177.47,-10.464 -181.27,-37.311 -168.41,-161.99 47.231,51.63 100.7,68.203 160.39,49.72 -110.83,-40.463 -140.15,-115.2 -113.88,-213.32 13.162,36.958 33.722,61.889 59.344,78.59 l -19.247,14.435 39.514,0.8743 c -35.776,12.249 -57.162,23.624 -38.494,35.869 50.643,41.729 99.285,56.833 152.95,45.055 -26.978,-43.354 -22.943,-72.272 -4.8114,-94.63 6.3977,63.384 33.506,95.696 85.006,91.422 -0.65486,6.7806 -3.5223,13.247 -9.624,19.247 28.264,5.3966 54.21804,-1.2137 78.59104,-16.039 80.88,12.893 129.52,-20.911 142.74,-106 20.314,20.901 29.591,46.997 32.799,85.002 60.496,10.066 92.385,-80.17 122.63,-196.99 3.704,22.304 0.9794,49.965 -4.6629,80.057 22.658,7.5371 27.969,14.299 5.384,20.266 -22.307,44.814 -45.618,82.365 -72.598,128.73 -15.125,17.43 25.505,42.202 76.837,-6.2549 49.81,-52.797 92.339,-109.51 121.9,-173.22 39.761,-91.691 75.531,-103.53 109.06,-70.57 2.0914,9.0903 -1.4629,17.01 -2.4857,26.097 l 23.336,-0.4354 c -6.592,50.077 -10.247,67.022 22.455,83.402 -8.3543,5.5474 -19.143,8.6606 -35.286,6.4149 10.679,16.536 28.318,28.009 56.136,32.078 -21.326,25.541 -49.661,37.838 -85.006,36.889 10.911,20.743 31.43,36.68 64.155,46.513 -44.721,0.944 -86.616,4.0057 -125.1,9.6229 37.739,4.1783 74.482,10.351 110.67,17.642 -112.11,4.1829 -202.16,19.099 -256.62,51.325 -63.059,44.897 -91.647,103.82 -152.37,153.97 l -16.039,-28.87 c -70.315,82.747 -66.666,69.143 -110.46,67.098 z m 69.566,167.87 c 11.53,36.207 25.134,23.651 22.703,0.5029 3.6286,-18.184 -0.4903,-41.341 13.378,-49.419 -12.765,114.11 36.337,81.053 31.985,51.781 5.3211,-44.128 9.848,-49.715 24.151,-59.8 -10.93,25.842 -15.848,67.901 -1.5177,69.71 21.21,-3.736 16.522,-26.295 29.99,-46.05 8.2743,-21.577 19.934,-37.35 35.683,-46.114 36.461,-4.0251 45.555,-24.472 39.301,-54.131 -6.7943,-21.367 -50.363,-27.519 -119.09,-23.259 -53.6,11.634 -84.941,38.269 -89.419,83.003 1.1909,25.752 3.0537,51.25 12.84,73.778 z m -351.17,-88.08 c -7.6971,31.287 -16.497,38.782 -39.142,35.346 -21.128,-11.083 -25.171,-26.322 -17.528,-44.403 -12.373,19.493 -32.235,12.779 -55.504,-5.8423 -26.608,-18.685 -12.001,-30.758 43.819,-36.224 44.695,-3.784 88.223,16.053 133.21,12.27 47.557,1.7691 86.398,30.851 116.85,87.054 9.2229,18.381 15.891,36.929 13.438,56.088 -2.264,24.376 -30.771,-25.318 -46.157,-37.976 9.5417,26.096 31.917,53.943 28.629,78.29 -11.503,12.809 -35.834,-24.538 -53.752,-36.808 6.6217,14.022 30.741,34.459 19.865,42.066 -17.929,9.6023 -48.688,-23.37 -73.032,-35.055 20.563,31.318 26.298,46.11 -0.584,24.538 -66.202,-57.239 -62.158,-54.307 -70.114,-139.34 z m 466.24,179.66 c -55.803,17.177 -106.6,45.381 -150.74,88.223 -6.9451,-18.502 -3.7337,-37.005 6.4263,-55.504 -13.802,4.848 -27.287,11.907 -40.313,22.201 -4.3257,-23.567 7.2697,-47.131 23.954,-70.695 -9.736,6.4206 -19.473,8.1726 -29.213,5.2583 7.0274,-25.701 22.998,-48.681 47.909,-68.942 4.4263,22.569 18.014,33.765 44.987,28.335 27.021,11.224 53.41,10.441 78.875,-7.8857 22.407,-8.7417 37.16,-25.561 45.571,-49.078 81.39,-25.702 142.88,-73.519 175.28,-153.66 l 49.662,1.1691 -87.638,-31.551 c 41.595,-7.3646 86.168,-1.5474 133.21,15.191 -15.28,-15.879 -33.416,-28.904 -52.584,-40.897 45.376,9.56 84.689,26.505 112.18,57.841 -4.9451,-18.789 -12.2,-35.733 -21.033,-51.415 21.618,13.587 43.234,29.072 64.853,47.325 -7.504,-16.69 -18.217,-31.599 -32.718,-44.403 35.551,5.5497 66.285,16.286 91.728,32.719 0.4834,-15.32 -7.1383,-28.879 -24.539,-40.314 15.582,-2.768 33.304,-0.7246 51.999,3.5063 -11.015,-22.519 -3.7086,-34.102 30.382,-28.629 17.007,18.119 28.936,39.93 37.392,64.267 -14.195,-11.191 -29.24,-18.981 -44.987,-23.954 28.696,25.609 43.493,49.953 37.976,72.448 -8.2914,-24.025 -28.349,-27.731 -53.751,-22.202 20.513,16.184 31.243,35.443 24.538,60.178 -18.217,-18.361 -33.969,-27.56 -46.741,-25.706 6.1657,11.601 10.376,24.043 11.102,37.976 -11.397,-16.888 -24.641,-31.009 -39.145,-43.234 13.698,29.648 20.753,56.231 4.0891,71.863 -74.814,99.728 -181.87,144.73 -313.46,154.25 -16.128,1.3943 -39.661,-8.4686 -70.401,-25.125 -12.008,28.128 -59.594,41.675 -89.391,62.514 5.2891,-14.022 13.809,-28.045 24.538,-42.066 z m 456.89,-119.77 c -133.02,123.67 -281.42,156.77 -499.54,181.7 -43.527,40.094 -80.334,82.987 -105.17,130.87 32.131,-39.832 70.695,-61.448 112.18,-74.784 -38.608,23.514 -67.723,53.993 -82.965,94.649 22.789,-27.511 41.873,-35.592 58.425,-30.382 -27.422,30.215 -42.638,64.839 -42.066,105.17 29.603,-20.235 59.207,-23.355 88.807,-18.697 l -29.213,52.583 c 29.889,-13.183 56.96,-14.034 80.627,0 -21.656,13.79 -38.693,32.194 -45.571,60.763 19.454,-17.135 48.03,-26.968 79.159,-34.758 -23.814,24.375 -41.374,48.169 -23.071,68.645 28.413,-29.224 54.95,-49.875 72.448,-29.213 -14.802,12.426 -23.731,24.573 -22.202,36.223 17.239,-14.064 34.962,-24.482 53.752,-26.875 10.12,-1.9417 15.574,0.01 16.359,5.8423 0.496,20.501 10.907,-10.906 16.359,-16.359 5.8434,2.7269 12.851,23.241 17.528,8.1794 l 3.5051,-9.3474 c 17.234,3.9211 27.167,20.621 35.056,40.897 l 4.6743,-35.055 49.077,38.561 c 14.343,-12.493 3.5394,-28.414 -16.359,-45.573 22.042,-17.311 50.038,-13.784 82.965,7.0114 -24.47,-28.47 -51.49,-55.662 -80.627,-81.795 26.487,5.0629 89.134,49.785 79.458,15.19 -30.953,-40.126 -69.176,-70.455 -118.02,-86.47 28.045,-9.8377 105.66,29.607 84.134,-33.887 22.981,5.8434 89.704,65.926 68.942,17.528 -13.001,-19.718 -28.289,-37.149 -44.403,-53.752 28.482,6.6514 87.641,43.286 37.392,-19.864 11.296,0.3886 45.047,43.062 33.887,1.168 -4.2411,-14.654 -13.295,-26.631 -24.538,-37.392 33.072,12.43 45.926,5.4183 38.561,-21.033 -11.837,-42.695 -35.717,-73.344 -67.774,-95.818 24.149,-3.1166 82.71,34.885 72.447,-9.3474 -4.7646,-20.545 -45.803,-64.218 -3.5051,-59.594 25.65,11.966 42.102,13.712 25.707,-21.033 -3.7989,-7.1589 -5.7429,-15.242 -6.4274,-23.955 z"
       class="fil0"
       inkscape:connector-curvature="0"
       style="fill:#1f1a17" />
  </g>
</svg>
