<svg xmlns="http://www.w3.org/2000/svg" viewBox="0 0 388.77 300"><defs><style>.cls-1{fill:#fff;}</style></defs>
<title>Ресурс 1</title><g id="Слой_2" data-name="Слой 2">
<g id="Слой_1-2" data-name="Слой 1">
	<path d="M388.77,128.29v13c-.24,1-.54,2-.72,3-.94,5.4-1.37,11-4.58,16.17l-8.7-16.6c-.79.68-.89,1-.85,1.27.1.86.23,1.71.4,2.56,2.32,11.65,3,23.35.15,35-3,12.43-7.7,24.06-17.6,32.82-.76.67-2,.82-3,1.21a11.08,11.08,0,0,1-1-2.86c-.12-3.37,0-6.74,0-9.92-1.52,3.72-2.85,7.69-4.7,11.4-4.13,8.34-10.4,15.07-16.92,21.55-7.72,7.66-16.11,14.74-21,24.8a9.26,9.26,0,0,1-2.44,3c-.75.61-1.89.75-3.46,1.33,1.13-4.19,2-7.54,2.95-10.89l-.53-.2L295,271.19V257.13c-9.36,10.86-15.47,22.5-11,37.92-1.35-.82-2.31-1.12-2.81-1.76-2.78-3.56-5.44-7.21-8.16-10.8-.55-.74-1.06-1.69-1.82-2.05-4.69-2.18-8.12-5.59-10.88-11.19-2.08,5.23-3.85,9.69-5.62,14.16l-1.25,0c-.53-3.3-1.07-6.61-1.68-10.35-4.12,7.86-6.89,15.6-6.7,24.49a15.78,15.78,0,0,1-4.64-4.51A80.15,80.15,0,0,1,230,265.69a26.82,26.82,0,0,0-1.7-4.42l-1.32.26c-2,5.81,1.17,11.76.17,18.38-5.28-3.59-6.11-9.77-10.26-13.58q2.35,7.31,4.7,14.61l-.49.67c-1.07-.73-2.47-1.23-3.14-2.22-3.87-5.77-7.57-11.65-11.33-17.5l-.58.1,5.25,16.1c-2.42-1.16-4.27-1.67-5.66-2.77-7.35-5.89-12.14-13.63-15.58-22.28a16.68,16.68,0,0,0-.88-1.67l-1.19.3,3,22.1c-6.5-5.43-10.14-12-12.78-18.87s-4.29-14.44-6.35-21.65L168,241.68c-5-20.77-.28-38,15.46-51.57-3-5.16-6.47-6.24-12.08-4.22-7.11,2.56-14.73,3.7-22.65,5.58,1.25,4.81,2.48,9.92,3.92,15,2.71,9.53,5.57,19,8.27,28.54a14.74,14.74,0,0,1,.05,3.82l-.64,0c-5.66-17.14-11.32-34.29-17.18-52.06-3.18,2-5.63,3.76-8.24,5.22a15.32,15.32,0,0,1-3.78,1,15.31,15.31,0,0,1-.48-3.57c.3-2.9,1.17-5.76,1.21-8.64.06-4.37,1-9.54-.94-13-3.7-6.53-9.16-12.08-13.74-17.85-3.22,1.3-3.59,2.61-2.14,4.8,1.58,2.4,3.65,4.91,4,7.59A96.79,96.79,0,0,0,139.19,209c10.69,13.58,19.24,28.39,23.06,45.5a52.49,52.49,0,0,1,.62,7.23,4,4,0,0,1-1.54-2.38c-5.91-20-14.83-38.39-29-53.93a58.5,58.5,0,0,1-5.05-5.88,64.9,64.9,0,0,1-10.36-25.6c-.67-3.62-3-5.43-5.84-7.38,1,6.81,3.45,12.68,6.23,18.7,9.51,20.65,18.27,41.65,27,62.64,1.91,4.59,3.67,9.66,3.7,14.53,0,7.3-3.33,14.43-1.89,22.34-6.71-2.53-10.82-8.5-16.85-12.24-.38,6.84-.74,13.36-1.1,19.89a2.07,2.07,0,0,1-.67-1.48c-1.24-14-2.24-28-3.78-41.91-1.93-17.54-5.52-34.74-13.06-50.84-8.59-18.36-17.36-36.62-26.07-54.92-.12-.25-.45-.4-.74-.65l-9.23,5.68a149.9,149.9,0,0,1,12.81,45.19c4.21-1.76,7.85-4,12.55-3.41-1.58,6.84-6,11.31-10.54,15.48,14,10.18,22.34,24,28.38,39.36,2.66,6.74,2.63,14.06,1.13,21.23-1.14-4.52-2-9.07-3-13.59-3.07-14.37-8.6-27.36-20.52-36.81-3.55-2.81-7.06-5.68-10.61-8.49-2.76-2.19-2.56-2.39.43-4.43,2.69-1.84,5-4.29,7.41-6.47a7.23,7.23,0,0,0-3.7.91c-4.13,1.88-4.74,1.64-5.54-2.77-.93-5.09-1.39-10.27-2.54-15.3-1.78-7.72-4-15.36-6-23l-1.21-.27c-2.45,3.11-4.91,6.22-7.52,9.51a50.24,50.24,0,0,1,12.25,23.12c4.18,17.21,2.81,34.26-1.6,51.21C74.66,248,73,256.52,68,263.85a10.66,10.66,0,0,0-1.7,5c-.43,5.58-1.6,10.89-4.67,15.64-4.95,7.66-10,9-18.16,4.8L36.93,300h-.64a22.53,22.53,0,0,1,.94-4.3c2-4.72,4.23-9.38,6.34-14a4.32,4.32,0,0,0-.71-.57,10.53,10.53,0,0,0-1.52-.53A12.77,12.77,0,0,1,31,270.26c-.39-1.68-.91-3.33-1.32-5-2.19-9-3.21-18.31-9.26-26.15A27.19,27.19,0,0,1,23.89,236,10.57,10.57,0,0,0,28.67,229c1.19-5-.27-7-5.39-6.63-2.25.16-4.49.58-6.74.76-5.11.39-11.37-3.57-12.94-8.4a6.1,6.1,0,0,1,.11-4.32c2.68-5,5.68-9.89,8.89-15.38l-6.21-4.18L0,186.61v-1.3c3.41-4.6,7.38-7.92,13.66-5.83a4.76,4.76,0,0,0,.31-1.06c-.11-10.36-.19-20.72-.41-31.08,0-1.53-.9-3-1.08-4.57-.27-2.25-1.25-5.5-.17-6.6,2.3-2.36,2.24-4.53,1.34-7.25,2.91-1.3,5.79-2.43,5.46-6.28a2.1,2.1,0,0,1,1.08-1.53c2.33-1.25,2.34-3.46,2.39-5.59.07-2.8,0-5.61-.06-8.42,0-3,0-6.08,0-9.12l1.05,0c.34,5.79.64,11.57,1.07,17.35.11,1.46.22,3.71,1.1,4.18,2.86,1.54,2.92,4,2.78,6.54,3,1,5.86,1.52,6.2,5.62.25,2.93,2,5.72,2.82,8.64.17.59-.7,1.45-1.06,2.21a6.09,6.09,0,0,0-.93,2.25q0,10.53.19,21a7.57,7.57,0,0,0,2.3,5.36c1.51,1.61,1.83,4.33,2.71,6.55.55,1.38.85,3,1.78,4.07,2.59,3,3.9,6.11,2.72,10.06a7.69,7.69,0,0,0,.1,2.47l1-.06c.31-4.25.56-8.51,1-12.75.62-6.53,1.91-12.86,6.82-17.71a5.09,5.09,0,0,1,3.22-1.66c3.26.18,5.61-1.29,7.7-3.43,2.26-2.31,4.44-4.68,6.71-7.06l-2.72-5.47c4.84-2.27,9.16-4.42,13.58-6.34C86.84,138,87.4,137,86,132.34c-2.37,2-3.94,5.24-7.75,5l-.43-6.73c-1.33,1.73-2.09,2.77-2.9,3.76a7.59,7.59,0,0,1-10.67,1.39C59.42,132.33,56.94,124.39,59,118c1.62,1,3.12,1.88,4.66,2.74,2.33,1.29,5.18.2,6.41-2.46s-1.24-2.93-2.65-3.82c-.81-.51-1.77-.8-2.6-1.28-2.66-1.53-3.1-3.21-1.51-5.89,1-1.64,2-3.21,3-4.79-3.32-2.38-4.31-2.35-6.93,0-.89.79-1.69,1.85-2.73,2.22-1.29.45-3.21.89-4.08.26s-1.45-2.66-1.24-3.93c.3-1.82,1.43-3.51,2.34-5.58-1.58,0-3,.12-4.5,0-5-.48-6.64-2.29-6.48-7.32.13-4,1.42-7.45,4.7-9.87A64.86,64.86,0,0,1,56,72.42c5.08-2.64,5.78-2.8,3.31-9.67A16.77,16.77,0,0,0,58,60.5C55.27,55.28,53.9,49.82,55.64,44c1.18-4,3.13-7.68,7.5-8.56,4-.8,6.47,2,8.68,5a4,4,0,0,0,3.47,1.28c.8-.19,1.52-1.84,1.81-3,.54-2.13.75-4.35,1.15-6.83a33.18,33.18,0,0,1-9.69-15c-2.3-7.91-.94-12.29,5.31-17H81L85.8,1.67C99.37,6.41,106.29,18.57,104.52,34l7.93,6c1.88-.11,5.21-.45,8.55-.45s6.88.41,10.33.5c1.43,0,2.91-.57,4.28-.33,1.56.26,3.8.76,4.34,1.84.84,1.72.72,4,.6,6.05-.14,2.44-2,5,.59,7.13a21.74,21.74,0,0,1,8,14.69c.36,3.47,1.85,4.37,5,4a22.4,22.4,0,0,1,4.84.09c10.15,1,14.32,9,9.24,17.85-4.71,8.26-12,12.34-21.9,12.51a75.28,75.28,0,0,0,6,6c2.55,2.45,2.53,3.69-.16,6-1.14,1-2.56,1.61-3.74,2.54-.7.55-1.58,1.33-1.68,2.1-.84,6.39-4.67,10.79-9.54,14.44-4.05,3-8.31,5.8-12.42,8.77-1.57,1.14-3,2.51-5.19,4.41,2.58.33,4,.65,5.49.69A42.73,42.73,0,0,0,143.89,145c10.84-4.9,19.75-12.53,27.42-21.3,13.71-15.66,26.84-31.83,40-47.92,1.83-2.23,3.34-2.36,5.43-1,1.62,1,3.15,2.15,5,3.39,1.28-2,2.28-3.74,3.53-5.32,1.42-1.8,2.95-2.23,4.15.33.26.55.59,1.07,1.09,2,1.84-3,3.35-5.91,5.2-8.52,3.25-4.56,5.36-9.21,3.35-15a7.94,7.94,0,0,1,.14-4.15c.52-2.19,2-3.3,4.33-2.67.8.22,1.6.41,2.23.57,1.13-5.27,2.22-10.37,3.31-15.47l1.12,0L253.78,38a33.09,33.09,0,0,1,11.54-20.92c.36,4.61.69,8.69,1,12.76l.85.12c1.19-5.89,4.2-10.89,9.65-12.93,10.66-4,21.64-7.17,32.52-10.58.83-.26,1.91.24,2.87.39a103.36,103.36,0,0,0-22.81,17.71c5.67-2.34,10.41-4.78,15.43-6.22s10.49-1.5,15.33,1.78l-5,8.15,14.32,4.39c1.53-.18,3.19-1.2,5-1.85a28.21,28.21,0,0,1,5.95-1.43c5.12-.65,7.74.87,8.73,4.32,3.93.79,7.73,1.13,11.21,2.36,3.83,1.36,4.31,5.45,1.37,8.22-3.38,3.2-5.14,7-3.66,11.63,3.57,11.27,8.15,22.11,15.59,31.4,6,7.51,9.62,16,11.91,25.21C386.9,117.73,387.73,123,388.77,128.29ZM292.51,63.37c-2.19,0-4.81.56-7.08-.1-9.09-2.65-17,.61-24.84,4.4-.61.29-1.37.9-1.48,1.48a86.64,86.64,0,0,0-1.89,11.7c-.51,10.34-4.81,16.07-15,18.21-6.21,1.3-12.58,1.85-18.89,2.65-6.82.87-13.42,2.22-18.76,7-2,1.81-2.67,3.56-.55,5.74,1.2,1.24,2.17,2.69,3.34,4,4.29,4.62,9.5,5.81,15.32,3.58,2.79-1.07,5.33-2.8,8-4.1,4.37-2.1,8.74-4.17,13.2-6.06,1.17-.49,2.65-.26,4-.36-.41,1.21-.87,1.68-1.44,1.9-12.5,4.81-22,13.47-30,23.85a13.42,13.42,0,0,1-11.12,5.62c-4-.11-7.75-1.47-8.23,5l-1.21-.07-2.13-3.6c-6.41,3.13-11.93,6.95-15.79,12.81a17.08,17.08,0,0,0-2.61,13.88c3.29,14,14.6,20,25.94,26.72l-.3-4.86c5.12.53,8.39,6.21,13.88,4.56l-5.15-6.55.74-1a28.71,28.71,0,0,1,3.85,2c9.92,7.15,21.3,6.06,29.25-3.22,2.85-3.33,5-7.23,7.48-10.9,2.92-4.38,5.33-9.21,8.79-13.11,8.39-9.46,21.44-11.45,32.05-4.95,3.74,2.29,6.71,5.84,10.13,8.9l4.45-9,.6.26c-.12,1.43-.25,2.85-.42,4.92,4.35-4.5,3.93-10.12,5.54-15.54,3.43,2.82,3.7,6.35,4.32,10.46,1.42-2,2.53-3.25,3.36-4.7a40.26,40.26,0,0,0,4.81-26.22c-1.88-13.69-7.91-25.54-16-37.32-2.56,8.19-4.48,15.65-.62,23.48a5.26,5.26,0,0,1-2.57-1.53c-2.35-3.57-5.27-7-6.63-10.93-3-8.67-1.84-17.48,1.14-26a3.38,3.38,0,0,0-.81-3.93C296.82,69.62,294.78,66.49,292.51,63.37Zm-188.88,93.2c7.14-5.76,13.85-11.12,20.51-16.56a98,98,0,0,0,8-7c3.16-3.22,5.75-6.88,6.8-11.08L128.23,119c-3,2.41-5.68,4.86-8.67,6.84a5.2,5.2,0,0,1-6.88-.67,8.28,8.28,0,0,1-1.6-6.13c.45-2.4,2.07-4.68,3.52-6.77a81.71,81.71,0,0,1,5.26-6.26c-1.61-2-4.64-2.69-4.19-6,2,.46,3.82,1.31,5.56,1.17s3.59-1.39,5.45-1.91c2.12-.59,2.45.89,2.08,2.43a7.93,7.93,0,0,1-1.54,2.44c-3.63,5-1.39,11.22,4.65,12.49,6.28,1.32,11.59-1.08,16.49-4.45L140,101.66a3.5,3.5,0,0,0-.76.4c-3.55,2.88-5,3.06-7.24.87-2.65-2.61-3-5.93-.32-8.61a24.6,24.6,0,0,1,6.43-4.14c.67-.34,1.9.42,3.48.84-7.36,5.8-7.65,6.31-5.65,9.3,3.48-3.25,7-6.52,12.51-5.25l-5.72,3.82a9.93,9.93,0,0,0,1.74.91c8.4,2.27,20.44-7.76,19.52-16.44a5.1,5.1,0,0,0-2.72-3.47,34.41,34.41,0,0,0-8.12-2c-9.59-1.35-15.64-6.68-17.62-16.18-.69-3.27-.68-6.69-1-10.17l-3.13,1.67-1-.31c.36-2.58.71-5.15,1.11-8.09-6.75-.47-13.39-1-20-1.28A5.07,5.07,0,0,0,108,45.38c-4.11,4.86-8.07,9.85-12,14.85-2,2.6-3.92,5.31-6.29,8.54,2.3-.25,3.87-.4,5.44-.58,7.3-.87,11.47,2.71,11.12,10.11-.13,2.78-1.44,5.52-2.29,8.25-.43,1.42-1.76,3.07-1.38,4.13,1.24,3.42,0,6-2.68,9.16,1.65-.59,2.4-.88,3.16-1.13s1.44-.45,2.64-.83c-1.94,3.26-2,3.29-8.36,4.26a17.43,17.43,0,0,0,2.68,2.45,19.07,19.07,0,0,0,3.82,1.08c-4.38,1.27-6.88.43-8.67-2.69a42.6,42.6,0,0,1-2.47-5.61c-2.69-6.86-9.24-8.08-14.36-2.65-4.22,4.48-6,13.65-3.24,19.14,2.25,4.55,5.78,8.27,11.18,8,4.11-.19,5,2.06,5,4.89,0,4.81-.63,9.62-.89,14.43-.08,1.43-.29,3.23.43,4.26C94.3,150.48,98.7,154.54,103.63,156.57ZM52,219.67a7.24,7.24,0,0,0-1,1.11c-5.27,10.35-10.87,20.56-15.66,31.12-2.75,6.07-2.82,12.82-1.14,19.39A10.1,10.1,0,0,0,44.79,279a19.41,19.41,0,0,0,14.48-7.47c7.1-8.51,10.7-18.58,13.6-29.05,4.84-17.39,6.68-34.95,2.88-52.77a43.49,43.49,0,0,0-15.11-25.38c-1.28,1.62-2.93,2.93-3.56,4.63a103.08,103.08,0,0,0-4.22,13.8c-1.69,7.94-2.49,16-1,24.1C53,213.5,57.32,217,64,217.11c2.09,0,4.17,0,6.54,0-2.79,3.47-7.31,3.61-16.6.48l5.58,10.64C55.45,226.68,53.83,223.21,52,219.67ZM213.36,81.83c-.41.52-.91,1.19-1.43,1.84-10,12.57-19.67,25.45-30.17,37.6-9.95,11.51-21.68,21.17-36.06,26.77-6.51,2.54-13.5,3.87-20.28,5.75,2.19,2.67,4.48,5.8,7.13,8.59,4.24,4.46,5.65,9.17,3.25,15.18-1.29,3.21-1.33,6.92-2.07,11.2,2.85-2.1,4.79-3.63,6.83-5s3.88-1.72,5.54.74a3.62,3.62,0,0,0,2.63,1.38c8.9-.06,17.07-2.9,25-6.57-7.13-19-1.4-32.75,17.65-43.21-.75-2.36-2-4.64-2.16-7-1-11.7,2.68-21.73,14.12-26.86a73.58,73.58,0,0,1,11-3.71,83.36,83.36,0,0,1,8.43-1.46Zm-182,141.69c2-2,3.2-3.7,4.88-4.67s3.8-1.16,5.72-1.7a1.63,1.63,0,0,0,.58-.27C44.94,215,46,209,44.42,206.27c-.4-.7-.8-2-.46-2.41,2.6-3,1-5.17-1.34-7.09-1.67-1.37-1.87-2.71-1.11-4.73,1.13-3,1.53-6.11-1.68-8.38l-2.08,2.48-.8-.33c.16-2.53.35-5.06.47-7.59.19-4-1.21-5.14-5.1-4.11-4.82,1.27-7.93,4.85-11.51,8.37l7.63,4.1,2.73-4.71c1.71,3.25.87,7.22-1.92,10.79-3.29,4.22-7.45,3.86-9.95-.94-.79-1.52-1.35-3.16-2.05-4.74-1.1-2.51-2.67-4.46-5.68-4.58s-5,1.52-6.56,4.28a67.46,67.46,0,0,1,5.94,4,26.18,26.18,0,0,1,4.32,4.66,3,3,0,0,1,.05,2.71c-2.34,4.09-4.84,8.1-7.34,12.11-1.18,1.9-1.29,4,.39,5.28a18.38,18.38,0,0,0,7,3.42c2.33.5,4.91-.18,7.38-.36C26.56,218.2,30.85,217,31.34,223.52ZM346.51,118.35c3.13-2.56,6-4.3,8.09-6.72,5.89-6.82,7.79-15,6.89-23.84-1.08-10.66-4.69-19.91-14.23-25.91a3.78,3.78,0,0,1-.82-.51c-2.72-2.95-4.45-3.52-7.5-1.11a22.41,22.41,0,0,0-6.35,7.47c-2.09,4.32-3.26,9.1-4.73,13.72a2.77,2.77,0,0,0,.26,2.07c1.29,2.07,2.73,4,4,5.86C336.15,86,339.71,82.69,337,77a1.25,1.25,0,0,1,0-.64c.23-1.94,1.26-2.11,2.62-1.05a4.29,4.29,0,0,1,1.58,2c1.85,6.84,3.64,13.69,5.3,20.57.22.92-.35,2-.55,3.06l-.82,0c-.47-2.25-.94-4.5-1.24-6l-8.66-3.52c.11.68,0,1.84.46,2.49C340.93,100.84,344.21,108.62,346.51,118.35ZM93.28,36.52c6.84-.75,9.33-3.16,9.18-9.7a27.29,27.29,0,0,0-1.15-6.3c-1.4-5.21-5-9-8.73-12.59A17.79,17.79,0,0,0,75.65,3.2c-3.56.8-5,2.84-5.12,6.48-.31,10.32,5,17.6,13,23.08C86.36,34.67,90,35.31,93.28,36.52ZM22.11,156.12l3.39.63-4.39,2.12,1.57,1L20,165.06c-.45-7.28-.93-14.24-.39-21.18l1.32-.1,1,5.18c.93,0,2,.32,2.6-.06,1.65-1,3.87-2.08,4.44-3.64a6.24,6.24,0,0,0-1.15-5.48c-1-.95-3.52-.53-5.32-.31-1.22.14-2.32,1.17-3.55,1.47a7.06,7.06,0,0,1-2.53-.4l-.17-1.47c2.44-.82,4.82-2,7.33-2.38,3.72-.61,7,.52,9,4.49,1.21-3.32,0-6.12-2.77-6.91-4.64-1.31-9.12-.6-12.63,2.82-1.07,1-1.43,3.2-1.44,4.86,0,1.93,1,3.85,1.06,5.8.19,5.39,0,10.79.18,16.17.18,5,.66,10,1,15.14l14.21-10.62V146.91c-2.88,4.36-6.58,4.86-10.8,4.29l.3,3.59,3.49-1.59.38.68ZM242,68l-1.32-.41c-1.26,2.57-2.63,5.09-3.76,7.71-3.33,7.77-3.29,7.79,1.7,14.47,4.19,5.6,5.93,5.61,10.29.06A12.53,12.53,0,0,0,250.2,88c4.93-9.45,5.58-19.11,1.1-28.9-1.43-3.12-3.52-5.74-6.57-6.92,0,5.85.37,11.57-.11,17.22-.47,5.45,0,11.33-3.74,16l-1-.16Zm16.67-3.48c4.68-4.72,10.4-5.38,16.07-6.18,4.92-.7,9.93-1.3,13.76-4.89A4.92,4.92,0,0,0,290,49.59c-.16-.8-2.12-1.68-3.33-1.76a45.33,45.33,0,0,0-19.37,2.78c-3.85,1.47-7.57,3.32-11.3,5ZM103.81,45.05c-2-1.94-3.13-.61-4.24.87C92,56,84.32,66,77,76.26c-5,6.91-9.43,14.17-12.17,22.59l2.73,1C76.45,79.28,90.47,62.39,103.81,45.05Zm14.86,165,.38,0c-2.12-8.86-4.55-17.66-6.26-26.6-1.07-5.61-5-8.37-9.43-12,0,2.3-.53,4.18.09,5.56C108.4,188.09,113.56,199.06,118.67,210.05ZM227.7,79.7a24.19,24.19,0,0,1-2.46,3.3c-3.65,3.39-3.55,6.8-.36,10.4,1,1.09,1.79,3.16,2.78,3.23,3.39.23,6.83-.24,10.66-.46C234.49,90.22,231.18,85.1,227.7,79.7Zm-186.42,149-.67-.73c-4.63,3.47-9.22,7-13.9,10.39-1.71,1.24-1.65,2.61-.75,4.17,1.62,2.79,3.29,5.55,4.75,8C34.21,243.26,37.74,236,41.28,228.65ZM101.12,172c.89-4.45,1.68-8,2.26-11.58.08-.54-.69-1.43-1.29-1.85-4-2.83-8-5.57-12.43-8.62C93.4,157.17,97,164.15,101.12,172Zm153.28-120,20.27-7.69C270.46,41.29,262.18,44.43,254.4,52.06ZM209,130l-11.16-12.93C198.39,125.07,203.38,131.07,209,130ZM144.1,70.14c2.87-3.9.31-10.7-4.7-12.92C139,62.2,140.82,66.27,144.1,70.14ZM81.86,63l6.36-8.43c-3.74-.1-7.28-.78-8.92,2.44C78.75,58.09,80.73,60.48,81.86,63Zm-47,165,10.12-5.22C42,218.91,38.74,220.59,34.81,228ZM20.49,184.7l-.8.68,4.3,7.53L27.56,189Zm251.24,70.39c-5.75,5.46-5.75,5.46-1.58,10.85C270.68,262.33,271.16,259,271.73,255.09ZM108.62,157.64l4.82,5.92.66-.41c-.91-2.66-1.82-5.32-3-8.74Zm7-40.75-1.41-.12a33.82,33.82,0,0,0-.93,6c0,.52,1.84,1,2.83,1.54l.77-.71ZM104.76,36.58l-3,3.45c.84.66,2.06,2,2.45,1.83A15.15,15.15,0,0,0,107.28,39ZM49.53,211c-3.93,5.42-4.3,6.73-2.21,8.29C47.6,216.38,53,215.29,49.53,211Zm-19-80c-3.37-2.25-6.87-1.94-10.41,0ZM93,78.36l-.18-1.15a52.43,52.43,0,0,0-5.31,1c-.37.11-.48,1.18-.71,1.82.56.16,1.22.59,1.65.43C90,79.89,91.5,79.09,93,78.36ZM121.6,108.1l-2.77,3.78,5,1.85C123,111.6,122.38,110.12,121.6,108.1Z"/><path class="cls-1" d="M36.93,300l6.56-10.72c8.15,4.21,13.21,2.86,18.16-4.8,3.07-4.75,4.24-10.06,4.67-15.64a10.66,10.66,0,0,1,1.7-5c5-7.33,6.64-15.83,8.82-24.16,4.41-16.95,5.78-34,1.6-51.21a50.24,50.24,0,0,0-12.25-23.12c2.61-3.29,5.07-6.4,7.52-9.51l1.21.27c2,7.67,4.2,15.31,6,23,1.15,5,1.61,10.21,2.54,15.3.8,4.41,1.41,4.65,5.54,2.77a7.23,7.23,0,0,1,3.7-.91c-2.46,2.18-4.72,4.63-7.41,6.47-3,2-3.19,2.24-.43,4.43,3.55,2.81,7.06,5.68,10.61,8.49,11.92,9.45,17.45,22.44,20.52,36.81,1,4.52,1.84,9.07,3,13.59,1.5-7.17,1.53-14.49-1.13-21.23-6-15.32-14.39-29.18-28.38-39.36,4.53-4.17,9-8.64,10.54-15.48-4.7-.59-8.34,1.65-12.55,3.41a149.9,149.9,0,0,0-12.81-45.19l9.23-5.68c.29.25.62.4.74.65,8.71,18.3,17.48,36.56,26.07,54.92,7.54,16.1,11.13,33.3,13.06,50.84,1.54,13.94,2.54,27.94,3.78,41.91a2.07,2.07,0,0,0,.67,1.48c.36-6.53.72-13.05,1.1-19.89,6,3.74,10.14,9.71,16.85,12.24-1.44-7.91,1.93-15,1.89-22.34,0-4.87-1.79-9.94-3.7-14.53-8.76-21-17.52-42-27-62.64-2.78-6-5.21-11.89-6.23-18.7,2.85,2,5.17,3.76,5.84,7.38a64.9,64.9,0,0,0,10.36,25.6,58.5,58.5,0,0,0,5.05,5.88c14.2,15.54,23.12,33.92,29,53.93a4,4,0,0,0,1.54,2.38,52.49,52.49,0,0,0-.62-7.23c-3.82-17.11-12.37-31.92-23.06-45.5a96.79,96.79,0,0,1-20.11-46.66c-.39-2.68-2.46-5.19-4-7.59-1.45-2.19-1.08-3.5,2.14-4.8,4.58,5.77,10,11.32,13.74,17.85,1.93,3.42,1,8.59.94,13,0,2.88-.91,5.74-1.21,8.64a15.31,15.31,0,0,0,.48,3.57,15.32,15.32,0,0,0,3.78-1c2.61-1.46,5.06-3.18,8.24-5.22,5.86,17.77,11.52,34.92,17.18,52.06l.64,0a14.74,14.74,0,0,0-.05-3.82c-2.7-9.53-5.56-19-8.27-28.54-1.44-5.06-2.67-10.17-3.92-15,7.92-1.88,15.54-3,22.65-5.58,5.61-2,9.12-.94,12.08,4.22C167.72,203.7,163,220.91,168,241.68l3.81-8.43c2.06,7.21,3.66,14.64,6.35,21.65s6.28,13.44,12.78,18.87l-3-22.1,1.19-.3a16.68,16.68,0,0,1,.88,1.67c3.44,8.65,8.23,16.39,15.58,22.28,1.39,1.1,3.24,1.61,5.66,2.77L206,262l.58-.1c3.76,5.85,7.46,11.73,11.33,17.5.67,1,2.07,1.49,3.14,2.22l.49-.67q-2.36-7.31-4.7-14.61c4.15,3.81,5,10,10.26,13.58,1-6.62-2.15-12.57-.17-18.38l1.32-.26a26.82,26.82,0,0,1,1.7,4.42A80.15,80.15,0,0,0,240.47,293a15.78,15.78,0,0,0,4.64,4.51c-.19-8.89,2.58-16.63,6.7-24.49.61,3.74,1.15,7.05,1.68,10.35l1.25,0c1.77-4.47,3.54-8.93,5.62-14.16,2.76,5.6,6.19,9,10.88,11.19.76.36,1.27,1.31,1.82,2.05,2.72,3.59,5.38,7.24,8.16,10.8.5.64,1.46.94,2.81,1.76-4.51-15.42,1.6-27.06,11-37.92v14.06l11.75-16.28.53.2c-.91,3.35-1.82,6.7-2.95,10.89,1.57-.58,2.71-.72,3.46-1.33a9.26,9.26,0,0,0,2.44-3c4.91-10.06,13.3-17.14,21-24.8,6.52-6.48,12.79-13.21,16.92-21.55,1.85-3.71,3.18-7.68,4.7-11.4,0,3.18-.08,6.55,0,9.92a11.08,11.08,0,0,0,1,2.86c1-.39,2.25-.54,3-1.21,9.9-8.76,14.59-20.39,17.6-32.82,2.82-11.64,2.17-23.34-.15-35-.17-.85-.3-1.7-.4-2.56,0-.29.06-.59.85-1.27l8.7,16.6c3.21-5.22,3.64-10.77,4.58-16.17.18-1,.48-2,.72-3V300Zm45.32-39.83c0-2.72.06-5.44,0-8.16,0-1.68.4-2.5,2.3-2.68,5.31-.51,10.61-1.26,16.1-1.94l.71,3,1.1-.06c0-4-.06-8,0-12.06.09-5.06-1.67-6.55-6.66-5.24-3.75,1-7.38,2.63-11.18,3.14-3.35.45-4,2.16-4.18,4.92-.14,2.42-.48,4.84-.76,7.56C82.69,251.67,79.89,256.45,82.25,260.17ZM104.85,200l-5,7.31C103.62,207.31,105.81,204.1,104.85,200Z"/><path class="cls-1" d="M388.77,128.29c-1-5.25-1.87-10.56-3.17-15.75-2.29-9.17-5.88-17.7-11.91-25.21-7.44-9.29-12-20.13-15.59-31.4-1.48-4.67.28-8.43,3.66-11.63,2.94-2.77,2.46-6.86-1.37-8.22-3.48-1.23-7.28-1.57-11.21-2.36-1-3.45-3.61-5-8.73-4.32a28.21,28.21,0,0,0-5.95,1.43c-1.8.65-3.46,1.67-5,1.85l-14.32-4.39,5-8.15c-4.84-3.28-10.19-3.25-15.33-1.78s-9.76,3.88-15.43,6.22A103.36,103.36,0,0,1,312.22,6.87c-1-.15-2-.65-2.87-.39-10.88,3.41-21.86,6.58-32.52,10.58-5.45,2-8.46,7-9.65,12.93l-.85-.12c-.32-4.07-.65-8.15-1-12.76A33.09,33.09,0,0,0,253.78,38l-3.59-8.19-1.12,0c-1.09,5.1-2.18,10.2-3.31,15.47-.63-.16-1.43-.35-2.23-.57-2.38-.63-3.81.48-4.33,2.67a7.94,7.94,0,0,0-.14,4.15c2,5.76-.1,10.41-3.35,15-1.85,2.61-3.36,5.47-5.2,8.52-.5-.91-.83-1.43-1.09-2-1.2-2.56-2.73-2.13-4.15-.33-1.25,1.58-2.25,3.36-3.53,5.32-1.81-1.24-3.34-2.37-5-3.39-2.09-1.31-3.6-1.18-5.43,1-13.2,16.09-26.33,32.26-40,47.92-7.67,8.77-16.58,16.4-27.42,21.3A42.73,42.73,0,0,1,125,148.84c-1.46,0-2.91-.36-5.49-.69,2.21-1.9,3.62-3.27,5.19-4.41,4.11-3,8.37-5.73,12.42-8.77,4.87-3.65,8.7-8,9.54-14.44.1-.77,1-1.55,1.68-2.1,1.18-.93,2.6-1.57,3.74-2.54,2.69-2.28,2.71-3.52.16-6a75.28,75.28,0,0,1-6-6c9.89-.17,17.19-4.25,21.9-12.51,5.08-8.9.91-16.81-9.24-17.85a22.4,22.4,0,0,0-4.84-.09c-3.12.35-4.61-.55-5-4a21.74,21.74,0,0,0-8-14.69c-2.57-2.16-.73-4.69-.59-7.13.12-2,.24-4.33-.6-6.05-.54-1.08-2.78-1.58-4.34-1.84-1.37-.24-2.85.37-4.28.33-3.45-.09-6.89-.49-10.33-.5s-6.67.34-8.55.45l-7.93-6C106.29,18.57,99.37,6.41,85.8,1.67L81,0H388.77Zm-269-94.75c1.24-1.08,2.35-1.57,2.56-2.31A113.45,113.45,0,0,0,124.9,20c.36-2.17-.94-3.73-3.18-4.16-2.47-.47-3.2,1.51-3.74,3.19C116.44,23.83,118,28.3,119.75,33.54Zm28.53,6c2.86-2.41,5.22-4.2,7.32-6.26A11.07,11.07,0,0,0,158.38,29c.35-1.08-.35-2.5-.59-3.77-1.25.23-2.82.07-3.71.77C150.06,29.23,148.83,33.77,148.28,39.49Z"/><path class="cls-1" d="M73.87,0c-6.25,4.7-7.61,9.08-5.31,17a33.18,33.18,0,0,0,9.69,15c-.4,2.48-.61,4.7-1.15,6.83-.29,1.12-1,2.77-1.81,3a4,4,0,0,1-3.47-1.28c-2.21-3-4.68-5.84-8.68-5-4.37.88-6.32,4.6-7.5,8.56C53.9,49.82,55.27,55.28,58,60.5a16.77,16.77,0,0,1,1.27,2.25c2.47,6.87,1.77,7-3.31,9.67a64.86,64.86,0,0,0-8.55,5.79c-3.28,2.42-4.57,5.91-4.7,9.87-.16,5,1.44,6.84,6.48,7.32,1.45.14,2.92,0,4.5,0-.91,2.07-2,3.76-2.34,5.58-.21,1.27.32,3.27,1.24,3.93s2.79.19,4.08-.26c1-.37,1.84-1.43,2.73-2.22,2.62-2.34,3.61-2.37,6.93,0-1,1.58-2.08,3.15-3,4.79-1.59,2.68-1.15,4.36,1.51,5.89.83.48,1.79.77,2.6,1.28,1.41.89,3.91,1.1,2.65,3.82S66,122,63.66,120.7c-1.54-.86-3-1.79-4.66-2.74-2.06,6.43.42,14.37,5.26,17.85a7.59,7.59,0,0,0,10.67-1.39c.81-1,1.57-2,2.9-3.76l.43,6.73c3.81.19,5.38-3,7.75-5,1.39,4.63.83,5.64-3.38,7.47-4.42,1.92-8.74,4.07-13.58,6.34l2.72,5.47c-2.27,2.38-4.45,4.75-6.71,7.06-2.09,2.14-4.44,3.61-7.7,3.43a5.09,5.09,0,0,0-3.22,1.66c-4.91,4.85-6.2,11.18-6.82,17.71-.4,4.24-.65,8.5-1,12.75l-1,.06a7.69,7.69,0,0,1-.1-2.47c1.18-3.95-.13-7.09-2.72-10.06-.93-1.06-1.23-2.69-1.78-4.07-.88-2.22-1.2-4.94-2.71-6.55a7.57,7.57,0,0,1-2.3-5.36q-.21-10.51-.19-21a6.09,6.09,0,0,1,.93-2.25c.36-.76,1.23-1.62,1.06-2.21-.84-2.92-2.57-5.71-2.82-8.64-.34-4.1-3.19-4.62-6.2-5.62.14-2.59.08-5-2.78-6.54-.88-.47-1-2.72-1.1-4.18-.43-5.78-.73-11.56-1.07-17.35l-1.05,0c0,3,0,6.08,0,9.12,0,2.81.13,5.62.06,8.42,0,2.13-.06,4.34-2.39,5.59a2.1,2.1,0,0,0-1.08,1.53c.33,3.85-2.55,5-5.46,6.28.9,2.72,1,4.89-1.34,7.25-1.08,1.1-.1,4.35.17,6.6.18,1.55,1,3,1.08,4.57.22,10.36.3,20.72.41,31.08a4.76,4.76,0,0,1-.31,1.06C7.38,177.39,3.41,180.71,0,185.31V0Zm-56,99.67-1.16-1.2c-3,2.08-6.23,4-9,6.33a2.75,2.75,0,0,0,.06,4.51,3.17,3.17,0,0,0,4.86-.59C14.59,105.85,16.16,102.7,17.9,99.67Z"/><path class="cls-1" d="M0,186.61l6.39,4.28,6.21,4.18c-3.21,5.49-6.21,10.35-8.89,15.38a6.1,6.1,0,0,0-.11,4.32c1.57,4.83,7.83,8.79,12.94,8.4,2.25-.18,4.49-.6,6.74-.76,5.12-.37,6.58,1.67,5.39,6.63A10.57,10.57,0,0,1,23.89,236a27.19,27.19,0,0,0-3.44,3.15c6.05,7.84,7.07,17.19,9.26,26.15.41,1.67.93,3.32,1.32,5A12.77,12.77,0,0,0,41.34,280.6a10.53,10.53,0,0,1,1.52.53,4.32,4.32,0,0,1,.71.57c-2.11,4.62-4.31,9.28-6.34,14a22.53,22.53,0,0,0-.94,4.3H0Z"/><path class="cls-1" d="M292.51,63.37c2.27,3.12,4.31,6.25,6.71,9.08a3.38,3.38,0,0,1,.81,3.93c-3,8.54-4.13,17.35-1.14,26,1.36,3.94,4.28,7.36,6.63,10.93a5.26,5.26,0,0,0,2.57,1.53c-3.86-7.83-1.94-15.29.62-23.48,8.08,11.78,14.11,23.63,16,37.32a40.26,40.26,0,0,1-4.81,26.22c-.83,1.45-1.94,2.73-3.36,4.7-.62-4.11-.89-7.64-4.32-10.46-1.61,5.42-1.19,11-5.54,15.54.17-2.07.3-3.49.42-4.92l-.6-.26-4.45,9c-3.42-3.06-6.39-6.61-10.13-8.9-10.61-6.5-23.66-4.51-32.05,4.95-3.46,3.9-5.87,8.73-8.79,13.11-2.44,3.67-4.63,7.57-7.48,10.9-8,9.28-19.33,10.37-29.25,3.22a28.71,28.71,0,0,0-3.85-2l-.74,1,5.15,6.55c-5.49,1.65-8.76-4-13.88-4.56l.3,4.86c-11.34-6.76-22.65-12.76-25.94-26.72A17.08,17.08,0,0,1,178,157.05c3.86-5.86,9.38-9.68,15.79-12.81l2.13,3.6,1.21.07c.48-6.51,4.27-5.15,8.23-5a13.42,13.42,0,0,0,11.12-5.62c8.05-10.38,17.52-19,30-23.85.57-.22,1-.69,1.44-1.9-1.33.1-2.81-.13-4,.36-4.46,1.89-8.83,4-13.2,6.06-2.71,1.3-5.25,3-8,4.1-5.82,2.23-11,1-15.32-3.58-1.17-1.26-2.14-2.71-3.34-4-2.12-2.18-1.46-3.93.55-5.74,5.34-4.82,11.94-6.17,18.76-7,6.31-.8,12.68-1.35,18.89-2.65,10.16-2.14,14.46-7.87,15-18.21a86.64,86.64,0,0,1,1.89-11.7c.11-.58.87-1.19,1.48-1.48,7.86-3.79,15.75-7.05,24.84-4.4C287.7,63.93,290.32,63.37,292.51,63.37Zm-82.94,81.54-.53.73a8.21,8.21,0,0,0,.73,1,49.26,49.26,0,0,0,27,14.42c8.68,1.49,18,2,23.57-7.49a2.66,2.66,0,0,1,.74-.62c5.56-4,8.34-9.63,9.11-16.14s.87-13.3,1.29-20.32h8c-2.62-5.7-10.24-8.05-15.93-5.27.09.29.11.67.31.87a28.39,28.39,0,0,1,2.12,2c.56.69,1.31,1.58,1.28,2.35-.37,8.3-.8,16.61-4.1,24.42-2,4.8-5.05,8.52-10.53,9.54-.37.07-.69.45-1.08.71l1.37,2.6a19.88,19.88,0,0,1-2.2,1.08,34.68,34.68,0,0,1-4.31,1.35c-12.55,2.64-23.39-1.23-33.23-8.84C212,146.42,210.76,145.7,209.57,144.91Zm75-68.08L267.35,88.25l-3.69-1.75-.86.7c2.38,6,4.75,12.06,7.26,18.43,2.69-1,5.15-2,7.68-2.74,3.91-1.2,5.76-.29,7.51,3.43l.92,2c2.24-2.89,2-5.45-.37-7.83-.72-.73-1.59-1.89-1.5-2.76.61-5.68,1.28-11.37,2.31-17C287.13,77.94,286.3,76.87,284.56,76.83Zm6.12,10.83c1.44-4.29,3.23-8.11,3.87-12.11a11.93,11.93,0,0,0-1.8-7.56c-1.08-1.7-4-3.66-5.58-3.26-2.36.6-4.58,2.87-6.17,5-1.11,1.45-.11,3.45,2.14,2.92,3.59-.85,5.22,1.34,5.94,3.93C290,79.87,290.11,83.44,290.68,87.66Zm-70.75,50.86-1.66,0-.6,3.53c.94-.23,2.35-.19,2.7-.77S220.12,139.48,219.93,138.52Z"/><path class="cls-1" d="M103.63,156.57c-4.93-2-9.33-6.09-12.83-11.1-.72-1-.51-2.83-.43-4.26.26-4.81.9-9.62.89-14.43,0-2.83-.88-5.08-5-4.89-5.4.24-8.93-3.48-11.18-8-2.71-5.49-1-14.66,3.24-19.14,5.12-5.43,11.67-4.21,14.36,2.65A42.6,42.6,0,0,0,95.16,103c1.79,3.12,4.29,4,8.67,2.69a19.07,19.07,0,0,1-3.82-1.08,17.43,17.43,0,0,1-2.68-2.45c6.35-1,6.42-1,8.36-4.26-1.2.38-1.93.59-2.64.83s-1.51.54-3.16,1.13c2.67-3.18,3.92-5.74,2.68-9.16-.38-1.06,1-2.71,1.38-4.13.85-2.73,2.16-5.47,2.29-8.25.35-7.4-3.82-11-11.12-10.11-1.57.18-3.14.33-5.44.58,2.37-3.23,4.25-5.94,6.29-8.54,3.94-5,7.9-10,12-14.85a5.07,5.07,0,0,1,3.45-1.82c6.66.26,13.3.81,20,1.28-.4,2.94-.75,5.51-1.11,8.09l1,.31,3.13-1.67c.33,3.48.32,6.9,1,10.17,2,9.5,8,14.83,17.62,16.18a34.41,34.41,0,0,1,8.12,2A5.1,5.1,0,0,1,164,83.36c.92,8.68-11.12,18.71-19.52,16.44a9.93,9.93,0,0,1-1.74-.91l5.72-3.82c-5.53-1.27-9,2-12.51,5.25-2-3-1.71-3.5,5.65-9.3-1.58-.42-2.81-1.18-3.48-.84a24.6,24.6,0,0,0-6.43,4.14c-2.67,2.68-2.33,6,.32,8.61,2.23,2.19,3.69,2,7.24-.87a3.5,3.5,0,0,1,.76-.4l8.36,10.46c-4.9,3.37-10.21,5.77-16.49,4.45-6-1.27-8.28-7.46-4.65-12.49a7.93,7.93,0,0,0,1.54-2.44c.37-1.54,0-3-2.08-2.43-1.86.52-3.59,1.75-5.45,1.91s-3.57-.71-5.56-1.17c-.45,3.32,2.58,4,4.19,6a81.71,81.71,0,0,0-5.26,6.26c-1.45,2.09-3.07,4.37-3.52,6.77a8.28,8.28,0,0,0,1.6,6.13,5.2,5.2,0,0,0,6.88.67c3-2,5.67-4.43,8.67-6.84L139,121.89c-1.05,4.2-3.64,7.86-6.8,11.08a98,98,0,0,1-8,7C117.48,145.45,110.77,150.81,103.63,156.57Zm20-100.13a27.49,27.49,0,0,0-6.84,14.25c-.88,5.83-.26,11.4,3.89,16.1,2.21,2.49,4.53,4.91,8.18,4.25s5.34-3.78,6.45-7C138.79,73.92,133.59,61.55,123.64,56.44Zm-13.08,8.74c4-3.42,8.07-6.86,12.13-10.27A3.8,3.8,0,0,0,123,49a5.84,5.84,0,0,0-7.82.08C110.39,53.73,110.81,59.76,110.56,65.18Zm11.63,64.26c-4.58,1.25-4.59,1.27-9.86.21-2-.39-2.9.57-2.29,2.23a6.24,6.24,0,0,0,2.87,3.42C116.27,136.69,120.58,133.78,122.19,129.44Zm-3-37.44-5.84-13.69C111.61,81.11,115.19,89.49,119.15,92Zm-6.74-8.38-1.08.32A8,8,0,0,0,115,91.19Z"/><path class="cls-1" d="M52,219.67c1.81,3.54,3.43,7,7.46,8.56L53.9,217.59c9.29,3.13,13.81,3,16.6-.48-2.37,0-4.45,0-6.54,0-6.64-.08-11-3.61-12.15-10.22-1.44-8.09-.64-16.16,1-24.1A103.08,103.08,0,0,1,57.08,169c.63-1.7,2.28-3,3.56-4.63a43.49,43.49,0,0,1,15.11,25.38c3.8,17.82,2,35.38-2.88,52.77-2.9,10.47-6.5,20.54-13.6,29.05A19.41,19.41,0,0,1,44.79,279a10.1,10.1,0,0,1-10.53-7.74c-1.68-6.57-1.61-13.32,1.14-19.39,4.79-10.56,10.39-20.77,15.66-31.12A7.24,7.24,0,0,1,52,219.67Z"/><path class="cls-1" d="M213.36,81.83l9.42,15.22a83.36,83.36,0,0,0-8.43,1.46,73.58,73.58,0,0,0-11,3.71c-11.44,5.13-15.12,15.16-14.12,26.86.2,2.38,1.41,4.66,2.16,7-19.05,10.46-24.78,24.23-17.65,43.21-7.95,3.67-16.12,6.51-25,6.57a3.62,3.62,0,0,1-2.63-1.38c-1.66-2.46-3.54-2.08-5.54-.74s-4,2.9-6.83,5c.74-4.28.78-8,2.07-11.2,2.4-6,1-10.72-3.25-15.18-2.65-2.79-4.94-5.92-7.13-8.59,6.78-1.88,13.77-3.21,20.28-5.75,14.38-5.6,26.11-15.26,36.06-26.77,10.5-12.15,20.15-25,30.17-37.6C212.45,83,213,82.35,213.36,81.83Z"/><path class="cls-1" d="M31.34,223.52c-.49-6.54-4.78-5.32-8.64-5-2.47.18-5.05.86-7.38.36a18.38,18.38,0,0,1-7-3.42C6.69,214.15,6.8,212,8,210.14c2.5-4,5-8,7.34-12.11a3,3,0,0,0-.05-2.71A26.18,26.18,0,0,0,11,190.66a67.46,67.46,0,0,0-5.94-4c1.58-2.76,3.51-4.4,6.56-4.28s4.58,2.07,5.68,4.58c.7,1.58,1.26,3.22,2.05,4.74,2.5,4.8,6.66,5.16,10,.94,2.79-3.57,3.63-7.54,1.92-10.79l-2.73,4.71-7.63-4.1c3.58-3.52,6.69-7.1,11.51-8.37,3.89-1,5.29.12,5.1,4.11-.12,2.53-.31,5.06-.47,7.59l.8.33,2.08-2.48C43,185.93,42.64,189,41.51,192c-.76,2-.56,3.36,1.11,4.73,2.36,1.92,3.94,4.07,1.34,7.09-.34.39.06,1.71.46,2.41,1.53,2.73.52,8.74-1.9,10.61a1.63,1.63,0,0,1-.58.27c-1.92.54-4,.73-5.72,1.7S33.31,221.57,31.34,223.52Z"/>
<path class="cls-1" d="M346.51,118.35c-2.3-9.73-5.58-17.51-10.86-24.39-.5-.65-.35-1.81-.46-2.49L343.85,95c.3,1.47.77,3.72,1.24,6l.82,0c.2-1,.77-2.14.55-3.06C344.8,91,343,84.19,341.16,77.35a4.29,4.29,0,0,0-1.58-2c-1.36-1.06-2.39-.89-2.62,1.05a1.25,1.25,0,0,0,0,.64c2.74,5.65-.82,9-4.88,12.34-1.24-1.81-2.68-3.79-4-5.86a2.77,2.77,0,0,1-.26-2.07c1.47-4.62,2.64-9.4,4.73-13.72a22.41,22.41,0,0,1,6.35-7.47c3.05-2.41,4.78-1.84,7.5,1.11a3.78,3.78,0,0,0,.82.51c9.54,6,13.15,15.25,14.23,25.91.9,8.88-1,17-6.89,23.84C352.51,114.05,349.64,115.79,346.51,118.35Z"/><path class="cls-1" d="M93.28,36.52c-3.26-1.21-6.92-1.85-9.71-3.76-8-5.48-13.35-12.76-13-23.08C70.65,6,72.09,4,75.65,3.2A17.79,17.79,0,0,1,92.58,7.93c3.71,3.57,7.33,7.38,8.73,12.59a27.29,27.29,0,0,1,1.15,6.3C102.61,33.36,100.12,35.77,93.28,36.52Z"/>
<path class="cls-1" d="M22.11,156.12l3.41-2.24-.38-.68-3.49,1.59-.3-3.59c4.22.57,7.92.07,10.8-4.29v21.53L17.94,179.06c-.35-5.14-.83-10.13-1-15.14-.19-5.38,0-10.78-.18-16.17-.07-1.95-1.08-3.87-1.06-5.8,0-1.66.37-3.82,1.44-4.86,3.51-3.42,8-4.13,12.63-2.82,2.82.79,4,3.59,2.77,6.91-2-4-5.29-5.1-9-4.49-2.51.4-4.89,1.56-7.33,2.38l.17,1.47a7.06,7.06,0,0,0,2.53.4c1.23-.3,2.33-1.33,3.55-1.47,1.8-.22,4.37-.64,5.32.31a6.24,6.24,0,0,1,1.15,5.48c-.57,1.56-2.79,2.61-4.44,3.64-.62.38-1.67.06-2.6.06l-1-5.18-1.32.1c-.54,6.94-.06,13.9.39,21.18l2.72-5.2-1.57-1,4.39-2.12Z"/><path class="cls-1" d="M242,68l-2.13,17.16,1,.16c3.77-4.64,3.27-10.52,3.74-16,.48-5.65.11-11.37.11-17.22,3.05,1.18,5.14,3.8,6.57,6.92,4.48,9.79,3.83,19.45-1.1,28.9A12.53,12.53,0,0,1,249,89.83c-4.36,5.55-6.1,5.54-10.29-.06-5-6.68-5-6.7-1.7-14.47,1.13-2.62,2.5-5.14,3.76-7.71Z"/><path class="cls-1" d="M258.71,64.52,256,55.58c3.73-1.65,7.45-3.5,11.3-5a45.33,45.33,0,0,1,19.37-2.78c1.21.08,3.17,1,3.33,1.76a4.92,4.92,0,0,1-1.42,3.86c-3.83,3.59-8.84,4.19-13.76,4.89C269.11,59.14,263.39,59.8,258.71,64.52Z"/><path class="cls-1" d="M103.81,45.05C90.47,62.39,76.45,79.28,67.53,99.89l-2.73-1C67.54,90.43,72,83.17,77,76.26,84.32,66,92,56,99.57,45.92,100.68,44.44,101.78,43.11,103.81,45.05Z"/>
<path class="cls-1" d="M118.67,210.05c-5.11-11-10.27-22-15.22-33-.62-1.38-.09-3.26-.09-5.56,4.45,3.63,8.36,6.39,9.43,12,1.71,8.94,4.14,17.74,6.26,26.6Z"/><path class="cls-1" d="M227.7,79.7c3.48,5.4,6.79,10.52,10.62,16.47-3.83.22-7.27.69-10.66.46-1-.07-1.81-2.14-2.78-3.23-3.19-3.6-3.29-7,.36-10.4A24.19,24.19,0,0,0,227.7,79.7Z"/><path class="cls-1" d="M41.28,228.65c-3.54,7.3-7.07,14.61-10.57,21.83-1.46-2.45-3.13-5.21-4.75-8-.9-1.56-1-2.93.75-4.17,4.68-3.41,9.27-6.92,13.9-10.39Z"/><path class="cls-1" d="M101.12,172C97,164.15,93.4,157.17,89.66,150c4.42,3.05,8.46,5.79,12.43,8.62.6.42,1.37,1.31,1.29,1.85C102.8,164,102,167.58,101.12,172Z"/><path class="cls-1" d="M254.4,52.06c7.78-7.63,16.06-10.77,20.27-7.69Z"/><path class="cls-1" d="M209,130c-5.57,1-10.56-5-11.16-12.93Z"/><path class="cls-1" d="M144.1,70.14c-3.28-3.87-5.09-7.94-4.7-12.92C144.41,59.44,147,66.24,144.1,70.14Z"/>
<path class="cls-1" d="M81.86,63c-1.13-2.49-3.11-4.88-2.56-6,1.64-3.22,5.18-2.54,8.92-2.44Z"/><path class="cls-1" d="M34.81,228c3.93-7.37,7.22-9.05,10.12-5.22Z"/><path class="cls-1" d="M20.49,184.7,27.56,189,24,192.91l-4.3-7.53Z"/><path class="cls-1" d="M271.73,255.09c-.57,3.91-1.05,7.24-1.58,10.85C266,260.55,266,260.55,271.73,255.09Z"/><path class="cls-1" d="M108.62,157.64l2.48-3.23c1.18,3.42,2.09,6.08,3,8.74l-.66.41Z"/><path class="cls-1" d="M115.63,116.89l1.26,6.71-.77.71c-1-.51-2.83-1-2.83-1.54a33.82,33.82,0,0,1,.93-6Z"/><path class="cls-1" d="M104.76,36.58,107.28,39a15.15,15.15,0,0,1-3.09,2.87c-.39.2-1.61-1.17-2.45-1.83Z"/><path class="cls-1" d="M49.53,211c3.43,4.33-1.93,5.42-2.21,8.29C45.23,217.69,45.6,216.38,49.53,211Z"/><path class="cls-1" d="M30.58,131H20.17C23.71,129,27.21,128.73,30.58,131Z"/>
<path class="cls-1" d="M93,78.36c-1.51.73-3,1.53-4.55,2.14-.43.16-1.09-.27-1.65-.43.23-.64.34-1.71.71-1.82a52.43,52.43,0,0,1,5.31-1Z"/><path class="cls-1" d="M121.6,108.1c.78,2,1.36,3.5,2.18,5.63l-5-1.85Z"/><path d="M82.25,260.17c-2.36-3.72.44-8.5-2.58-11.48.28-2.72.62-5.14.76-7.56.16-2.76.83-4.47,4.18-4.92,3.8-.51,7.43-2.16,11.18-3.14,5-1.31,6.75.18,6.66,5.24-.08,4,0,8,0,12.06l-1.1.06-.71-3c-5.49.68-10.79,1.43-16.1,1.94-1.9.18-2.35,1-2.3,2.68C82.31,254.73,82.25,257.45,82.25,260.17Zm.71-12.5c4.23-.45,8.2-.54,12-1.37,5.73-1.25,7-4.45,4.54-9.5L83,239.71Z"/><path d="M104.85,200c1,4.09-1.23,7.3-5,7.31Z"/><path d="M119.75,33.54C118,28.3,116.44,23.83,118,19c.54-1.68,1.27-3.66,3.74-3.19,2.24.43,3.54,2,3.18,4.16a113.45,113.45,0,0,1-2.59,11.23C122.1,32,121,32.46,119.75,33.54Zm1.1-7.57.91.09.72-7.72-1.63-.07Z"/>
<path d="M148.28,39.49c.55-5.72,1.78-10.26,5.8-13.47.89-.7,2.46-.54,3.71-.77.24,1.27.94,2.69.59,3.77a11.07,11.07,0,0,1-2.78,4.21C153.5,35.29,151.14,37.08,148.28,39.49Z"/><path d="M17.9,99.67c-1.74,3-3.31,6.18-5.29,9a3.17,3.17,0,0,1-4.86.59,2.75,2.75,0,0,1-.06-4.51c2.82-2.35,6-4.25,9-6.33Z"/><path d="M209.57,144.91c1.19.79,2.44,1.51,3.57,2.38,9.84,7.61,20.68,11.48,33.23,8.84a34.68,34.68,0,0,0,4.31-1.35,19.88,19.88,0,0,0,2.2-1.08l-1.37-2.6c.39-.26.71-.64,1.08-.71,5.48-1,8.5-4.74,10.53-9.54,3.3-7.81,3.73-16.12,4.1-24.42,0-.77-.72-1.66-1.28-2.35a28.39,28.39,0,0,0-2.12-2c-.2-.2-.22-.58-.31-.87,5.69-2.78,13.31-.43,15.93,5.27h-8c-.42,7-.52,13.71-1.29,20.32S266.61,149,261.05,153a2.66,2.66,0,0,0-.74.62c-5.61,9.5-14.89,9-23.57,7.49a49.26,49.26,0,0,1-27-14.42,8.21,8.21,0,0,1-.73-1Z"/><path d="M284.56,76.83c1.74,0,2.57,1.11,2.05,3.91-1,5.61-1.7,11.3-2.31,17-.09.87.78,2,1.5,2.76,2.35,2.38,2.61,4.94.37,7.83l-.92-2c-1.75-3.72-3.6-4.63-7.51-3.43-2.53.78-5,1.77-7.68,2.74-2.51-6.37-4.88-12.4-7.26-18.43l.86-.7,3.69,1.75ZM270,92.89c2.32,2.46,3.5,3.84,4.82,5.08s6.17.53,6.47-1.23c.79-4.74,1.24-9.54,1.83-14.31l-1.42-.76Z"/><path d="M290.68,87.66c-.57-4.22-.68-7.79-1.6-11.13-.72-2.59-2.35-4.78-5.94-3.93-2.25.53-3.25-1.47-2.14-2.92,1.59-2.08,3.81-4.35,6.17-5,1.55-.4,4.5,1.56,5.58,3.26a11.93,11.93,0,0,1,1.8,7.56C293.91,79.55,292.12,83.37,290.68,87.66Z"/><path d="M219.93,138.52c.19,1,.81,2.18.44,2.81s-1.76.54-2.7.77l.6-3.53Z"/><path d="M123.64,56.44c10,5.11,15.15,17.48,11.68,27.58-1.11,3.24-2.68,6.35-6.45,7s-6-1.76-8.18-4.25c-4.15-4.7-4.77-10.27-3.89-16.1A27.49,27.49,0,0,1,123.64,56.44ZM131.55,85c-2.9-1.65-3.38-4.38-2.34-7.17.47-1.28,2.15-2.11,3.85-3.66a19.82,19.82,0,0,0-8.34-14.35A24.08,24.08,0,0,0,119.38,74c-.25,4.53.8,8.81,4,12.23C126.27,89.26,129.22,88.83,131.55,85Z"/><path d="M110.56,65.18c.25-5.42-.17-11.45,4.57-16.09A5.84,5.84,0,0,1,123,49a3.8,3.8,0,0,1-.26,5.9C118.63,58.32,114.6,61.76,110.56,65.18Z"/><path d="M122.19,129.44c-1.61,4.34-5.92,7.25-9.28,5.86a6.24,6.24,0,0,1-2.87-3.42c-.61-1.66.34-2.62,2.29-2.23C117.6,130.71,117.61,130.69,122.19,129.44Z"/><path d="M119.15,92c-4-2.51-7.54-10.89-5.84-13.69Z"/><path d="M112.41,83.62,115,91.19a8,8,0,0,1-3.69-7.25Z"/><path class="cls-1" d="M83,247.67v-8l16.55-2.91c2.44,5,1.19,8.25-4.54,9.5C91.16,247.13,87.19,247.22,83,247.67Z"/><path class="cls-1" d="M120.85,26v-7.7l1.63.07-.72,7.72Z"/><path class="cls-1" d="M270,92.89l11.7-11.22,1.42.76c-.59,4.77-1,9.57-1.83,14.31-.3,1.76-5,2.58-6.47,1.23S272.3,95.35,270,92.89Z"/><path class="cls-1" d="M131.55,85c-2.33,3.84-5.28,4.27-8.14,1.24-3.23-3.42-4.28-7.7-4-12.23a24.08,24.08,0,0,1,5.34-14.19,19.82,19.82,0,0,1,8.34,14.35c-1.7,1.55-3.38,2.38-3.85,3.66C128.17,80.61,128.65,83.34,131.55,85Z"/>
</g></g>
</svg>